<svg width="1142" height="624" viewBox="0 0 1142 624" fill="none" xmlns="http://www.w3.org/2000/svg">
<path d="M46.1844 88.1652C-9.22007 124.156 62.889 250.431 56.5221 316.026C50.2188 380.933 -21.7949 397.151 7.49513 475.143C50.2188 588.899 236.514 496.073 318.526 492.576C381.957 489.882 543.834 598.656 599.164 440.806C613.859 398.899 527.028 323.395 525.724 279.026C524.219 227.943 540.605 -11.3118 504.105 24.5941C395.199 131.72 343.188 131.715 291.144 133.168C228.896 134.911 98.3498 54.2825 46.1844 88.1652Z" fill="#5DBBCE"/>
<mask id="mask0_622_440" style="mask-type:alpha" maskUnits="userSpaceOnUse" x="0" y="-13" width="1164" height="698">
<path d="M46.1862 88.1709C-9.21825 124.161 62.8907 250.437 56.5238 316.031C50.2204 380.939 -21.7933 397.157 7.49666 475.149C50.2203 588.905 236.516 496.079 318.528 492.582C381.958 489.887 804.614 1007.5 1155.54 352.499C1202.42 265 1030.51 51.8676 1029.21 7.49892C522.372 -34.5 521.369 1.49585 507.332 17.9965C401.421 142.496 343.19 131.721 291.146 133.173C228.898 134.917 98.3516 54.2882 46.1862 88.1709Z" fill="#5DBBCE"/>
</mask>
<g mask="url(#mask0_622_440)">
<path d="M-98.2611 235.957H-9.98303V265.44H21.0883V172.973H80.4529V207.811H107.32V227.146H127.577L161.193 193.654L195.429 227.769H223.547V288.165H251.04V253.739H293.096V233.517H337.07V243.459H357.756V288.165H376.64V269.486H393.201V250.807H447.328V212.825H526.61V428.266H-98.2611V235.957Z" fill="#2F7D90"/>
<path d="M193.928 243.109H202.75V261.461H193.928V243.109Z" fill="#1F535F"/>
<path d="M95.4979 262.471H104.319V280.823H95.4979V262.471Z" fill="#1F535F"/>
<path d="M166.181 226.1H175.002V244.451H166.181V226.1Z" fill="#1F535F"/>
<path d="M148.124 262.471H156.946V280.823H148.124V262.471Z" fill="#F6EF83"/>
<path d="M178.559 284.895H187.381V303.246H178.559V284.895Z" fill="#1F535F"/>
<path d="M262.788 263.934H271.609V282.285H262.788V263.934Z" fill="#F6EF83"/>
<path d="M122.345 239.053H131.166V257.405H122.345V239.053Z" fill="#1F535F"/>
<path d="M59.5599 186.174H68.3813V204.526H59.5599V186.174Z" fill="#F6EF83"/>
<path d="M60.3128 206.095C65.3738 206.056 70.4348 206.022 75.4959 205.994C127.449 205.725 179.551 206.195 231.589 206.359H236.1C258.26 206.422 280.4 206.396 302.521 206.279C321.15 206.16 339.754 205.92 358.334 205.561C369.965 201.773 364.081 198.049 355.535 198.165C361.801 164.737 329.866 177.906 313.516 189.296C314.306 186.475 311.475 183.638 308.538 183.427C293.361 189.766 309.1 173.643 301.503 155.028C300.83 150.886 297.31 148.863 293.276 149.248C265.581 145.107 254.867 174.077 241.259 192.397C242.43 183.945 231.488 182.407 225.174 184.103C239.78 179.824 227.433 166.322 221.882 170.495C233.657 122.872 160.524 122.904 162.306 173.432C155.249 156.348 133.678 173.58 143.152 187.42C114.406 186.643 85.9236 193.064 60.3128 206.095V206.095Z" fill="white"/>
<path opacity="0.4" d="M236.1 206.349C258.26 206.413 280.4 206.386 302.521 206.27C302.15 203.164 301.344 200.169 299.653 197.564C296.801 193.18 290.566 190.554 286.108 193.338C285.578 188.985 278.792 183.079 274.392 183C269.992 182.921 262.496 185.113 261.828 189.466C252.736 189.318 242.695 198.737 236.1 206.349Z" fill="#F6E966"/>
<path opacity="0.4" d="M75.4955 205.995C127.449 205.726 179.551 206.196 231.589 206.359C231.951 203.576 231.64 200.747 230.682 198.108C228.715 193.126 222.089 189.656 217.768 192.857C219.157 189.408 220.026 184.595 216.809 182.72C213.31 180.691 209.387 184.511 207.155 187.876C207.796 182.165 208.358 176.148 206.052 170.881C202.299 162.297 191.113 158.325 182.249 161.431C173.385 164.537 167.331 173.512 166.345 182.825C165.093 181.841 163.555 181.284 161.96 181.238C160.366 181.193 158.799 181.66 157.492 182.572C156.23 183.545 155.317 184.897 154.887 186.428C154.457 187.959 154.534 189.588 155.106 191.072C145.442 189.64 136.244 195.033 126.744 197.31C115.372 200.036 103.338 198.266 91.8555 200.48C87.747 201.246 81.0407 203.074 75.4955 205.995Z" fill="#F6E966"/>
<path d="M276.878 237.368L271.312 237.331C252.259 237.23 233.142 237.405 214.057 237.463H212.398C204.269 237.484 196.151 237.473 188.044 237.431C181.212 237.389 174.389 237.302 167.575 237.172C163.334 235.783 165.455 234.415 168.598 234.452C166.303 222.191 178.013 227.019 184.009 231.198C183.718 230.141 184.757 229.121 185.833 229.042C191.405 231.372 185.632 225.455 188.415 218.63C188.664 217.109 189.952 216.369 191.431 216.517C201.589 214.996 205.517 225.624 210.516 232.339C210.087 229.232 214.1 228.678 216.411 229.296C211.057 227.711 215.584 222.777 217.62 224.309C213.305 206.845 240.124 206.876 239.467 225.365C242.059 219.1 249.958 225.418 246.491 230.495C257.038 230.215 267.486 232.578 276.878 237.368V237.368Z" fill="white"/>
<path opacity="0.4" d="M212.393 237.467C204.264 237.489 196.146 237.478 188.038 237.436C188.145 236.313 188.508 235.229 189.098 234.266C190.159 232.682 192.433 231.694 194.066 232.708C194.257 231.123 196.748 228.947 198.36 228.915C199.972 228.883 202.723 229.697 202.972 231.287C206.312 231.213 209.991 234.668 212.393 237.467Z" fill="#F6E966"/>
<path opacity="0.4" d="M271.312 237.331C252.259 237.23 233.142 237.405 214.057 237.463C213.919 236.444 214.032 235.407 214.386 234.441C215.107 232.608 217.567 231.34 219.125 232.513C218.595 231.245 218.293 229.481 219.475 228.815C220.758 228.07 222.195 229.476 223.017 230.706C222.778 228.593 222.571 226.406 223.42 224.473C224.798 221.303 228.896 219.872 232.151 221.007C235.406 222.143 237.622 225.44 237.982 228.852C238.443 228.492 239.007 228.289 239.592 228.273C240.178 228.257 240.752 228.428 241.232 228.762C241.696 229.118 242.031 229.614 242.189 230.176C242.347 230.738 242.318 231.335 242.107 231.879C245.648 231.351 249.025 233.332 252.508 234.166C256.675 235.165 261.091 234.515 265.3 235.323C267.387 235.713 269.41 236.389 271.312 237.331Z" fill="#F6E966"/>
<path d="M172.691 316.812H700.775V374.171H172.691V316.812Z" fill="#F4C124"/>
<path d="M172.691 374.172H700.775V375.73H172.691V374.172Z" fill="#F4C124"/>
<path d="M172.691 375.73H700.775V377.289H172.691V375.73Z" fill="#F4C125"/>
<path d="M172.691 377.289H700.775V378.847H172.691V377.289Z" fill="#F4C226"/>
<path d="M172.691 378.852H700.775V380.41H172.691V378.852Z" fill="#F4C226"/>
<path d="M172.691 380.41H700.775V381.969H172.691V380.41Z" fill="#F4C327"/>
<path d="M172.691 381.973H700.775V383.531H172.691V381.973Z" fill="#F4C328"/>
<path d="M172.691 383.531H700.775V385.09H172.691V383.531Z" fill="#F4C429"/>
<path d="M172.691 385.09H700.775V386.648H172.691V385.09Z" fill="#F4C42A"/>
<path d="M172.691 386.654H700.775V388.213H172.691V386.654Z" fill="#F4C52B"/>
<path d="M172.691 388.211H700.775V389.769H172.691V388.211Z" fill="#F4C52C"/>
<path d="M172.691 389.777H700.775V391.336H172.691V389.777Z" fill="#F4C62C"/>
<path d="M172.691 391.334H700.775V392.892H172.691V391.334Z" fill="#F4C62D"/>
<path d="M172.691 392.898H700.775V394.457H172.691V392.898Z" fill="#F4C72E"/>
<path d="M172.691 394.457H700.775V396.015H172.691V394.457Z" fill="#F4C72F"/>
<path d="M172.691 396.016H700.775V397.574H172.691V396.016Z" fill="#F4C830"/>
<path d="M172.691 397.578H700.775V399.137H172.691V397.578Z" fill="#F4C831"/>
<path d="M172.691 399.137H700.775V400.695H172.691V399.137Z" fill="#F4C932"/>
<path d="M172.691 400.699H700.775V402.258H172.691V400.699Z" fill="#F4C933"/>
<path d="M172.691 402.258H700.775V403.816H172.691V402.258Z" fill="#F4CA34"/>
<path d="M172.691 403.816H700.775V405.375H172.691V403.816Z" fill="#F4CA35"/>
<path d="M172.691 405.381H700.775V406.939H172.691V405.381Z" fill="#F5CB36"/>
<path d="M172.691 406.939H700.775V408.498H172.691V406.939Z" fill="#F5CB37"/>
<path d="M172.691 408.502H700.775V410.06H172.691V408.502Z" fill="#F5CC38"/>
<path d="M172.691 410.062H700.775V411.621H172.691V410.062Z" fill="#F5CC39"/>
<path d="M172.691 411.625H700.775V413.183H172.691V411.625Z" fill="#F5CC3A"/>
<path d="M172.691 413.184H700.775V414.742H172.691V413.184Z" fill="#F5CD3B"/>
<path d="M172.691 414.742H700.775V416.301H172.691V414.742Z" fill="#F5CD3C"/>
<path d="M172.691 416.305H700.775V417.863H172.691V416.305Z" fill="#F5CE3D"/>
<path d="M172.691 417.863H700.775V419.422H172.691V417.863Z" fill="#F5CE3E"/>
<path d="M172.691 419.428H700.775V420.986H172.691V419.428Z" fill="#F5CF3F"/>
<path d="M172.691 420.984H700.775V422.543H172.691V420.984Z" fill="#F5CF40"/>
<path d="M172.691 422.551H700.775V424.109H172.691V422.551Z" fill="#F5D041"/>
<path d="M172.691 424.107H700.775V425.666H172.691V424.107Z" fill="#F5D042"/>
<path d="M172.691 425.666H700.775V427.224H172.691V425.666Z" fill="#F5D142"/>
<path d="M172.691 427.23H700.775V428.789H172.691V427.23Z" fill="#F5D143"/>
<path d="M172.691 428.789H700.775V430.347H172.691V428.789Z" fill="#F5D244"/>
<path d="M172.691 430.352H700.775V431.91H172.691V430.352Z" fill="#F5D245"/>
<path d="M172.691 431.91H700.775V433.469H172.691V431.91Z" fill="#F5D346"/>
<path d="M172.691 433.469H700.775V435.027H172.691V433.469Z" fill="#F5D347"/>
<path d="M172.691 435.031H700.775V436.59H172.691V435.031Z" fill="#F5D448"/>
<path d="M172.691 436.59H700.775V438.148H172.691V436.59Z" fill="#F5D449"/>
<path d="M172.691 438.154H700.775V439.713H172.691V438.154Z" fill="#F5D54A"/>
<path d="M172.691 439.713H700.775V441.271H172.691V439.713Z" fill="#F5D54B"/>
<path d="M172.691 441.277H700.775V442.836H172.691V441.277Z" fill="#F5D64C"/>
<path d="M172.691 442.836H700.775V444.394H172.691V442.836Z" fill="#F5D64D"/>
<path d="M172.691 444.393H700.775V445.951H172.691V444.393Z" fill="#F5D74E"/>
<path d="M172.691 445.957H700.775V447.515H172.691V445.957Z" fill="#F5D74F"/>
<path d="M172.691 447.516H700.775V449.074H172.691V447.516Z" fill="#F5D850"/>
<path d="M172.691 449.078H700.775V450.637H172.691V449.078Z" fill="#F5D851"/>
<path d="M172.691 450.637H700.775V452.195H172.691V450.637Z" fill="#F5D952"/>
<path d="M172.691 452.195H700.775V453.754H172.691V452.195Z" fill="#F5D953"/>
<path d="M172.691 453.758H700.775V455.316H172.691V453.758Z" fill="#F5DA54"/>
<path d="M172.691 455.318H700.775V456.877H172.691V455.318Z" fill="#F5DA55"/>
<path d="M172.691 456.881H700.775V458.439H172.691V456.881Z" fill="#F5DB56"/>
<path d="M172.691 458.439H700.775V459.998H172.691V458.439Z" fill="#F5DB57"/>
<path d="M172.691 460.004H700.775V461.562H172.691V460.004Z" fill="#F5DC59"/>
<path d="M172.691 461.561H700.775V463.119H172.691V461.561Z" fill="#F5DC5A"/>
<path d="M172.691 463.121H700.775V464.679H172.691V463.121Z" fill="#F5DC5B"/>
<path d="M172.691 464.684H700.775V466.242H172.691V464.684Z" fill="#F5DD5C"/>
<path d="M172.691 466.242H700.775V467.801H172.691V466.242Z" fill="#F5DD5D"/>
<path d="M172.691 467.805H700.775V469.363H172.691V467.805Z" fill="#F5DE5E"/>
<path d="M172.691 469.363H700.775V470.922H172.691V469.363Z" fill="#F5DE5F"/>
<path d="M172.691 470.922H700.775V472.48H172.691V470.922Z" fill="#F5DF60"/>
<path d="M172.691 472.486H700.775V474.045H172.691V472.486Z" fill="#F5DF61"/>
<path d="M172.691 474.043H700.775V475.601H172.691V474.043Z" fill="#F5E062"/>
<path d="M172.691 475.609H700.775V477.168H172.691V475.609Z" fill="#F5E063"/>
<path d="M172.691 477.166H700.775V478.724H172.691V477.166Z" fill="#F5E164"/>
<path d="M172.691 478.73H700.775V480.289H172.691V478.73Z" fill="#F5E165"/>
<path d="M172.691 480.289H700.775V481.847H172.691V480.289Z" fill="#F5E266"/>
<path d="M172.691 481.848H700.775V483.406H172.691V481.848Z" fill="#F5E267"/>
<path d="M172.691 483.41H700.775V484.969H172.691V483.41Z" fill="#F5E368"/>
<path d="M172.691 484.969H700.775V486.527H172.691V484.969Z" fill="#F5E369"/>
<path d="M172.691 486.531H700.775V488.09H172.691V486.531Z" fill="#F5E46A"/>
<path d="M172.691 488.09H700.775V489.648H172.691V488.09Z" fill="#F5E46B"/>
<path d="M172.691 489.654H700.775V491.213H172.691V489.654Z" fill="#F5E56C"/>
<path d="M172.691 491.213H700.775V492.771H172.691V491.213Z" fill="#F5E56D"/>
<path d="M172.691 492.771H700.775V494.33H172.691V492.771Z" fill="#F5E66E"/>
<path d="M172.691 494.336H700.775V495.894H172.691V494.336Z" fill="#F5E66F"/>
<path d="M172.691 495.895H700.775V497.453H172.691V495.895Z" fill="#F6E771"/>
<path d="M172.691 497.457H700.775V499.015H172.691V497.457Z" fill="#F6E772"/>
<path d="M172.691 499.016H700.775V500.574H172.691V499.016Z" fill="#F6E873"/>
<path d="M172.691 500.574H700.775V502.133H172.691V500.574Z" fill="#F6E874"/>
<path d="M172.691 502.137H700.775V503.695H172.691V502.137Z" fill="#F6E975"/>
<path d="M172.691 503.695H700.775V505.254H172.691V503.695Z" fill="#F6E976"/>
<path d="M172.691 505.258H700.775V506.816H172.691V505.258Z" fill="#F6EA77"/>
<path d="M172.691 506.816H700.775V508.375H172.691V506.816Z" fill="#F6EA78"/>
<path d="M172.691 508.381H700.775V509.939H172.691V508.381Z" fill="#F6EB79"/>
<path d="M172.691 509.939H700.775V511.498H172.691V509.939Z" fill="#F6EB7A"/>
<path d="M172.691 511.498H700.775V513.056H172.691V511.498Z" fill="#F6EB7B"/>
<path d="M172.691 513.062H700.775V514.621H172.691V513.062Z" fill="#F6EC7C"/>
<path d="M172.691 514.619H700.775V516.178H172.691V514.619Z" fill="#F6EC7D"/>
<path d="M172.691 516.184H700.775V517.742H172.691V516.184Z" fill="#F6ED7F"/>
<path d="M172.691 517.742H700.775V519.301H172.691V517.742Z" fill="#F6ED80"/>
<path d="M172.691 519.301H700.775V520.859H172.691V519.301Z" fill="#F6EE81"/>
<path d="M172.691 520.863H700.775V522.422H172.691V520.863Z" fill="#F6EE82"/>
<path d="M172.691 522.422H700.775V523.98H172.691V522.422Z" fill="#F6EF83"/>
<path d="M172.691 523.986H700.775V532.56H172.691V523.986Z" fill="#F6EF83"/>
<path d="M-98.2614 350.488H172.691V398.893H-98.2614V350.488Z" fill="#F4C124"/>
<path d="M-98.2614 398.893H172.691V400.208H-98.2614V398.893Z" fill="#F4C124"/>
<path d="M-98.2614 400.207H172.691V401.522H-98.2614V400.207Z" fill="#F4C125"/>
<path d="M-98.2614 401.523H172.691V402.839H-98.2614V401.523Z" fill="#F4C226"/>
<path d="M-98.2614 402.844H172.691V404.159H-98.2614V402.844Z" fill="#F4C226"/>
<path d="M-98.2614 404.16H172.691V405.476H-98.2614V404.16Z" fill="#F4C327"/>
<path d="M-98.2614 405.475H172.691V406.79H-98.2614V405.475Z" fill="#F4C328"/>
<path d="M-98.2614 406.797H172.691V408.112H-98.2614V406.797Z" fill="#F4C429"/>
<path d="M-98.2614 408.111H172.691V409.427H-98.2614V408.111Z" fill="#F4C42A"/>
<path d="M-98.2614 409.426H172.691V410.741H-98.2614V409.426Z" fill="#F4C52B"/>
<path d="M-98.2614 410.748H172.691V412.063H-98.2614V410.748Z" fill="#F4C52C"/>
<path d="M-98.2614 412.062H172.691V413.378H-98.2614V412.062Z" fill="#F4C62C"/>
<path d="M-98.2614 413.379H172.691V414.694H-98.2614V413.379Z" fill="#F4C62D"/>
<path d="M-98.2614 414.699H172.691V416.015H-98.2614V414.699Z" fill="#F4C72E"/>
<path d="M-98.2614 416.014H172.691V417.329H-98.2614V416.014Z" fill="#F4C72F"/>
<path d="M-98.2614 417.328H172.691V418.643H-98.2614V417.328Z" fill="#F4C830"/>
<path d="M-98.2614 418.645H172.691V419.96H-98.2614V418.645Z" fill="#F4C831"/>
<path d="M-98.2614 419.965H172.691V421.28H-98.2614V419.965Z" fill="#F4C932"/>
<path d="M-98.2614 421.281H172.691V422.597H-98.2614V421.281Z" fill="#F4C933"/>
<path d="M-98.2614 422.596H172.691V423.911H-98.2614V422.596Z" fill="#F4CA34"/>
<path d="M-98.2614 423.918H172.691V425.233H-98.2614V423.918Z" fill="#F4CA35"/>
<path d="M-98.2614 425.232H172.691V426.548H-98.2614V425.232Z" fill="#F5CB36"/>
<path d="M-98.2614 426.547H172.691V427.862H-98.2614V426.547Z" fill="#F5CB37"/>
<path d="M-98.2614 427.867H172.691V429.183H-98.2614V427.867Z" fill="#F5CC38"/>
<path d="M-98.2614 429.184H172.691V430.499H-98.2614V429.184Z" fill="#F5CC39"/>
<path d="M-98.2614 430.5H172.691V431.815H-98.2614V430.5Z" fill="#F5CC3A"/>
<path d="M-98.2614 431.814H172.691V433.13H-98.2614V431.814Z" fill="#F5CD3B"/>
<path d="M-98.2614 433.135H172.691V434.45H-98.2614V433.135Z" fill="#F5CD3C"/>
<path d="M-98.2614 434.449H172.691V435.765H-98.2614V434.449Z" fill="#F5CE3D"/>
<path d="M-98.2614 435.766H172.691V437.081H-98.2614V435.766Z" fill="#F5CE3E"/>
<path d="M-98.2614 437.086H172.691V438.401H-98.2614V437.086Z" fill="#F5CF3F"/>
<path d="M-98.2614 438.402H172.691V439.718H-98.2614V438.402Z" fill="#F5CF40"/>
<path d="M-98.2614 439.717H172.691V441.032H-98.2614V439.717Z" fill="#F5D041"/>
<path d="M-98.2614 441.039H172.691V442.354H-98.2614V441.039Z" fill="#F5D042"/>
<path d="M-98.2614 442.352H172.691V443.667H-98.2614V442.352Z" fill="#F5D142"/>
<path d="M-98.2614 443.668H172.691V444.983H-98.2614V443.668Z" fill="#F5D143"/>
<path d="M-98.2614 444.988H172.691V446.304H-98.2614V444.988Z" fill="#F5D244"/>
<path d="M-98.2614 446.305H172.691V447.62H-98.2614V446.305Z" fill="#F5D245"/>
<path d="M-98.2614 447.621H172.691V448.936H-98.2614V447.621Z" fill="#F5D346"/>
<path d="M-98.2614 448.936H172.691V450.251H-98.2614V448.936Z" fill="#F5D347"/>
<path d="M-98.2614 450.256H172.691V451.571H-98.2614V450.256Z" fill="#F5D448"/>
<path d="M-98.2614 451.57H172.691V452.886H-98.2614V451.57Z" fill="#F5D449"/>
<path d="M-98.2614 452.887H172.691V454.202H-98.2614V452.887Z" fill="#F5D54A"/>
<path d="M-98.2614 454.207H172.691V455.522H-98.2614V454.207Z" fill="#F5D54B"/>
<path d="M-98.2614 455.523H172.691V456.839H-98.2614V455.523Z" fill="#F5D64C"/>
<path d="M-98.2614 456.838H172.691V458.153H-98.2614V456.838Z" fill="#F5D64D"/>
<path d="M-98.2614 458.158H172.691V459.474H-98.2614V458.158Z" fill="#F5D74E"/>
<path d="M-98.2614 459.473H172.691V460.788H-98.2614V459.473Z" fill="#F5D74F"/>
<path d="M-98.2614 460.789H172.691V462.104H-98.2614V460.789Z" fill="#F5D850"/>
<path d="M-98.2614 462.105H172.691V463.421H-98.2614V462.105Z" fill="#F5D851"/>
<path d="M-98.2614 463.426H172.691V464.741H-98.2614V463.426Z" fill="#F5D952"/>
<path d="M-98.2614 464.74H172.691V466.056H-98.2614V464.74Z" fill="#F5D953"/>
<path d="M-98.2614 466.055H172.691V467.37H-98.2614V466.055Z" fill="#F5DA54"/>
<path d="M-98.2614 467.377H172.691V468.692H-98.2614V467.377Z" fill="#F5DA55"/>
<path d="M-98.2614 468.691H172.691V470.007H-98.2614V468.691Z" fill="#F5DB56"/>
<path d="M-98.2614 470.008H172.691V471.323H-98.2614V470.008Z" fill="#F5DB57"/>
<path d="M-98.2614 471.328H172.691V472.643H-98.2614V471.328Z" fill="#F5DC59"/>
<path d="M-98.2614 472.643H172.691V473.958H-98.2614V472.643Z" fill="#F5DC5A"/>
<path d="M-98.2614 473.959H172.691V475.274H-98.2614V473.959Z" fill="#F5DC5B"/>
<path d="M-98.2614 475.279H172.691V476.595H-98.2614V475.279Z" fill="#F5DD5C"/>
<path d="M-98.2614 476.594H172.691V477.909H-98.2614V476.594Z" fill="#F5DD5D"/>
<path d="M-98.2614 477.91H172.691V479.226H-98.2614V477.91Z" fill="#F5DE5E"/>
<path d="M-98.2614 479.227H172.691V480.542H-98.2614V479.227Z" fill="#F5DE5F"/>
<path d="M-98.2614 480.547H172.691V481.862H-98.2614V480.547Z" fill="#F5DF60"/>
<path d="M-98.2614 481.861H172.691V483.177H-98.2614V481.861Z" fill="#F5DF61"/>
<path d="M-98.2614 483.176H172.691V484.491H-98.2614V483.176Z" fill="#F5E062"/>
<path d="M-98.2614 484.498H172.691V485.813H-98.2614V484.498Z" fill="#F5E063"/>
<path d="M-98.2614 485.812H172.691V487.128H-98.2614V485.812Z" fill="#F5E164"/>
<path d="M-98.2614 487.129H172.691V488.444H-98.2614V487.129Z" fill="#F5E165"/>
<path d="M-98.2614 488.449H172.691V489.765H-98.2614V488.449Z" fill="#F5E266"/>
<path d="M-98.2614 489.766H172.691V491.081H-98.2614V489.766Z" fill="#F5E267"/>
<path d="M-98.2614 491.08H172.691V492.395H-98.2614V491.08Z" fill="#F5E368"/>
<path d="M-98.2614 492.4H172.691V493.716H-98.2614V492.4Z" fill="#F5E369"/>
<path d="M-98.2614 493.717H172.691V495.032H-98.2614V493.717Z" fill="#F5E46A"/>
<path d="M-98.2614 495.031H172.691V496.347H-98.2614V495.031Z" fill="#F5E46B"/>
<path d="M-98.2614 496.348H172.691V497.663H-98.2614V496.348Z" fill="#F5E56C"/>
<path d="M-98.2614 497.668H172.691V498.983H-98.2614V497.668Z" fill="#F5E56D"/>
<path d="M-98.2614 498.982H172.691V500.298H-98.2614V498.982Z" fill="#F5E66E"/>
<path d="M-98.2614 500.297H172.691V501.612H-98.2614V500.297Z" fill="#F5E66F"/>
<path d="M-98.2614 501.617H172.691V502.933H-98.2614V501.617Z" fill="#F6E771"/>
<path d="M-98.2614 502.934H172.691V504.249H-98.2614V502.934Z" fill="#F6E772"/>
<path d="M-98.2614 504.25H172.691V505.565H-98.2614V504.25Z" fill="#F6E873"/>
<path d="M-98.2614 505.57H172.691V506.886H-98.2614V505.57Z" fill="#F6E874"/>
<path d="M-98.2614 506.887H172.691V508.202H-98.2614V506.887Z" fill="#F6E975"/>
<path d="M-98.2614 508.201H172.691V509.517H-98.2614V508.201Z" fill="#F6E976"/>
<path d="M-98.2614 509.516H172.691V510.831H-98.2614V509.516Z" fill="#F6EA77"/>
<path d="M-98.2614 510.836H172.691V512.151H-98.2614V510.836Z" fill="#F6EA78"/>
<path d="M-98.2614 512.152H172.691V513.468H-98.2614V512.152Z" fill="#F6EB79"/>
<path d="M-98.2614 513.469H172.691V514.784H-98.2614V513.469Z" fill="#F6EB7A"/>
<path d="M-98.2614 514.789H172.691V516.104H-98.2614V514.789Z" fill="#F6EB7B"/>
<path d="M-98.2614 516.104H172.691V517.419H-98.2614V516.104Z" fill="#F6EC7C"/>
<path d="M-98.2614 517.42H172.691V518.735H-98.2614V517.42Z" fill="#F6EC7D"/>
<path d="M-98.2614 518.738H172.691V520.054H-98.2614V518.738Z" fill="#F6ED7F"/>
<path d="M-98.2614 520.055H172.691V521.37H-98.2614V520.055Z" fill="#F6ED80"/>
<path d="M-98.2614 521.371H172.691V522.687H-98.2614V521.371Z" fill="#F6EE81"/>
<path d="M-98.2614 522.691H172.691V524.007H-98.2614V522.691Z" fill="#F6EE82"/>
<path d="M-98.2614 524.008H172.691V525.323H-98.2614V524.008Z" fill="#F6EF83"/>
<path d="M-98.2614 525.32H172.691V532.557H-98.2614V525.32Z" fill="#F6EF83"/>
<path d="M168.619 381.973H177.441V400.324H168.619V381.973Z" fill="#F6EF83"/>
<path d="M286.892 331.82H295.714V350.172H286.892V331.82Z" fill="#F6EF83"/>
<path d="M143.714 409.852H152.536V428.203H143.714V409.852Z" fill="#F6EF83"/>
<path d="M115.712 378.768H124.533V397.119H115.712V378.768Z" fill="#F6EF83"/>
<path d="M78.1254 223.782C74.7219 225.06 72.5113 228.8 72.0554 232.292C71.3291 230.359 69.3252 229.239 67.4061 228.468C64.167 226.693 59.4541 227.855 58.9876 231.906C58.2613 230.364 58.1128 228.531 59.4382 227.289C62.1843 223.998 67.9203 223.703 70.3961 227.448C72.7075 225.631 74.6795 223.222 77.3249 221.891C80.4527 220.565 84.1584 223.296 83.7979 226.645C83.8986 225.425 79.0478 223.639 78.1254 223.782Z" fill="#663915"/>
<path d="M257.809 439.312C254.931 441.526 253.924 445.747 254.517 449.217C253.256 447.585 251.008 447.104 248.946 446.93C245.325 446.185 241.179 448.668 241.916 452.683C240.766 451.42 240.082 449.709 240.983 448.14C242.637 444.188 248.044 442.218 251.501 445.076C253.176 442.662 254.348 439.793 256.484 437.738C259.082 435.551 263.429 437.073 264.081 440.379C263.816 439.223 258.652 438.937 257.809 439.312Z" fill="#663915"/>
<path d="M178.358 322.392C174.992 321.309 171.037 322.82 168.572 325.208C169.192 323.296 168.349 321.235 167.352 319.492C165.969 316.191 161.69 314.236 158.87 317.03C159.252 315.419 160.254 313.93 162.014 313.787C166.101 312.942 170.655 316.185 170.257 320.522C173.12 320.522 176.089 319.883 178.899 320.469C182.079 321.346 183.246 325.657 180.924 328.008C181.735 327.141 179.132 322.857 178.358 322.392Z" fill="#663915"/>
<path d="M270.84 176.206C268.333 177.331 266.843 180.257 266.673 182.915C266.032 181.488 264.463 180.738 262.963 180.273C260.434 179.085 256.945 180.184 256.776 183.269C256.15 182.133 255.949 180.759 256.892 179.761C258.806 177.12 263.132 176.649 265.173 179.359C266.827 177.88 268.2 175.963 270.13 174.838C270.682 174.588 271.289 174.481 271.893 174.526C272.498 174.57 273.082 174.766 273.591 175.094C274.1 175.422 274.519 175.872 274.808 176.403C275.097 176.935 275.248 177.53 275.246 178.134C275.278 177.188 271.535 176.068 270.84 176.206Z" fill="#663915"/>
<path d="M89.9312 177.605C89.9312 177.605 88.5793 188.429 76.1 191.805L80.8712 185.466L89.9312 177.605Z" fill="white"/>
<path d="M71.1326 186.423C74.4091 186.78 77.7243 186.46 80.8711 185.482C79.9858 188.42 78.5173 191.05 76.0999 191.822L71.1326 186.423Z" fill="white"/>
<path d="M89.9312 177.606C87.9167 182.064 84.3595 184.341 80.8766 185.482C82.292 180.812 82.239 175.355 82.239 175.355L89.9312 177.606Z" fill="#BFD2E0"/>
<path d="M208.242 325.117C208.242 325.117 206.89 335.941 194.41 339.317L199.182 332.978L208.242 325.117Z" fill="white"/>
<path d="M189.449 333.933C192.727 334.289 196.044 333.969 199.192 332.992C198.302 335.929 196.833 338.56 194.421 339.331L189.449 333.933Z" fill="white"/>
<path d="M208.242 325.118C206.227 329.576 202.67 331.853 199.192 332.994C200.602 328.324 200.555 322.867 200.555 322.867L208.242 325.118Z" fill="#BFD2E0"/>
<path d="M222.009 430.578C222.009 430.578 220.657 441.397 208.178 444.773L212.949 438.433L222.009 430.578Z" fill="white"/>
<path d="M203.216 439.397C206.493 439.75 209.808 439.428 212.955 438.451C212.069 441.394 210.601 444.019 208.183 444.79L203.216 439.397Z" fill="white"/>
<path d="M222.009 430.58C219.995 435.033 216.438 437.31 212.955 438.451C214.37 433.781 214.317 428.324 214.317 428.324L222.009 430.58Z" fill="#BFD2E0"/>
<path d="M55.335 373.051C55.335 373.051 53.84 385.032 40.0193 388.772L45.3207 381.772L55.335 373.051Z" fill="white"/>
<path d="M34.527 382.814C38.1578 383.202 41.8298 382.842 45.3154 381.758C44.3294 385.012 42.7071 387.917 40.014 388.757L34.527 382.814Z" fill="white"/>
<path d="M55.335 373.052C53.1031 377.986 49.1641 380.511 45.3153 381.774C46.8739 376.602 46.821 370.559 46.821 370.559L55.335 373.052Z" fill="#BFD2E0"/>
<path d="M47.2607 211.826C47.2607 211.826 29.8724 196.892 42.3411 183.58L44.6101 203.036L47.2607 211.826Z" fill="#DC3165"/>
<path d="M47.2607 211.827C44.8697 210.19 44.329 206.751 44.6099 203.037C47.2737 205.563 50.2635 207.723 53.5005 209.461L47.2607 211.827Z" fill="#DC3165"/>
<path d="M44.6098 203.036C39.6902 198.255 35.7673 191.25 42.3409 183.58L48.0557 189.275C48.0557 189.275 45.0922 196.565 44.6098 203.036Z" fill="#C61851"/>
<path d="M274.186 398.398C274.186 398.398 285.191 418.472 268.821 426.565L273.565 407.548L274.186 398.398Z" fill="#DC3165"/>
<path d="M274.185 398.396C275.845 400.763 275.134 404.176 273.565 407.551C271.968 404.255 269.937 401.185 267.527 398.423L274.185 398.396Z" fill="#DC3165"/>
<path d="M273.565 407.551C276.481 413.753 277.679 421.682 268.82 426.568L265.48 419.231C265.48 419.231 270.829 413.425 273.565 407.551Z" fill="#C61851"/>
<path d="M47.9289 140.785L56.1459 143.506C56.1831 148.191 57.4236 151.498 59.1836 153.839C51.7034 150.257 47.9289 140.785 47.9289 140.785Z" fill="#298BBD"/>
<path d="M71.313 159.465C71.313 159.465 56.2784 163.162 47.9288 140.785L59.1835 153.839L71.313 159.465Z" fill="#298BBD"/>
<path d="M68.8903 154.646L71.313 159.464C71.313 159.464 63.6101 159.728 59.1835 153.838C62.2052 155.302 65.6666 155.59 68.8903 154.646Z" fill="#186AAB"/>
<path d="M198.843 381.557L191.135 377.632C191.808 372.999 191.082 369.539 189.698 366.961C196.547 371.625 198.843 381.557 198.843 381.557Z" fill="#298BBD"/>
<path d="M178.559 359.574C178.559 359.574 193.981 358.19 198.842 381.555L189.697 366.959L178.559 359.574Z" fill="#298BBD"/>
<path d="M180.224 364.698L178.56 359.574C178.56 359.574 186.209 360.472 189.692 366.97C186.929 365.066 183.554 364.257 180.224 364.698V364.698Z" fill="#186AAB"/>
<path d="M-38.8915 371.165V531.593H105.963C105.963 531.519 105.931 531.445 105.91 531.376C102.199 517.319 90.0959 505.814 75.83 502.824C80.4528 500.415 83.7184 495.877 85.0225 490.859C85.6702 488.422 85.8251 485.881 85.4784 483.384C85.2803 482.003 84.9099 480.653 84.3758 479.364C83.2094 476.617 81.3637 474.209 79.0108 472.364C76.677 470.514 73.9615 469.201 71.0588 468.519C68.47 467.904 65.7776 467.861 63.1703 468.392C62.6402 468.497 62.1736 468.624 61.6806 468.777C62.5193 467.647 63.2304 466.428 63.8012 465.143C65.1132 462.149 65.7329 458.899 65.6142 455.634C65.55 453.631 65.2275 451.644 64.6547 449.723C64.0135 447.558 63.0389 445.505 61.7655 443.637C61.405 443.109 61.0127 442.581 60.6045 442.1C59.1949 440.42 57.5422 438.958 55.7007 437.763C55.2819 437.489 54.8578 437.235 54.4231 436.987L54.2057 436.865C52.2075 435.761 50.0671 434.935 47.8441 434.409C45.0321 433.738 42.1266 433.547 39.2506 433.843C37.5956 434.012 35.9628 434.352 34.3786 434.858C35.4389 432.042 36.4621 429.2 37.4004 426.326C38.0366 424.372 38.625 422.396 39.1234 420.415C39.8905 417.483 40.4082 414.491 40.6713 411.472C40.8084 409.806 40.8421 408.134 40.7721 406.464C40.7721 406.02 40.7297 405.582 40.6872 405.143C40.3168 400.802 39.1752 396.561 37.3156 392.618C36.4139 390.69 35.3498 388.841 34.1348 387.092C33.1256 385.629 32.0149 384.238 30.8108 382.93C28.4314 380.335 25.6846 378.099 22.6573 376.295C17.3411 373.219 11.3521 371.481 5.20961 371.234C-0.932837 370.986 -7.04321 372.236 -12.5914 374.874C-14.5317 375.819 -16.5515 376.987 -18.688 376.717C-20.5806 376.495 -22.1497 375.233 -23.7614 374.224C-28.2887 371.35 -33.6166 370.5 -38.8915 371.165Z" fill="#8DAF41"/>
<path d="M-38.8915 383.59V531.577H80.7761C80.914 530.242 80.997 528.897 81.0253 527.541C81.0783 524.937 80.9405 522.259 80.0604 519.866C78.8782 516.627 76.4714 514.187 73.9427 512.19C67.0021 506.614 58.3275 503.625 49.4132 503.738C51.2701 501.228 52.5515 498.343 53.1666 495.285C53.9191 491.839 53.712 488.253 52.5676 484.916C52.5676 484.847 52.5199 484.778 52.4934 484.71C50.1502 478.471 43.5818 474.414 37.9199 476.49C40.3097 473.943 41.8583 470.728 42.3572 467.277C43.0617 463.299 42.4593 459.201 40.6395 455.592L40.4222 455.19C39.1055 452.884 37.1828 450.979 34.861 449.681C34.538 449.488 34.2054 449.311 33.8644 449.152C31.5427 448.055 28.9541 447.645 26.4054 447.969C24.9854 448.154 23.6101 448.59 22.3445 449.258C22.2812 441.402 20.8238 433.619 18.0398 426.268C17.7642 425.539 17.4673 424.821 17.1545 424.107C16.6031 422.829 16.0041 421.579 15.3573 420.357C14.1817 418.114 12.8347 415.965 11.3283 413.928C7.23985 408.331 1.79331 403.86 -4.50158 400.933C-8.71596 398.991 -13.3081 397.999 -17.9511 398.027C-18.9637 398.027 -20.0134 398.096 -20.9305 397.621C-22.0756 397.024 -22.786 395.729 -23.5176 394.567C-24.1153 393.624 -24.7759 392.722 -25.495 391.868C-28.9883 387.788 -33.671 384.894 -38.8915 383.59V383.59Z" fill="#77932A"/>
<g opacity="0.5">
<path opacity="0.5" d="M19.8318 385.586C14.7001 381.36 8.02567 379.305 1.38838 378.719C-2.32065 378.344 -6.06742 378.681 -9.64901 379.712C-13.625 380.937 -12.7344 386.754 -8.58874 386.706C-1.85602 386.627 4.9297 385.988 10.9573 388.74C14.0326 390.191 16.6649 392.432 18.5841 395.232C20.5032 398.032 21.6402 401.29 21.8781 404.672C21.9523 406.035 21.8781 407.435 22.3181 408.729C22.833 410.11 23.8611 411.241 25.1894 411.887C26.5178 412.533 28.0446 412.645 29.4538 412.2C30.6837 411.762 28.298 399.416 27.9057 398.053C26.5278 393.186 23.7151 388.843 19.8318 385.586V385.586Z" fill="#F6EF83"/>
</g>
<g opacity="0.5">
<path opacity="0.5" d="M85.0859 517.659C87.6995 519.877 90.5463 521.885 91.8345 525.054C92.6221 527.141 92.7022 529.427 92.0625 531.563H96.0385C96.4549 529.971 96.5823 528.318 96.4149 526.681C96.0226 523.158 94.2254 520.057 91.8981 517.579C90.609 516.178 89.0373 515.064 87.286 514.309C85.3033 513.512 83.4743 516.285 85.0859 517.659Z" fill="#F6EF83"/>
</g>
<path d="M58.4574 516.437C58.8126 515.185 58.9398 513.627 57.9962 512.766C57.4033 512.33 56.6917 512.083 55.9552 512.058C50.5319 511.339 44.7163 510.69 39.8603 513.315C37.2467 514.731 35.1526 516.981 33.1116 519.195C31.8022 520.605 30.392 522.533 31.1342 524.34C31.7969 525.962 33.7849 526.384 35.4602 526.532C44.5785 527.319 55.2236 527.747 58.4574 516.437Z" fill="#8DAF41"/>
<path d="M-11.2079 472.592L-10.6778 471.741L-9.88256 470.51C-9.43371 469.806 -8.98661 469.102 -8.5413 468.397C-7.96345 467.494 -7.3909 466.585 -6.81305 465.671L-6.73882 465.555L-4.98941 462.766L-3.26116 459.971C-2.37584 458.545 -1.50111 457.103 -0.610483 455.661C-0.552169 455.566 -0.493817 455.476 -0.440804 455.381C1.5419 452.099 3.49808 448.792 5.42777 445.46C7.2161 442.368 8.98322 439.258 10.7291 436.131C12.9345 432.148 15.0798 428.14 17.165 424.108C17.8118 422.856 18.4532 421.609 19.0894 420.357C20.6869 417.188 22.242 414.018 23.7546 410.848C25.3804 407.425 26.9548 403.997 28.4781 400.563C30.4749 396.052 32.364 391.537 34.1453 387.018C34.8839 385.152 35.5908 383.287 36.2658 381.424C38.3864 375.729 40.3019 370.051 42.0125 364.388C42.0973 364.108 42.1821 363.828 42.2563 363.553C43.8361 358.271 45.2109 353.011 46.3808 347.774C46.9286 345.309 47.4252 342.865 47.8705 340.442C48.1038 339.167 48.3352 337.897 48.5649 336.633C48.8088 335.27 49.058 333.912 49.2965 332.56C63.801 251.118 68.6677 184.388 70.1839 156.422C70.3111 154.05 70.4171 151.947 70.502 150.151C70.5285 149.533 70.555 148.952 70.5815 148.403C70.7564 144.393 70.8147 142.27 70.8147 142.27H87.1748C87.1748 142.27 87.1747 143.115 87.2596 144.747C87.2914 145.698 87.3391 146.917 87.4027 148.403C87.4027 148.931 87.4557 149.533 87.4875 150.151C88.5478 173.162 92.9479 244.182 108.693 332.56C108.937 333.912 109.181 335.275 109.43 336.633C109.656 337.901 109.888 339.17 110.124 340.442C110.57 342.877 111.068 345.312 111.614 347.763C112.78 352.993 114.153 358.256 115.733 363.553C121.342 382.407 129.427 401.588 138.932 420.341C141.667 425.751 144.516 431.123 147.478 436.459C149.093 439.378 150.738 442.283 152.413 445.175C154.385 448.594 156.393 451.989 158.436 455.36C175.612 483.759 194.665 510.066 211.449 531.535H154.836C152.339 528.578 149.684 525.757 146.884 523.083C126.311 503.315 105.684 492.56 85.0012 490.817C74.1833 489.941 63.305 491.46 53.1453 495.265C39.1073 500.368 25.0906 509.64 11.095 523.083C8.29492 525.757 5.64045 528.578 3.14292 531.535H-38.8916V512.407C-29.7679 500.114 -20.3368 486.707 -11.2079 472.592ZM70.8466 364.129C70.3907 367.43 69.8393 370.822 69.2562 374.261C66.3722 390.637 62.1099 407.969 58.8231 420.378C56.8562 427.774 55.2394 433.453 54.4707 436.089C54.3911 436.369 54.3169 436.617 54.2533 436.828L53.9935 437.726H104.102C104.102 437.726 103.773 436.617 103.201 434.636C102.342 431.635 100.932 426.627 99.2778 420.373C95.694 406.849 90.9599 387.515 88.1449 370.135C87.8162 368.101 87.5088 366.094 87.2384 364.124L70.8466 364.129Z" fill="#975E36"/>
<path d="M158.398 455.598H-0.393195L-8.30278 420.379H166.308L158.398 455.598Z" fill="#975E36"/>
<path d="M122.705 332.592L115.739 363.59L115.617 364.129H42.389L42.2671 363.585L35.3012 332.592H122.705Z" fill="#975E36"/>
<path d="M66.0803 137.04H91.9297V150.183H66.0803V137.04Z" fill="#975E36"/>
<path d="M79.0054 97.8799C79.0054 97.8799 77.1606 130.204 73.9903 137.04H84.0151C80.8502 130.204 79.0054 97.8799 79.0054 97.8799Z" fill="#663915"/>
<path d="M-0.387549 520.662L-15.4221 499.77H27.3066C27.3066 499.77 11.4715 505.665 -0.387549 520.662Z" fill="#663915"/>
<path d="M-11.2077 493.448L9.36678 458.229L42.3413 493.448H-11.2077Z" fill="#663915"/>
<path d="M49.4609 489.766L15.5694 455.598H71.3555L49.4609 489.766Z" fill="#663915"/>
<path d="M79.0054 455.598L59.7507 486.876C65.8313 484.265 72.3844 482.924 79.0054 482.935V455.598Z" fill="#663915"/>
<path d="M24.4067 420.378H53.9458C53.9458 420.378 59.4858 406.052 59.7773 400.928L24.4067 420.378Z" fill="#663915"/>
<path d="M42.0762 380.414L30.2064 410.652L60.6733 394.487L42.0762 380.414Z" fill="#663915"/>
<path d="M61.7279 389.365L44.1856 376.486L67.5117 364.262C67.5117 364.262 64.7497 379.698 61.7279 389.365Z" fill="#663915"/>
<path d="M61.771 364.129H45.4375L43.1262 372.211L61.771 364.129Z" fill="#663915"/>
<path d="M52.4508 332.593H79V299.65L52.4508 332.593Z" fill="#663915"/>
<path d="M55.8596 320.153L65.2589 261.605L79 291.061L55.8596 320.153Z" fill="#663915"/>
<path d="M79 277.395L67.4272 255.318L79 226.93V277.395Z" fill="#663915"/>
<path d="M67.4272 242.44L71.3554 196.967L79 215.894L67.4272 242.44Z" fill="#663915"/>
<path d="M72.0552 190.658L79 206.955V172.787L72.0552 190.658Z" fill="#663915"/>
<path d="M72.0552 180.67L73.2162 150.184L79 165.429L72.0552 180.67Z" fill="#663915"/>
<path d="M79 150.184V158.921L75.5276 150.184H79Z" fill="#663915"/>
<path d="M161.563 529.327L168.179 531.577H198.259L178.183 505.666L161.563 529.327Z" fill="#663915"/>
<path d="M158.398 520.662L173.433 499.77H130.704C130.704 499.77 146.529 505.665 158.398 520.662Z" fill="#663915"/>
<path d="M169.213 493.448L148.639 458.229L115.664 493.448H169.213Z" fill="#663915"/>
<path d="M108.544 489.766L142.441 455.598H86.6498L108.544 489.766Z" fill="#663915"/>
<path d="M79.0054 455.598L98.2598 486.876C92.1792 484.265 85.6263 482.924 79.0054 482.935V455.598Z" fill="#663915"/>
<path d="M133.604 420.378H104.065C104.065 420.378 98.5249 406.052 98.2333 400.928L133.604 420.378Z" fill="#663915"/>
<path d="M115.929 380.414L127.799 410.652L97.3372 394.487L115.929 380.414Z" fill="#663915"/>
<path d="M96.2932 389.365L113.83 376.486L90.504 364.262C90.504 364.262 93.2608 379.698 96.2932 389.365Z" fill="#663915"/>
<path d="M96.2349 364.129H112.568L114.88 372.211L96.2349 364.129Z" fill="#663915"/>
<path d="M105.554 332.593H78.9997V299.65L105.554 332.593Z" fill="#663915"/>
<path d="M102.146 320.153L92.7467 261.605L79.0002 291.061L102.146 320.153Z" fill="#663915"/>
<path d="M79.0004 277.395L90.5786 255.318L79.0004 226.93V277.395Z" fill="#663915"/>
<path d="M90.5786 242.44L86.6503 196.967L79.0004 215.894L90.5786 242.44Z" fill="#663915"/>
<path d="M85.9502 190.658L79 206.955V172.787L85.9502 190.658Z" fill="#663915"/>
<path d="M85.9502 180.67L84.7892 150.184L79 165.429L85.9502 180.67Z" fill="#663915"/>
<path d="M79.0002 150.184V158.921L82.478 150.184H79.0002Z" fill="#663915"/>
<path d="M82.2975 360.057H75.7026V336.665H82.2975V360.057Z" fill="#663915"/>
<path d="M77.7964 138.794H80.3623V148.429H77.7964V138.794Z" fill="#663915"/>
<path d="M73.0572 138.794H75.623V148.429H73.0572V138.794Z" fill="#663915"/>
<path d="M68.3232 138.794H70.8892V148.429H68.3232V138.794Z" fill="#663915"/>
<path d="M87.27 138.794H89.8359V148.429H87.27V138.794Z" fill="#663915"/>
<path d="M82.5308 138.794H85.0967V148.429H82.5308V138.794Z" fill="#663915"/>
<path d="M69.0229 360.055H62.428L59.7932 336.664H66.3828L69.0229 360.055Z" fill="#663915"/>
<path d="M55.7485 360.055H49.1536L43.8788 336.664H50.4737L55.7485 360.055Z" fill="#663915"/>
<path d="M88.9827 360.055H95.5776L98.2124 336.664H91.6228L88.9827 360.055Z" fill="#663915"/>
<path d="M102.262 360.055H108.852L114.132 336.664H107.537L102.262 360.055Z" fill="#663915"/>
<path d="M82.2975 449.688H75.7026V426.296H82.2975V449.688Z" fill="#663915"/>
<path d="M68.3659 449.688H61.771V426.296H68.3659V449.688Z" fill="#663915"/>
<path d="M54.4339 449.688H47.8389V426.296H54.4339V449.688Z" fill="#663915"/>
<path d="M40.4912 449.686H33.8962L32.0514 426.289H38.6464L40.4912 449.686Z" fill="#663915"/>
<path d="M26.5591 449.686H19.9641L17.8066 426.289H24.4014L26.5591 449.686Z" fill="#663915"/>
<path d="M12.6221 449.686H6.02724L2.72983 426.289H9.32466L12.6221 449.686Z" fill="#663915"/>
<path d="M151.56 449.686H144.965L149.429 426.289H156.023L151.56 449.686Z" fill="#663915"/>
<path d="M137.628 449.686H131.033L133.604 426.289H140.199L137.628 449.686Z" fill="#663915"/>
<path d="M123.691 449.686H117.096L119.095 426.289H125.689L123.691 449.686Z" fill="#663915"/>
<path d="M109.759 449.688H103.164V426.296H109.759V449.688Z" fill="#663915"/>
<path d="M95.8156 449.688H89.2207V426.296H95.8156V449.688Z" fill="#663915"/>
<g opacity="0.5">
<path opacity="0.5" d="M158.398 455.598L-11.2025 472.682V472.592C-7.61882 467.056 -4.08459 461.421 -0.599829 455.687L-0.382455 455.603L158.398 455.598Z" fill="#3A1A09"/>
</g>
<g opacity="0.5">
<path opacity="0.5" d="M70.8467 364.129C70.3908 367.431 69.8394 370.822 69.2563 374.266L65.3916 375.106L47.6373 378.984L36.3189 381.451C38.4395 375.759 40.355 370.081 42.0656 364.414L42.4314 364.129H70.8467Z" fill="#3A1A09"/>
</g>
<g opacity="0.5">
<path opacity="0.5" d="M115.617 364.129L112.749 364.758L102.734 366.945L97.7035 368.043L91.4691 369.406L88.0921 370.141C87.7599 368.105 87.456 366.101 87.1803 364.129H115.617Z" fill="#3A1A09"/>
</g>
<g opacity="0.5">
<path opacity="0.5" d="M87.498 150.184L70.1945 156.454C70.3217 154.082 70.4277 151.985 70.5125 150.184H87.498Z" fill="#3A1A09"/>
</g>
<path d="M268.587 528.058C270.61 522.273 274.019 517.068 278.518 512.893C283.017 508.718 288.47 505.7 294.405 504.102C303.894 501.645 313.909 503.013 323.61 504.403C318.802 496.083 319.284 484.857 325.238 477.313C331.191 469.77 342.451 466.711 351.214 470.694C346.714 462.733 349.316 451.55 356.866 446.394C360.715 443.854 365.376 442.835 369.939 443.536C374.497 444.111 378.68 446.351 381.676 449.823C381.628 435.29 390.386 421.075 403.412 414.545C406.941 412.739 410.667 411.346 414.518 410.393C433.21 405.951 446.443 416.463 455.868 431.735C464.43 445.575 469.875 463.325 473.437 477.372C473.791 478.826 474.144 480.235 474.497 481.598C476.475 489.78 478.272 498.101 479.269 506.458C480.215 513.891 480.273 521.409 479.444 528.856C479.332 529.77 479.205 530.684 479.062 531.592H267.612C267.876 530.398 268.201 529.219 268.587 528.058V528.058ZM420.09 517.044C420.697 517.637 421.418 518.102 422.209 518.412C423.001 518.723 423.846 518.872 424.696 518.851C425.757 518.793 426.817 518.698 427.877 518.56C428.291 518.56 428.699 518.56 429.113 518.56C429.837 519.162 430.67 519.621 431.567 519.913C435.161 521.069 438.883 518.55 439.954 515.158C440.028 514.931 440.097 514.699 440.171 514.471C440.59 514.213 441.009 513.943 441.412 513.653C445.451 510.828 448.683 507.005 450.79 502.559C451.143 501.82 451.468 501.059 451.765 500.277C453.462 495.845 452.91 490.478 451.182 486.146C447.381 476.637 438.867 468.185 428.153 467.535C427.275 467.508 426.401 467.668 425.59 468.006C424.778 468.343 424.049 468.849 423.451 469.49C422.567 469.708 421.735 470.1 421.007 470.645C420.278 471.189 419.667 471.875 419.21 472.659C419.077 472.902 418.95 473.151 418.828 473.399C418.487 473.237 418.132 473.106 417.768 473.008C416.072 472.575 414.277 472.752 412.7 473.51C412.535 473.595 412.381 473.684 412.228 473.779C411.034 472.898 409.603 472.394 408.119 472.332C404.329 472.163 401.445 475.576 401.296 479.125C401.196 481.566 401.18 484.017 401.296 486.458V505.581C401.31 507.217 401.916 508.794 403.003 510.02C404.09 511.247 405.585 512.042 407.213 512.258C408.422 512.408 409.65 512.24 410.775 511.772C411.056 512.031 411.342 512.3 411.634 512.522C414.142 514.534 417.001 516.067 420.068 517.044H420.09Z" fill="#8DAF41"/>
<path d="M307.923 531.229C315.96 522.159 327.809 515.91 340.299 513.11C335.782 507.753 336.694 499.264 342.329 494.256C347.964 489.248 357.602 488.34 363.746 492.243C360.534 487.167 363.137 479.914 368.772 476.322C370.027 475.53 371.377 474.9 372.791 474.446C377.822 472.876 383.256 473.199 388.064 475.355C386.095 466.689 387.22 457.61 391.245 449.681C392.681 446.808 394.574 443.95 397.505 442.117C399.679 440.759 402.277 440.067 404.837 439.576C407.173 439.125 409.538 438.846 411.915 438.741C419.63 438.391 427.331 439.701 434.493 442.582C435.553 443.015 436.614 443.474 437.674 443.971C451.765 450.733 459.669 461.884 463.12 474.906C463.868 477.734 464.416 480.612 464.759 483.517C465.632 490.856 466.338 498.204 466.879 505.561C467.515 514.214 467.892 522.888 468.008 531.583H307.6C307.716 531.456 307.817 531.34 307.923 531.229ZM420.068 517.051C420.676 517.643 421.397 518.109 422.188 518.419C422.979 518.729 423.825 518.878 424.675 518.857C425.735 518.799 426.796 518.704 427.856 518.567C428.269 518.567 428.678 518.567 429.091 518.567C429.816 519.169 430.649 519.628 431.546 519.919C435.14 521.076 438.861 518.556 439.932 515.165C440.007 514.938 440.076 514.705 440.15 514.478C440.569 514.219 440.987 513.95 441.39 513.659C445.429 510.835 448.661 507.012 450.768 502.566C451.122 501.826 451.447 501.065 451.744 500.284C453.44 495.851 452.889 490.484 451.161 486.153C447.359 476.644 438.846 468.192 428.131 467.542C427.253 467.515 426.379 467.675 425.568 468.012C424.757 468.349 424.028 468.855 423.429 469.496C422.545 469.714 421.714 470.107 420.985 470.652C420.256 471.196 419.645 471.881 419.188 472.666C419.056 472.909 418.928 473.157 418.806 473.406C418.466 473.244 418.111 473.113 417.746 473.015C416.05 472.581 414.255 472.759 412.678 473.517C412.514 473.601 412.36 473.691 412.206 473.786C411.013 472.905 409.582 472.401 408.098 472.339C404.307 472.17 401.423 475.582 401.275 479.132C401.174 481.573 401.158 484.024 401.275 486.464V505.587C401.289 507.224 401.895 508.8 402.981 510.027C404.068 511.254 405.563 512.048 407.191 512.265C408.401 512.414 409.629 512.247 410.754 511.779C411.035 512.037 411.321 512.307 411.612 512.529C414.127 514.541 416.994 516.072 420.068 517.045V517.051Z" fill="#77932A"/>
<g opacity="0.5">
<path opacity="0.5" d="M277.069 531.578H285.334C287.826 527.341 291.858 524.222 296.594 522.867C297.92 522.502 299.303 522.275 300.491 521.588C301.735 520.795 302.628 519.557 302.984 518.128C303.34 516.699 303.132 515.189 302.404 513.908C301.715 512.803 290.095 517.7 288.838 518.371C284.352 520.735 280.68 524.386 278.299 528.852C277.835 529.735 277.425 530.646 277.069 531.578V531.578Z" fill="#F6EF83"/>
</g>
<g opacity="0.5">
<path opacity="0.5" d="M400.797 424.746C397.42 425.86 394.754 428.259 392.808 431.048C391.7 432.594 390.933 434.356 390.561 436.22C390.179 438.333 393.28 439.532 394.271 437.667C395.904 434.661 397.272 431.471 400.135 429.548C402.997 427.625 407.302 427.403 410.737 429.088C411.406 429.476 412.117 429.785 412.858 430.007C414.448 430.367 416.155 429.299 416.352 427.794C416.442 427.128 409.725 424.788 408.93 424.587C406.259 423.869 403.438 423.924 400.797 424.746V424.746Z" fill="#F6EF83"/>
</g>
<path d="M369.637 516.136C370.734 515.782 371.943 515.111 372.112 514.023C372.148 513.375 371.983 512.731 371.64 512.179C369.52 507.863 367.14 503.289 362.83 501.028C360.508 499.807 357.825 499.38 355.196 498.967C353.51 498.703 351.4 498.614 350.424 500.024C349.555 501.302 350.212 502.961 350.955 504.25C354.83 511.308 359.728 519.306 369.637 516.136Z" fill="#8DAF41"/>
<path d="M332.341 496.718C332.919 497.013 333.666 497.246 334.175 496.85C334.442 496.605 334.627 496.284 334.705 495.931C335.585 493.368 336.465 490.611 335.654 488.007C335.132 486.613 334.386 485.314 333.444 484.161C332.877 483.39 332.076 482.518 331.122 482.703C330.263 482.867 329.865 483.759 329.632 484.589C328.376 488.931 327.135 494.05 332.341 496.718Z" fill="#77932A"/>
<path d="M347.614 523.722C347.858 523.135 348.007 522.385 347.614 521.915C347.351 521.671 347.02 521.513 346.665 521.461C344.073 520.806 341.29 520.167 338.782 521.17C337.453 521.794 336.235 522.631 335.177 523.648C334.462 524.261 333.672 525.116 333.926 526.036C334.159 526.86 335.098 527.177 335.904 527.34C340.267 528.228 345.409 529.026 347.614 523.722Z" fill="#8DAF41"/>
<path d="M367.574 470.437C368.131 470.125 368.714 469.629 368.688 469.011C368.637 468.655 368.478 468.323 368.232 468.06C366.609 465.947 364.828 463.718 362.246 462.946C360.814 462.612 359.337 462.512 357.873 462.65C356.934 462.687 355.752 462.862 355.402 463.744C355.068 464.531 355.609 465.36 356.139 465.989C359.013 469.423 362.538 473.216 367.574 470.437Z" fill="#77932A"/>
<path d="M358.71 411.731C359.283 406.565 359.834 401.213 357.804 396.311C355.954 391.863 352.131 388.186 348.055 384.927C341.772 379.903 334.186 375.418 325.518 374.832C324.479 374.69 323.42 374.825 322.449 375.223C321.256 375.83 320.784 377.066 320.445 378.202C315.393 395.033 319.793 413.4 331.048 427.859C334.637 432.465 344.301 445.408 352.253 441.213C359.696 437.278 357.979 418.123 358.71 411.731Z" fill="#F28029"/>
<path d="M346.278 110.331C347.731 117.896 351.749 124.964 356.499 131.514C361.053 137.801 366.572 143.897 374.222 147.505C384.824 152.481 397.829 151.963 409.741 150.04C416.951 148.878 424.144 147.219 430.48 144.119C437.674 140.59 443.426 135.36 448.801 130.025C462.473 116.448 474.714 101.129 478.743 83.7014C479.777 79.227 471.968 55.6401 471.629 50.4209L356.462 68.9101C355.163 71.3348 353.965 73.8017 352.836 76.2793C347.884 87.1615 344.068 98.8519 346.278 110.331Z" fill="#F28029"/>
<path d="M330.698 226.538C364.484 194.462 420.132 184.753 457.719 155.783C474.312 143.094 486.928 125.952 494.086 106.369C498.677 93.6116 495.449 22.8457 494.574 10.833L686.562 68.9418V531.593H416.193C409.812 526.945 403.821 521.786 398.28 516.168C386.389 504.018 377.377 489.628 372.77 474.435C369.641 464.443 368.662 453.906 369.897 443.511C370.114 441.783 370.395 440.056 370.75 438.339C373.295 425.983 379.285 413.722 377.011 401.329C373.242 380.727 349.062 368.149 332.225 352.808C326.943 348.01 322.268 342.586 318.304 336.659C307.011 319.793 302.062 299.494 304.33 279.344C306.598 259.195 315.937 240.493 330.698 226.538ZM417.328 511.445C420.737 512.877 424.782 513.078 428.705 512.792C430.335 512.749 431.941 512.39 433.433 511.736C434.715 511.051 435.827 510.089 436.688 508.92C438.743 506.345 440.146 503.316 440.781 500.088C441.379 497.046 441.35 493.915 440.696 490.885C440.086 488.043 438.904 485.185 436.392 483.331C434.764 482.127 432.681 481.43 430.56 480.896C426.791 479.94 420.143 478.73 414.608 479.137C412.154 479.316 409.916 479.813 408.247 480.796C402.945 483.907 405.781 491.889 406.656 496.02C408.013 502.174 410.818 508.709 417.328 511.445ZM666.651 92.6555C661.413 83.3264 638.262 79.1161 629.382 86.3691C628.061 87.4458 626.993 88.7983 626.254 90.3311C625.159 92.6238 624.811 95.2005 625.258 97.7004C625.973 101.752 628.555 105.461 631.874 108.477C633.669 110.218 635.834 111.534 638.209 112.328C640.182 112.835 642.215 113.08 644.252 113.057C647.632 113.104 650.998 112.635 654.235 111.668C663.809 108.847 671.857 101.926 666.651 92.6555Z" fill="#00477F"/>
<path d="M1026.2 533.567C995.35 568.432 898.171 521.702 872.947 561.829C792.404 689.948 739.003 586.953 636.051 545.606C596.291 529.637 464.817 595.854 393.986 533.498C308.104 457.893 510.324 182.265 498.566 68.6727C495.873 42.6769 492.644 25.9257 502.319 17.4999C574.905 -45.7118 675.551 94.9514 782.602 49.2515C821.418 32.6694 934.035 -32.703 1015.82 58.3217C1045.51 91.3539 978.052 143.081 1017.22 211.856C1049.22 268.042 1156.6 209.743 1139.09 296.304C1131.13 335.659 1044.38 346.15 1030.53 378.654C1003.92 441.037 1066.95 487.508 1026.2 533.567Z" fill="#00477F"/>
<path d="M377.44 282.977C376.348 279.839 374.863 276.733 372.404 274.488C369.944 272.242 366.339 271.017 363.179 272.079C358.684 273.595 356.759 278.835 355.985 283.505C354.538 292.195 355.031 301.302 358.169 309.538C360.322 315.195 374.073 336.828 379.375 325.243C384.157 314.842 381.045 293.304 377.44 282.977Z" fill="#5DBBCE"/>
<path d="M337.924 392.709C337.404 390.955 336.457 389.356 335.167 388.055C333.821 386.829 331.843 386.153 330.115 386.74C327.65 387.569 326.6 390.437 326.171 392.994C325.308 397.771 325.721 402.69 327.369 407.257C328.546 410.353 336.068 422.202 338.989 415.857C341.614 410.163 339.901 398.361 337.924 392.709Z" fill="#F39428"/>
<path d="M438.268 124.119C443.924 119.043 447.529 110.247 448.499 101.182C450.228 84.9748 432.988 73.5274 418.531 81.1397C399.403 91.2031 379.332 110.949 382.667 126.977C394.5 147.13 424.739 138.477 438.268 124.119Z" fill="#F39428"/>
<path d="M437.812 454.308C435.119 449.744 433.2 444.054 435.384 439.221C438.204 432.961 446.316 431.249 453.197 431.476C466.88 431.926 516.039 449.142 502.627 470.362C496.535 479.987 476.517 478.597 467.107 476.13C455.047 472.971 444.163 465.063 437.812 454.308Z" fill="#5DBBCE"/>
<path d="M188.569 420.421L208.184 447.283L230.179 477.394C230.179 477.394 245.733 463.622 253.871 435.339C255.986 427.936 257.405 420.353 258.112 412.688C259.124 401.916 259.58 393.205 260.042 386.052C261.446 364.251 262.873 356.871 280.022 349.423L253.484 297.125C253.484 297.125 233.954 306.105 220.191 319.909C212.833 327.305 207.129 336.021 206.938 345.493C206.646 360.786 214.127 371.045 213.241 383.601C212.563 393.353 206.848 404.478 188.569 420.421Z" fill="white"/>
<path d="M188.569 420.42L199.452 435.322C199.452 435.322 214.826 418.619 222.275 391.862C228.398 369.929 196.595 336.5 261.245 312.433L253.479 297.113C180.951 333.463 215.256 361.714 211.768 386.035C209.435 402.332 196.961 413.104 188.569 420.42Z" fill="#298BBD"/>
<path d="M206.18 444.663L213.904 455.228C213.904 455.228 227.931 446.565 235.406 419.835C241.529 397.901 228.811 338.134 277.123 334.304L269.356 318.984C210.368 340.215 233.058 365.001 229.596 389.328C227.237 405.619 214.566 437.341 206.18 444.663Z" fill="#298BBD"/>
<path d="M219.386 462.554L230.269 477.457C230.269 477.457 247.96 461.081 256.49 424.292C262.661 397.705 251.92 359.089 280.404 349.089L272.638 333.77C238.614 350.246 246.073 403.849 242.584 428.175C240.252 444.44 227.767 455.206 219.386 462.554Z" fill="#298BBD"/>
<path d="M252.943 295.497C252.945 295.864 253.032 296.226 253.198 296.553L253.479 297.082L280.017 349.38L373.851 534.377H379.211L257.455 294.419C257.313 294.139 257.118 293.89 256.88 293.686C256.642 293.481 256.366 293.325 256.068 293.227C255.77 293.129 255.455 293.091 255.142 293.114C254.828 293.137 254.523 293.222 254.242 293.363C253.848 293.563 253.518 293.869 253.288 294.246C253.059 294.623 252.939 295.056 252.943 295.497V295.497Z" fill="white"/>
<path opacity="0.2" d="M188.569 420.421L230.184 477.404C230.184 477.404 245.739 463.632 253.876 435.349C255.991 427.946 257.411 420.363 258.117 412.698C259.13 401.926 259.586 393.215 260.047 386.063C261.452 364.261 262.878 356.881 280.028 349.433C280.028 349.433 254.921 344.23 246.486 392.893C236.212 452.111 188.569 420.421 188.569 420.421Z" fill="#0A2E11"/>
<path d="M234.181 360.69C234.181 360.69 255.657 350.225 280.017 349.433L253.478 297.135C253.478 297.135 231.08 329.903 234.181 360.69Z" fill="#F61F21"/>
<path d="M537.689 420.855L518.074 447.717L496.079 477.828C496.079 477.828 480.52 464.056 472.387 435.773C470.27 428.37 468.85 420.787 468.146 413.121C467.139 402.35 466.678 393.639 466.222 386.486C464.817 364.685 463.386 357.305 446.236 349.856L472.774 297.559C472.774 297.559 492.31 306.539 506.067 320.337C513.425 327.733 519.135 336.455 519.32 345.921C519.606 361.241 512.132 371.478 513.012 384.035C513.695 393.782 519.416 404.912 537.689 420.855Z" fill="white"/>
<path d="M537.689 420.853L496.079 477.836C496.079 477.836 480.519 464.065 472.387 435.781L513.012 384.012C513.695 393.779 519.416 404.91 537.689 420.853Z" fill="#C61851"/>
<path d="M506.088 320.336L466.243 386.496C464.838 364.695 463.407 357.315 446.257 349.866L472.795 297.568C472.795 297.568 492.304 306.554 506.088 320.336Z" fill="#298BBD"/>
<path d="M473.32 295.93C473.317 296.298 473.228 296.66 473.061 296.987L472.78 297.515L446.246 349.813L352.413 534.81H347.047L468.804 294.8C468.944 294.52 469.139 294.27 469.377 294.065C469.615 293.86 469.891 293.704 470.19 293.606C470.488 293.508 470.803 293.47 471.117 293.493C471.43 293.517 471.736 293.602 472.016 293.743C472.419 293.948 472.755 294.262 472.986 294.649C473.217 295.036 473.333 295.48 473.32 295.93V295.93Z" fill="white"/>
<path opacity="0.2" d="M537.689 420.853L496.079 477.836C496.079 477.836 480.52 464.064 472.387 435.781C470.27 428.378 468.85 420.795 468.146 413.129C467.139 402.358 466.678 393.647 466.222 386.494C464.817 364.693 463.386 357.313 446.236 349.865C446.236 349.865 471.348 344.661 479.783 393.325C490.046 452.543 537.689 420.853 537.689 420.853Z" fill="#0A2E11"/>
<path d="M261.595 326.87L254.114 331.128L248.914 325.951L249.486 333.759L242.006 338.011L249.841 338.582L250.414 346.39L254.682 338.936L262.517 339.501L257.322 334.324L261.595 326.87Z" fill="white"/>
</g>
</svg>
