<svg width="360" height="223" viewBox="0 0 360 223" fill="none" xmlns="http://www.w3.org/2000/svg">
<g clip-path="url(#clip0_574_2421)">
<path d="M360 208C310.68 242.21 242.07 200.73 180 202.26C110.49 203.97 47.71 244.66 0 208V-90H360V208Z" fill="#5DBBCE"/>
<mask id="mask0_574_2421" style="mask-type:alpha" maskUnits="userSpaceOnUse" x="0" y="-90" width="360" height="314">
<g clip-path="url(#clip1_574_2421)">
<path d="M360 208C310.68 242.21 242.07 200.73 180 202.26C110.49 203.97 47.71 244.66 0 208V-90H360V208Z" fill="#5DBBCE"/>
</g>
</mask>
<g mask="url(#mask0_574_2421)">
<path d="M437.09 20.5301L375.41 20.4001L375.37 41.0801L353.66 41.0301L353.78 -23.7999L312.31 -23.8799L312.26 0.550117L293.49 0.510117L293.46 14.0601L279.31 14.0401L255.87 -9.49989L231.9 14.3801L212.25 14.3401L212.17 56.6901L192.96 56.6501L193 32.5101L163.62 32.4501L163.65 18.2801L132.92 18.2201L132.91 25.1901L118.46 25.1601L118.4 56.5101L105.2 56.4801L105.23 43.3801L93.66 43.3601L93.68 30.2601L55.87 30.1901L55.92 3.56011L0.519966 3.45011L0.219971 154.51L436.82 155.37L437.09 20.5301Z" fill="#2F7D90"/>
<path d="M241.654 25.3937L235.494 25.3818L235.469 38.2517L241.629 38.2635L241.654 25.3937Z" fill="#1F535F"/>
<path d="M310.398 39.0851L304.238 39.0732L304.213 51.9431L310.373 51.9549L310.398 39.0851Z" fill="#1F535F"/>
<path d="M261.057 13.5011L254.897 13.4893L254.872 26.3594L261.032 26.3712L261.057 13.5011Z" fill="#1F535F"/>
<path d="M273.628 39.0148L267.468 39.0029L267.443 51.873L273.603 51.8848L273.628 39.0148Z" fill="#F6EF83"/>
<path d="M252.338 54.7042L246.178 54.6924L246.153 67.5622L252.313 67.5741L252.338 54.7042Z" fill="#1F535F"/>
<path d="M193.516 39.8907L187.356 39.8789L187.331 52.7488L193.491 52.7606L193.516 39.8907Z" fill="#F6EF83"/>
<path d="M291.669 22.6398L285.509 22.6279L285.484 35.4978L291.644 35.5096L291.669 22.6398Z" fill="#1F535F"/>
<path d="M183.59 21.39H187.48C200.79 21.39 214.14 21.5002 227.48 21.5602H228.64C234.32 21.5602 239.987 21.5602 245.64 21.5602C250.407 21.5602 255.173 21.51 259.94 21.41C262.94 20.41 261.42 19.4801 259.23 19.5001C260.85 10.9001 252.66 14.28 248.47 17.2C248.494 17.0148 248.479 16.8267 248.426 16.6476C248.373 16.4684 248.284 16.3021 248.164 16.1593C248.043 16.0164 247.895 15.8999 247.727 15.8175C247.559 15.735 247.377 15.6882 247.19 15.68C243.3 17.31 247.34 13.17 245.41 8.37998C245.371 8.14262 245.286 7.91544 245.158 7.71152C245.031 7.5076 244.864 7.33119 244.667 7.19248C244.471 7.05376 244.249 6.95557 244.014 6.90366C243.779 6.85175 243.537 6.847 243.3 6.88999C236.21 5.80999 233.44 13.2501 229.95 17.9601C230.25 15.7801 227.45 15.3802 225.83 15.8202C229.58 14.7202 226.42 11.2402 224.99 12.3102C227.99 0.0801516 209.3 0.0501318 209.73 13.0401C207.93 8.64013 202.4 13.04 204.81 16.63C197.45 16.4191 190.155 18.0556 183.59 21.39V21.39Z" fill="white"/>
<path opacity="0.4" d="M228.63 21.5498C234.31 21.5498 239.977 21.5498 245.63 21.5498C245.563 20.7568 245.313 19.9902 244.9 19.3098C244.561 18.7284 244.019 18.2936 243.377 18.0903C242.736 17.887 242.042 17.9296 241.43 18.2097C241.219 17.5352 240.829 16.9309 240.3 16.4622C239.772 15.9934 239.125 15.678 238.43 15.5498C237.31 15.5498 235.38 16.0897 235.21 17.1997C232.9 17.2197 230.32 19.5898 228.63 21.5498Z" fill="#F6E966"/>
<path opacity="0.4" d="M187.49 21.3695C200.8 21.3695 214.15 21.4797 227.49 21.5397C227.588 20.8256 227.512 20.0983 227.27 19.4196C226.77 18.1396 225.07 17.2497 223.96 18.0597C224.32 17.1797 224.54 15.9396 223.72 15.4596C222.9 14.9796 221.82 15.9197 221.24 16.7797C221.534 15.3245 221.441 13.8175 220.97 12.4096C220.419 11.3348 219.498 10.4955 218.377 10.047C217.256 9.5985 216.01 9.57108 214.87 9.96962C213.75 10.4199 212.776 11.171 212.056 12.1398C211.336 13.1086 210.898 14.2574 210.79 15.4596C210.474 15.1945 210.078 15.0433 209.666 15.0302C209.253 15.0171 208.849 15.1428 208.517 15.3873C208.184 15.6319 207.944 15.981 207.834 16.3786C207.724 16.7761 207.751 17.1992 207.91 17.5797C205.43 17.1997 203.07 18.5796 200.64 19.1596C197.72 19.8596 194.64 19.3996 191.64 19.9596C190.199 20.2382 188.803 20.7125 187.49 21.3695V21.3695Z" fill="#F6E966"/>
<path d="M256.2 114.56L255.97 228.51L-113 227.79L-112.75 100.12L-65.93 100.22L-65.98 122.72L-34.02 122.79L-34.04 133.85L-24.26 133.87L-24.28 144.94L-13.13 144.97L-13.08 118.47L-0.870003 118.5L-0.860001 112.61L25.11 112.66L25.09 124.64L49.92 124.69L49.88 145.09L66.12 145.12L66.19 109.33L82.79 109.36L103.05 89.1898L122.86 109.07L134.81 109.1L134.84 97.6398L143.09 97.6598L143.13 77.0098L185.8 77.0998L185.69 131.89L204.04 131.93L204.07 114.46L256.2 114.56Z" fill="url(#paint0_linear_574_2421)"/>
<path d="M445.52 110.08L445.29 228.89L255.97 228.51L256.23 100.85L303.04 100.94L303 123.45L334.95 123.51L334.93 134.58L344.71 134.6L344.69 145.67L355.84 145.69L355.89 119.2L368.11 119.22L368.12 113.33L394.09 113.38L394.06 125.37L418.89 125.41L418.85 145.82L435.09 145.85L435.16 110.06L445.52 110.08Z" fill="url(#paint1_linear_574_2421)"/>
<path d="M259.147 122.787L252.987 122.775L252.962 135.645L259.122 135.657L259.147 122.787Z" fill="#F6EF83"/>
<path d="M176.575 87.4679L170.415 87.4561L170.39 100.326L176.55 100.338L176.575 87.4679Z" fill="#F6EF83"/>
<path d="M276.509 142.37L270.349 142.358L270.325 155.228L276.485 155.24L276.509 142.37Z" fill="#F6EF83"/>
<path d="M296.121 120.608L289.961 120.596L289.936 133.466L296.096 133.477L296.121 120.608Z" fill="#F6EF83"/>
<path d="M322.49 12.1196C324.87 13.0196 326.41 15.6396 326.72 18.1196C327.23 16.7696 328.64 15.9897 329.98 15.4497C332.24 14.2097 335.52 15.0296 335.85 17.8696C336.156 17.3693 336.292 16.7838 336.238 16.1999C336.184 15.616 335.943 15.0652 335.55 14.6296C333.63 12.3196 329.61 12.1097 327.89 14.7297C326.28 13.4497 324.89 11.7298 323.06 10.8198C322.537 10.6215 321.972 10.5575 321.417 10.6337C320.863 10.71 320.336 10.9241 319.886 11.2563C319.435 11.5885 319.075 12.0282 318.838 12.5354C318.601 13.0426 318.495 13.6009 318.53 14.1596C318.49 13.2796 321.83 12.0296 322.49 12.1196Z" fill="#663915"/>
<path d="M196.63 163.02C198.63 164.58 199.34 167.54 198.92 169.97C199.426 169.451 200.033 169.042 200.704 168.769C201.375 168.495 202.096 168.363 202.82 168.38C205.35 167.86 208.24 169.6 207.72 172.38C208.16 171.991 208.461 171.47 208.58 170.895C208.699 170.32 208.629 169.722 208.38 169.19C207.23 166.42 203.45 165.04 201.03 167.03C199.86 165.34 199.03 163.32 197.56 161.88C197.118 161.537 196.597 161.31 196.045 161.22C195.493 161.13 194.927 161.18 194.399 161.365C193.871 161.55 193.398 161.864 193.022 162.279C192.647 162.694 192.381 163.196 192.25 163.74C192.49 162.94 196.04 162.75 196.63 163.02Z" fill="#663915"/>
<path d="M252.31 81.1403C254.66 80.3903 257.42 81.4503 259.14 83.1403C259.004 82.4501 259.011 81.7396 259.158 81.0519C259.306 80.3642 259.593 79.7137 260 79.1403C261 76.8303 264 75.4704 265.93 77.4304C265.861 76.8643 265.611 76.3357 265.216 75.9245C264.821 75.5133 264.303 75.2416 263.74 75.1503C260.89 74.5503 257.74 76.8203 257.97 79.8603C255.97 79.8603 253.9 79.4103 251.97 79.8603C251.451 80.0271 250.983 80.3213 250.607 80.7158C250.232 81.1103 249.961 81.5925 249.819 82.1186C249.678 82.6447 249.671 83.1979 249.799 83.7275C249.926 84.2571 250.185 84.7463 250.55 85.1503C249.94 84.4703 251.77 81.4703 252.31 81.1403Z" fill="#663915"/>
<path d="M231.42 83.0098C231.42 83.0098 232.35 90.5998 241.07 93.0098L237.74 88.5698L231.42 83.0098Z" fill="white"/>
<path d="M244.54 89.2197C242.251 89.4649 239.937 89.2369 237.74 88.5498C238.35 90.6098 239.37 92.4497 241.07 92.9897L244.54 89.2197Z" fill="white"/>
<path d="M231.42 83.0103C232.016 84.3322 232.888 85.5108 233.978 86.4666C235.069 87.4223 236.351 88.1329 237.74 88.5503C237.122 86.2341 236.806 83.8475 236.8 81.4502L231.42 83.0103Z" fill="#BFD2E0"/>
<path d="M221.66 156.94C221.66 156.94 222.59 164.53 231.3 166.94L227.97 162.5L221.66 156.94Z" fill="white"/>
<path d="M234.78 163.15C232.488 163.395 230.17 163.168 227.97 162.48C228.59 164.54 229.61 166.38 231.3 166.92L234.78 163.15Z" fill="white"/>
<path d="M221.66 156.94C222.253 158.262 223.124 159.44 224.213 160.396C225.301 161.352 226.583 162.063 227.97 162.48C227.351 160.161 227.035 157.771 227.03 155.37L221.66 156.94Z" fill="#BFD2E0"/>
<path d="M338.19 116.84C338.19 116.84 339.19 125.24 348.87 127.84L345.18 122.92L338.19 116.84Z" fill="white"/>
<path d="M352.72 123.71C350.182 123.981 347.615 123.726 345.18 122.96C345.87 125.25 347 127.29 348.87 127.88L352.72 123.71Z" fill="white"/>
<path d="M338.19 116.84C338.85 118.302 339.817 119.605 341.025 120.66C342.233 121.716 343.653 122.5 345.19 122.96C344.521 120.393 344.185 117.752 344.19 115.1L338.19 116.84Z" fill="#BFD2E0"/>
<path d="M344.06 3.80005C344.06 3.80005 356.23 -6.65 347.53 -16L345.92 -2.36011L344.06 3.80005Z" fill="#DC3165"/>
<path d="M344.06 3.7998C345.73 2.6498 346.06 0.239648 345.92 -2.36035C344.053 -0.596664 341.962 0.913017 339.7 2.12964L344.06 3.7998Z" fill="#DC3165"/>
<path d="M185.25 134.3C185.25 134.3 177.53 148.36 188.96 154.06L185.67 140.73L185.25 134.3Z" fill="#DC3165"/>
<path d="M185.25 134.3C184.08 135.96 184.58 138.36 185.67 140.73C186.792 138.417 188.218 136.265 189.91 134.33L185.25 134.3Z" fill="#DC3165"/>
<path d="M185.67 140.73C183.67 145.07 182.77 150.631 188.96 154.061L191.3 148.92C189.072 146.45 187.179 143.696 185.67 140.73V140.73Z" fill="#C61851"/>
<path d="M237.91 122.6L243.3 119.86C242.814 117.324 243.165 114.699 244.3 112.38C239.49 115.64 237.91 122.6 237.91 122.6Z" fill="#298BBD"/>
<path d="M252.11 107.22C252.11 107.22 241.34 106.22 237.91 122.6L244.32 112.38L252.11 107.22Z" fill="#298BBD"/>
<path d="M250.94 110.81L252.11 107.22C252.11 107.22 246.77 107.83 244.32 112.38C246.254 111.049 248.615 110.489 250.94 110.81V110.81Z" fill="#186AAB"/>
<path d="M415.03 115.63L414.81 228.12L313.6 227.92C313.605 227.87 313.605 227.82 313.6 227.77C314.97 222.841 317.653 218.378 321.362 214.855C325.071 211.332 329.667 208.884 334.66 207.77C333.07 206.888 331.68 205.686 330.576 204.24C329.473 202.795 328.681 201.136 328.25 199.37C327.804 197.66 327.698 195.88 327.94 194.13C328.083 193.161 328.345 192.214 328.72 191.31C329.535 189.382 330.829 187.695 332.48 186.41C334.112 185.113 336.011 184.195 338.04 183.72C339.849 183.289 341.73 183.261 343.55 183.64C343.9 183.72 344.24 183.81 344.55 183.92C343.962 183.125 343.465 182.266 343.07 181.36C342.157 179.255 341.727 176.972 341.81 174.68C341.861 173.273 342.09 171.879 342.49 170.53C342.939 169.018 343.614 167.582 344.49 166.27C344.74 165.898 345.01 165.541 345.3 165.2C346.291 164.034 347.45 163.022 348.74 162.2C349.03 162.01 349.32 161.83 349.63 161.66L349.78 161.57C351.182 160.8 352.682 160.224 354.24 159.86C356.204 159.394 358.233 159.266 360.24 159.48C361.398 159.601 362.54 159.838 363.65 160.19C362.93 158.19 362.2 156.19 361.55 154.19C361.11 152.82 360.7 151.43 360.35 150.04C359.821 147.983 359.463 145.886 359.28 143.77V143.77C359.19 142.599 359.17 141.423 359.22 140.25C359.22 139.94 359.22 139.63 359.28 139.33C359.544 136.286 360.346 133.313 361.65 130.55C362.285 129.2 363.031 127.906 363.88 126.68C364.584 125.653 365.362 124.681 366.21 123.77C367.872 121.948 369.797 120.384 371.92 119.13C375.638 116.979 379.825 115.768 384.117 115.603C388.409 115.437 392.677 116.322 396.55 118.18C397.9 118.84 399.31 119.65 400.8 119.48C402.095 119.162 403.306 118.568 404.35 117.74C407.552 115.805 411.333 115.058 415.03 115.63V115.63Z" fill="#8DAF41"/>
<path d="M415.02 124.35L414.81 228.12L331.2 227.95C331.11 227.02 331.05 226.07 331.03 225.12C330.931 223.299 331.165 221.476 331.72 219.74C332.623 217.589 334.104 215.73 336 214.37C340.857 210.468 346.92 208.378 353.15 208.46C351.863 206.702 350.972 204.685 350.54 202.55C350.019 200.133 350.167 197.619 350.97 195.28L351.03 195.13C352.67 190.76 357.27 187.93 361.22 189.39C359.557 187.601 358.478 185.347 358.13 182.93C357.648 180.136 358.076 177.262 359.35 174.73L359.5 174.45C360.425 172.835 361.774 171.504 363.4 170.6C363.62 170.47 363.86 170.35 364.09 170.24C365.717 169.476 367.528 169.191 369.31 169.42C370.3 169.552 371.259 169.86 372.14 170.33C372.186 164.825 373.202 159.372 375.14 154.22C375.34 153.71 375.54 153.22 375.76 152.7C376.15 151.81 376.57 150.93 377.02 150.07C377.849 148.501 378.795 146.996 379.85 145.57C382.713 141.653 386.521 138.526 390.92 136.48C393.873 135.135 397.085 134.452 400.33 134.48C401.036 134.559 401.75 134.463 402.41 134.2C403.187 133.653 403.81 132.916 404.22 132.06C404.641 131.402 405.102 130.771 405.6 130.17C408.057 127.295 411.35 125.26 415.02 124.35Z" fill="#77932A"/>
<path opacity="0.5" d="M328.2 218.22C326.38 219.77 324.38 221.22 323.48 223.4C322.928 224.864 322.868 226.469 323.31 227.97H320.54C320.246 226.855 320.158 225.696 320.28 224.55C320.62 222.14 321.733 219.905 323.45 218.18C324.347 217.195 325.445 216.414 326.67 215.89C328.06 215.28 329.34 217.22 328.2 218.22Z" fill="#F6EF83"/>
<path d="M346.81 217.38C346.634 216.959 346.571 216.498 346.629 216.046C346.687 215.593 346.863 215.163 347.14 214.8C347.554 214.492 348.054 214.321 348.57 214.31C352.36 213.81 356.42 213.31 359.81 215.21C361.591 216.326 363.181 217.72 364.52 219.34C365.43 220.34 366.42 221.69 365.89 222.96C365.36 224.23 364.04 224.39 362.89 224.49C356.49 225.02 349.06 225.3 346.81 217.38Z" fill="#8DAF41"/>
<path d="M395.55 186.72C395.42 186.52 395.29 186.32 395.17 186.12C395.05 185.92 394.8 185.55 394.61 185.26L393.68 183.79L392.47 181.88C392.459 181.85 392.442 181.823 392.42 181.8L391.2 179.8L390 177.8C389.38 176.8 388.77 175.8 388.16 174.8C388.119 174.736 388.083 174.669 388.05 174.6C386.67 172.3 385.31 169.967 383.97 167.6C382.72 165.43 381.5 163.25 380.29 161.05C378.763 158.25 377.27 155.437 375.81 152.61C375.36 151.73 374.91 150.86 374.47 149.98C373.363 147.76 372.283 145.54 371.23 143.32C370.09 140.91 368.99 138.51 367.94 136.1C366.553 132.933 365.24 129.764 364 126.59C363.49 125.28 363 123.97 362.51 122.66C361.03 118.66 359.697 114.66 358.51 110.66C358.46 110.46 358.4 110.27 358.34 110.08C357.25 106.36 356.29 102.67 355.49 99.0103C355.11 97.2903 354.76 95.5701 354.49 93.8601C354.33 92.9701 354.16 92.0802 354.01 91.1902L353.5 88.3303C346.301 47.4702 341.51 6.22247 339.15 -35.1997C339.06 -36.8597 338.99 -38.3399 338.94 -39.5999C338.94 -40.0332 338.92 -40.4432 338.88 -40.8298C338.76 -43.6398 338.73 -45.1299 338.73 -45.1299H327.3C327.3 -45.1299 327.3 -44.5399 327.24 -43.3899C327.24 -42.7299 327.17 -41.8698 327.13 -40.8298C327.13 -40.4398 327.13 -40.0399 327.07 -39.5999C324.678 3.29256 319.645 45.9969 312 88.2703C311.83 89.2203 311.66 90.1701 311.48 91.1301C311.3 92.0901 311.16 92.9003 310.99 93.8003C310.677 95.5003 310.327 97.2102 309.94 98.9302C309.12 102.604 308.153 106.294 307.04 110C302.802 123.716 297.353 137.028 290.76 149.78C288.833 153.567 286.833 157.33 284.76 161.07C283.63 163.12 282.47 165.15 281.3 167.18C279.92 169.58 278.513 171.96 277.08 174.32C265.753 192.81 253.348 210.617 239.93 227.65L279.49 227.73C281.236 225.656 283.092 223.677 285.05 221.8C299.45 207.974 313.877 200.464 328.33 199.27C335.889 198.668 343.488 199.747 350.58 202.43C360.38 206.03 370.163 212.55 379.93 221.99C381.88 223.892 383.729 225.895 385.47 227.99L414.85 228.05V214.64C408.49 206.05 401.92 196.63 395.55 186.72ZM338.38 110.56C338.7 112.87 339.08 115.25 339.49 117.66C341.49 129.15 344.44 141.31 346.72 150.01C348.08 155.22 349.21 159.18 349.72 161.01C349.77 161.2 349.82 161.38 349.87 161.52L350.05 162.15L315.05 162.08C315.05 162.08 315.28 161.31 315.68 159.92C316.29 157.82 317.28 154.31 318.44 149.92C320.97 140.44 324.3 126.92 326.3 114.71C326.53 113.28 326.75 111.88 326.94 110.5L338.38 110.56Z" fill="#975E36"/>
<path d="M277.07 174.57L388.01 174.79L393.59 150.1L271.58 149.86L277.07 174.57Z" fill="#975E36"/>
<path d="M302.18 88.3701L307 110.12L307.08 110.49L358.25 110.59L358.33 110.21L363.24 88.4901L302.18 88.3701Z" fill="#975E36"/>
<path d="M395.51 201.34L381.19 176.62L358.1 201.27L395.51 201.34Z" fill="#663915"/>
<path d="M353.13 198.68L376.86 174.77L337.88 174.69L353.13 198.68Z" fill="#663915"/>
<path d="M332.54 174.68L345.95 196.68C341.705 194.838 337.127 193.888 332.5 193.89L332.54 174.68Z" fill="#663915"/>
<path d="M370.74 150.06H350.1C350.1 150.06 346.25 140.01 346.1 136.41L370.74 150.06Z" fill="#663915"/>
<path d="M358.44 122.01L366.69 143.23L345.43 131.85L358.44 122.01Z" fill="#663915"/>
<path d="M344.7 128.22L356.98 119.22L340.68 110.61C340.68 110.61 342.6 121.48 344.7 128.22Z" fill="#663915"/>
<path d="M344.7 110.57L356.12 110.59L357.72 116.26L344.7 110.57Z" fill="#663915"/>
<path d="M351.26 88.4701L332.71 88.4301L332.75 65.3301L351.26 88.4701Z" fill="#663915"/>
<path d="M348.9 79.7397L342.41 38.6797L332.76 59.3097L348.9 79.7397Z" fill="#663915"/>
<path d="M332.78 49.7298L340.9 34.2598L332.85 14.3398L332.78 49.7298Z" fill="#663915"/>
<path d="M340.92 25.2299L338.24 -6.66016L332.87 6.59985L340.92 25.2299Z" fill="#663915"/>
<path d="M337.76 -11.0801L332.88 0.329887L332.93 -23.6201L337.76 -11.0801Z" fill="#663915"/>
<path d="M274.75 226.26L270.13 227.83L249.11 227.79L263.17 209.65L274.75 226.26Z" fill="#663915"/>
<path d="M276.98 220.22L266.49 205.51L296.35 205.57C288.784 208.781 282.13 213.814 276.98 220.22V220.22Z" fill="#663915"/>
<path d="M269.46 201.09L283.88 176.43L306.87 201.17L269.46 201.09Z" fill="#663915"/>
<path d="M311.85 198.6L288.21 174.59L327.19 174.67L311.85 198.6Z" fill="#663915"/>
<path d="M332.54 174.68L319.04 196.59C323.291 194.763 327.873 193.831 332.5 193.85L332.54 174.68Z" fill="#663915"/>
<path d="M294.49 149.91H315.13C315.13 149.91 319.02 139.91 319.21 136.28L294.49 149.91Z" fill="#663915"/>
<path d="M306.84 121.91L298.51 143.1L319.81 131.81L306.84 121.91Z" fill="#663915"/>
<path d="M320.56 128.22L308.32 119.16L324.65 110.62C324.65 110.62 322.69 121.44 320.56 128.22Z" fill="#663915"/>
<path d="M320.62 110.52L309.21 110.5L307.59 116.16L320.62 110.52Z" fill="#663915"/>
<path d="M314.15 88.3901L332.71 88.4301L332.75 65.3301L314.15 88.3901Z" fill="#663915"/>
<path d="M316.55 79.6696L323.2 38.6396L332.76 59.3096L316.55 79.6696Z" fill="#663915"/>
<path d="M332.78 49.7298L324.73 34.2298L332.85 14.3398L332.78 49.7298Z" fill="#663915"/>
<path d="M324.75 25.2003L327.55 -6.67969L332.87 6.60031L324.75 25.2003Z" fill="#663915"/>
<path d="M328.05 -11.1001L332.88 0.329887L332.93 -23.6201L328.05 -11.1001Z" fill="#663915"/>
<path d="M330.242 107.827L334.853 107.836L334.884 91.4361L330.274 91.4272L330.242 107.827Z" fill="#663915"/>
<path d="M339.64 107.7L344.25 107.71L346.13 91.3098L341.52 91.2998L339.64 107.7Z" fill="#663915"/>
<path d="M348.92 107.72L353.53 107.73L357.25 91.3303L352.64 91.3203L348.92 107.72Z" fill="#663915"/>
<path d="M325.7 107.67L321.09 107.66L319.28 91.2598L323.89 91.2698L325.7 107.67Z" fill="#663915"/>
<path d="M316.42 107.66L311.81 107.65L308.16 91.2402L312.77 91.2502L316.42 107.66Z" fill="#663915"/>
<path d="M324.87 176.74H329.48V160.34H324.87V176.74Z" fill="#663915"/>
<path d="M334.6 176.78H339.21V160.38H334.6V176.78Z" fill="#663915"/>
<path d="M349.583 170.71L354.193 170.719L354.225 154.319L349.615 154.31L349.583 170.71Z" fill="#663915"/>
<path d="M359.45 170.58L364.06 170.59L365.38 154.19H360.78L359.45 170.58Z" fill="#663915"/>
<path d="M281.85 170.43L286.46 170.44L283.37 154.03L278.76 154.02L281.85 170.43Z" fill="#663915"/>
<path d="M291.59 170.45L296.19 170.46L294.43 154.06L289.82 154.05L291.59 170.45Z" fill="#663915"/>
<path d="M301.32 170.47L305.93 170.48L304.57 154.07H299.96L301.32 170.47Z" fill="#663915"/>
<path d="M310.933 170.644L315.543 170.653L315.574 154.253L310.964 154.245L310.933 170.644Z" fill="#663915"/>
<path d="M320.663 170.656L325.273 170.665L325.304 154.265L320.695 154.256L320.663 170.656Z" fill="#663915"/>
<path opacity="0.5" d="M277.07 174.57L395.55 186.78V186.72C393.05 182.827 390.587 178.87 388.16 174.85L388.01 174.79L277.07 174.57Z" fill="#3A1A09"/>
<path opacity="0.5" d="M338.38 110.56C338.7 112.87 339.08 115.25 339.49 117.67L342.19 118.26L354.59 121L362.5 122.75C361.02 118.75 359.687 114.75 358.5 110.75L358.24 110.55L338.38 110.56Z" fill="#3A1A09"/>
<path opacity="0.5" d="M307.09 110.5L309.09 110.94L316.09 112.49L319.61 113.26L323.96 114.26L326.32 114.78C326.55 113.35 326.77 111.95 326.96 110.56L307.09 110.5Z" fill="#3A1A09"/>
<path d="M199.99 225.22C198.586 221.162 196.213 217.507 193.076 214.574C189.939 211.641 186.134 209.519 181.99 208.39C175.36 206.65 168.36 207.601 161.58 208.561C163.258 205.628 164.047 202.27 163.852 198.897C163.657 195.524 162.485 192.28 160.48 189.561C156.33 184.261 148.48 182.1 142.34 184.88C143.833 182.038 144.26 178.756 143.543 175.627C142.825 172.497 141.012 169.728 138.43 167.821C135.733 166.08 132.502 165.362 129.321 165.796C126.141 166.231 123.221 167.79 121.09 170.19C121.048 165.079 119.617 160.075 116.95 155.713C114.283 151.352 110.481 147.798 105.95 145.43C103.485 144.157 100.881 143.174 98.19 142.5C85.19 139.36 75.8801 146.71 69.2601 157.41C63.2601 167.1 59.43 179.54 56.92 189.41C56.66 190.41 56.42 191.41 56.18 192.41C54.7148 198.145 53.5962 203.962 52.8302 209.831C52.1604 215.043 52.1099 220.316 52.68 225.54C52.75 226.18 52.84 226.82 52.94 227.46L200.68 227.75C200.503 226.894 200.273 226.049 199.99 225.22V225.22ZM94.15 217.29C93.7265 217.708 93.2228 218.034 92.6693 218.251C92.1158 218.467 91.5241 218.569 90.93 218.55C90.19 218.55 89.44 218.441 88.7 218.341H87.8302C87.3258 218.761 86.745 219.08 86.12 219.28C84.9006 219.596 83.6067 219.423 82.5125 218.799C81.4184 218.176 80.6103 217.15 80.2601 215.94L80.1102 215.46C79.8202 215.28 79.5301 215.09 79.2501 214.89C76.4291 212.899 74.1751 210.207 72.71 207.081C72.46 206.561 72.2401 206.08 72.0301 205.48C70.9693 202.234 71.122 198.713 72.46 195.571C75.13 188.901 81.0902 182.981 88.5702 182.571C89.1844 182.552 89.7955 182.664 90.3629 182.9C90.9302 183.137 91.4408 183.491 91.8602 183.94C92.4842 184.089 93.0716 184.362 93.5872 184.743C94.1028 185.125 94.5359 185.607 94.8602 186.16C94.9502 186.33 95.04 186.5 95.12 186.67C95.3586 186.56 95.6063 186.469 95.8602 186.4C97.0459 186.101 98.2988 186.229 99.4 186.76C99.5145 186.816 99.6249 186.879 99.7301 186.95C100.57 186.339 101.572 185.991 102.61 185.95C103.866 185.974 105.064 186.484 105.95 187.374C106.836 188.265 107.342 189.464 107.36 190.72C107.43 192.44 107.44 194.15 107.36 195.87V209.28C107.348 210.427 106.923 211.531 106.162 212.389C105.402 213.247 104.357 213.801 103.22 213.95C102.374 214.053 101.515 213.932 100.73 213.6C100.54 213.78 100.34 213.96 100.13 214.13C98.3521 215.551 96.3238 216.627 94.15 217.3V217.29Z" fill="#8DAF41"/>
<path d="M172.49 227.39C166.89 221.02 158.62 216.63 149.9 214.64C153.06 210.89 152.43 204.94 148.5 201.42C144.57 197.9 137.84 197.25 133.5 199.98C135.75 196.42 133.94 191.34 130.01 188.81C129.137 188.252 128.196 187.809 127.21 187.49C123.695 186.377 119.893 186.597 116.53 188.11C117.916 182.038 117.142 175.672 114.34 170.11C113.404 167.972 111.895 166.134 109.98 164.8C108.398 163.891 106.663 163.281 104.86 163C103.229 162.689 101.578 162.492 99.9199 162.41C94.5267 162.153 89.1414 163.061 84.1299 165.07C83.3799 165.37 82.6499 165.7 81.9199 166.07C77.5123 168.11 73.6206 171.116 70.5339 174.866C67.4472 178.615 65.2449 183.012 64.0901 187.73C63.561 189.7 63.1732 191.705 62.9299 193.73C62.3099 198.883 61.8032 204.036 61.4099 209.19C60.9499 215.25 60.6768 221.33 60.5901 227.43L172.67 227.65C172.605 227.567 172.545 227.48 172.49 227.39V227.39Z" fill="#77932A"/>
<path opacity="0.5" d="M194.04 227.68H188.26C186.528 224.706 183.716 222.514 180.41 221.56C179.47 221.374 178.556 221.071 177.69 220.66C176.814 220.108 176.186 219.238 175.938 218.233C175.69 217.228 175.841 216.166 176.36 215.27C176.84 214.5 184.96 217.95 185.84 218.42C188.97 220.081 191.527 222.646 193.18 225.78C193.505 226.395 193.792 227.03 194.04 227.68Z" fill="#F6EF83"/>
<path opacity="0.5" d="M107.75 152.61C110.039 153.442 111.994 154.997 113.32 157.04C114.091 158.126 114.623 159.363 114.88 160.67C114.919 160.989 114.851 161.312 114.685 161.587C114.519 161.863 114.266 162.075 113.966 162.19C113.666 162.305 113.336 162.317 113.028 162.222C112.721 162.128 112.454 161.933 112.27 161.67C111.14 159.56 110.18 157.32 108.19 155.97C107.087 155.285 105.827 154.894 104.529 154.834C103.232 154.775 101.941 155.049 100.78 155.63C100.308 155.896 99.8084 156.111 99.2901 156.27C99.0278 156.333 98.7553 156.342 98.4893 156.297C98.2233 156.252 97.9693 156.154 97.7423 156.008C97.5153 155.862 97.3201 155.672 97.1685 155.449C97.0169 155.226 96.9121 154.974 96.8602 154.71C96.8002 154.25 101.49 152.61 102.03 152.47C103.911 151.969 105.896 152.018 107.75 152.61Z" fill="#F6EF83"/>
<path d="M129.39 216.73C128.63 216.48 127.78 216.01 127.67 215.23C127.645 214.776 127.76 214.326 128 213.94C129.49 210.94 131.15 207.71 134.17 206.13C135.859 205.363 137.664 204.88 139.51 204.7C140.68 204.51 142.16 204.45 142.83 205.46C143.5 206.47 142.98 207.51 142.47 208.46C139.75 213.37 136.31 218.96 129.39 216.73Z" fill="#8DAF41"/>
<path d="M155.49 203.22C155.301 203.345 155.083 203.419 154.857 203.435C154.631 203.451 154.404 203.408 154.2 203.31C154.014 203.134 153.882 202.908 153.82 202.66C153.21 200.86 152.6 198.93 153.17 197.1C153.54 196.126 154.064 195.218 154.72 194.41C155.12 193.87 155.72 193.26 156.35 193.41C156.98 193.56 157.23 194.17 157.35 194.73C158.26 197.71 159.12 201.3 155.49 203.22Z" fill="#77932A"/>
<path d="M144.77 222.08C144.665 221.939 144.599 221.774 144.579 221.6C144.558 221.426 144.583 221.25 144.652 221.089C144.721 220.928 144.831 220.788 144.971 220.683C145.111 220.578 145.276 220.511 145.45 220.49C147.26 220.04 149.21 219.6 150.96 220.3C151.885 220.741 152.733 221.328 153.47 222.04C153.97 222.48 154.52 223.04 154.34 223.72C154.16 224.4 153.53 224.52 152.96 224.63C149.9 225.22 146.3 225.8 144.77 222.08Z" fill="#8DAF41"/>
<path d="M130.9 184.69C130.51 184.47 130.1 184.12 130.12 183.69C130.156 183.439 130.267 183.205 130.44 183.02C131.58 181.54 132.82 180.02 134.63 179.45C135.628 179.214 136.659 179.144 137.68 179.24C138.34 179.24 139.15 179.39 139.41 180.01C139.473 180.296 139.458 180.593 139.367 180.871C139.275 181.149 139.11 181.398 138.89 181.59C136.88 183.98 134.41 186.65 130.9 184.69Z" fill="#77932A"/>
<path d="M256.03 149.87L242.29 168.67L226.88 189.77C226.88 189.77 216.03 180.09 210.39 160.24C208.924 155.046 207.943 149.726 207.46 144.35C206.77 136.8 206.46 130.69 206.15 125.68C205.2 110.39 204.21 105.21 192.24 99.9702L210.85 63.3203C210.85 63.3203 224.49 69.6603 234.08 79.3203C239.21 84.5003 243.19 90.6403 243.3 97.3203C243.48 108.05 238.24 115.23 238.84 124.04C239.31 130.85 243.29 138.66 256.03 149.87Z" fill="white"/>
<path d="M256.03 149.87L248.41 160.3C241.001 151.383 235.587 140.983 232.53 129.8C228.28 114.41 250.53 91.0103 205.41 74.0503L210.85 63.3203C261.48 88.9103 237.47 108.67 239.85 125.73C241.49 137.15 250.18 144.72 256.03 149.87Z" fill="#298BBD"/>
<path d="M243.7 166.84L238.29 174.25C238.29 174.25 228.5 168.15 223.29 149.39C219.04 134 228.01 92.1101 194.29 89.3901L199.74 78.6602C240.93 93.6602 225.04 110.98 227.44 128.04C229.04 139.43 237.85 161.69 243.7 166.84Z" fill="#298BBD"/>
<path d="M234.49 179.35L226.86 189.781C226.86 189.781 214.52 178.26 208.61 152.47C204.34 133.82 211.9 106.76 192.01 99.7004L197.46 88.9805C221.21 100.58 215.92 138.15 218.33 155.21C219.89 166.64 228.59 174.22 234.49 179.35Z" fill="#298BBD"/>
<path d="M211.23 62.2199C211.229 62.4836 211.167 62.7436 211.05 62.9799L210.85 63.3598L192.24 100.01L126.41 229.59H122.67L208.07 61.4599C208.24 61.1244 208.518 60.856 208.859 60.6982C209.2 60.5403 209.585 60.5023 209.95 60.5902C210.316 60.6782 210.641 60.887 210.874 61.1828C211.106 61.4785 211.231 61.8439 211.23 62.2199V62.2199Z" fill="white"/>
<path opacity="0.2" d="M256.03 149.87L226.88 189.77C226.88 189.77 216.03 180.09 210.39 160.24C208.924 155.046 207.943 149.726 207.46 144.35C206.77 136.8 206.46 130.69 206.15 125.68C205.2 110.39 204.21 105.21 192.24 99.9702C192.24 99.9702 209.79 96.3503 215.62 130.48C222.7 172.02 256.03 149.87 256.03 149.87Z" fill="#0A2E11"/>
<path d="M224.25 107.92C224.25 107.92 209.25 100.55 192.25 99.9702L210.86 63.3203C210.86 63.3203 226.49 86.3402 224.25 107.92Z" fill="#F61F21"/>
<path d="M12.1001 149.69L25.77 168.55L41.1001 189.7C41.1001 189.7 51.99 180.07 57.71 160.25C59.1998 155.061 60.2041 149.745 60.71 144.37C61.43 136.82 61.7601 130.71 62.0901 125.7C63.0901 110.41 64.0901 105.24 76.0901 100.04L57.6199 63.3203C57.6199 63.3203 43.9601 69.6102 34.3201 79.2502C29.1701 84.4102 25.17 90.5402 25.03 97.1702C24.81 107.9 30.0299 115.1 29.3899 123.91C28.9099 130.74 24.9001 138.53 12.1001 149.69Z" fill="white"/>
<path d="M12.1001 149.69L41.1001 189.69C41.1001 189.69 51.99 180.06 57.71 160.24L29.3999 123.9C28.9099 130.74 24.9001 138.53 12.1001 149.69Z" fill="#C61851"/>
<path d="M34.3301 79.22L62.0801 125.67C63.0801 110.38 64.0801 105.21 76.0801 100.01L57.6101 63.29C57.6101 63.29 43.9701 69.61 34.3301 79.22Z" fill="#298BBD"/>
<path d="M57.25 62.2198C57.2513 62.4835 57.3128 62.7435 57.4299 62.9798L57.6299 63.3597L76.1001 100.08L141.41 229.93H145.16L60.4199 61.4798C60.2538 61.1403 59.9774 60.8672 59.636 60.7051C59.2946 60.5431 58.9083 60.5018 58.5403 60.5877C58.1723 60.6736 57.8443 60.8818 57.6099 61.1783C57.3755 61.4748 57.2487 61.8419 57.25 62.2198V62.2198Z" fill="white"/>
<path opacity="0.2" d="M12.1001 149.69L41.1001 189.69C41.1001 189.69 51.99 180.06 57.71 160.24C59.1998 155.051 60.2041 149.735 60.71 144.36C61.43 136.81 61.7601 130.7 62.0901 125.69C63.0901 110.4 64.0901 105.23 76.0901 100.03C76.0901 100.03 58.5501 96.3499 52.5901 130.46C45.3501 171.98 12.1001 149.69 12.1001 149.69Z" fill="#0A2E11"/>
<path d="M205.14 84.17L210.36 87.16L214 83.54L213.59 89.01L218.81 92.01L213.34 92.4L212.93 97.87L209.95 92.6301L204.48 93.0201L208.11 89.4L205.14 84.17Z" fill="white"/>
</g>
</g>
<defs>
<linearGradient id="paint0_linear_574_2421" x1="76.79" y1="111.43" x2="76.79" y2="216.47" gradientUnits="userSpaceOnUse">
<stop stop-color="#F4C124"/>
<stop offset="1" stop-color="#F6EF83"/>
</linearGradient>
<linearGradient id="paint1_linear_574_2421" x1="355.93" y1="128.76" x2="355.93" y2="217.41" gradientUnits="userSpaceOnUse">
<stop stop-color="#F4C124"/>
<stop offset="1" stop-color="#F6EF83"/>
</linearGradient>
<clipPath id="clip0_574_2421">
<rect width="360" height="223" fill="white"/>
</clipPath>
<clipPath id="clip1_574_2421">
<rect width="360" height="313.26" fill="white" transform="translate(0 -90)"/>
</clipPath>
</defs>
</svg>
