<svg width="1139" height="624" viewBox="0 0 1139 624" fill="none" xmlns="http://www.w3.org/2000/svg">
<path d="M46.0655 88.1652C-9.19318 124.156 62.7261 250.431 56.376 316.026C50.0892 380.933 -21.7349 397.151 7.47803 475.143C50.0892 588.899 235.894 496.073 317.69 492.576C380.954 489.882 542.405 598.656 597.59 440.806C612.246 398.899 525.644 323.395 524.343 279.026C522.842 227.943 539.185 -11.3118 502.781 24.5941C394.162 131.72 342.287 131.715 290.381 133.168C228.296 134.911 98.0936 54.2825 46.0655 88.1652Z" fill="#5DBBCE"/>
<mask id="mask0_622_440" style="mask-type:alpha" maskUnits="userSpaceOnUse" x="0" y="-13" width="1161" height="698">
<path d="M46.0673 88.1709C-9.19144 124.161 62.7277 250.437 56.3776 316.031C50.0908 380.939 -21.7334 397.157 7.47949 475.149C50.0907 588.905 235.896 496.079 317.692 492.582C380.956 489.887 802.5 1007.5 1152.5 352.499C1199.26 265 1027.8 51.8676 1026.5 7.49892C521 -34.5 520 1.49585 506 17.9965C400.368 142.496 342.289 131.721 290.383 133.173C228.298 134.917 98.0954 54.2882 46.0673 88.1709Z" fill="#5DBBCE"/>
</mask>
<g mask="url(#mask0_622_440)">
<path d="M-98 235.957H-9.95423V265.44H21.0353V172.973H80.2437V207.811H107.04V227.146H127.243L160.771 193.654L194.917 227.769H222.961V288.165H250.382V253.739H292.327V233.517H336.186V243.459H356.817V288.165H375.651V269.486H392.169V250.807H446.153V212.825H525.227V428.266H-98V235.957Z" fill="#2F7D90"/>
<path d="M193.421 243.109H202.219V261.461H193.421V243.109Z" fill="#1F535F"/>
<path d="M95.2491 262.471H104.047V280.823H95.2491V262.471Z" fill="#1F535F"/>
<path d="M165.746 226.1H174.544V244.451H165.746V226.1Z" fill="#1F535F"/>
<path d="M147.737 262.471H156.536V280.823H147.737V262.471Z" fill="#F6EF83"/>
<path d="M178.092 284.895H186.891V303.246H178.092V284.895Z" fill="#1F535F"/>
<path d="M262.099 263.934H270.897V282.285H262.099V263.934Z" fill="#F6EF83"/>
<path d="M122.025 239.053H130.823V257.405H122.025V239.053Z" fill="#1F535F"/>
<path d="M59.4059 186.174H68.2041V204.526H59.4059V186.174Z" fill="#F6EF83"/>
<path d="M60.1566 206.095C65.2043 206.056 70.2521 206.022 75.2998 205.994C127.116 205.725 179.081 206.195 230.982 206.359H235.482C257.583 206.422 279.665 206.396 301.728 206.279C320.308 206.16 338.863 205.92 357.393 205.561C368.994 201.773 363.125 198.049 354.602 198.165C360.851 164.737 329 177.906 312.694 189.296C313.482 186.475 310.658 183.638 307.729 183.427C292.591 189.766 308.289 173.643 300.713 155.028C300.041 150.886 296.53 148.863 292.506 149.248C264.885 145.107 254.199 174.077 240.626 192.397C241.795 183.945 230.882 182.407 224.584 184.103C239.151 179.824 226.837 166.322 221.301 170.495C233.044 122.872 160.104 122.904 161.881 173.432C154.844 156.348 133.329 173.58 142.778 187.42C114.107 186.643 85.7001 193.064 60.1566 206.095V206.095Z" fill="white"/>
<path opacity="0.4" d="M235.482 206.349C257.583 206.413 279.665 206.386 301.728 206.27C301.357 203.164 300.554 200.169 298.867 197.564C296.022 193.18 289.804 190.554 285.358 193.338C284.829 188.985 278.061 183.079 273.673 183C269.284 182.921 261.808 185.113 261.141 189.466C252.073 189.318 242.059 198.737 235.482 206.349Z" fill="#F6E966"/>
<path opacity="0.4" d="M75.2997 205.995C127.116 205.726 179.081 206.196 230.982 206.359C231.343 203.576 231.033 200.747 230.078 198.108C228.116 193.126 221.507 189.656 217.198 192.857C218.583 189.408 219.45 184.595 216.241 182.72C212.751 180.691 208.839 184.511 206.613 187.876C207.252 182.165 207.813 176.148 205.513 170.881C201.769 162.297 190.613 158.325 181.772 161.431C172.932 164.537 166.894 173.512 165.91 182.825C164.661 181.841 163.128 181.284 161.537 181.238C159.947 181.193 158.384 181.66 157.08 182.572C155.822 183.545 154.911 184.897 154.482 186.428C154.054 187.959 154.13 189.588 154.701 191.072C145.062 189.64 135.888 195.033 126.413 197.31C115.072 200.036 103.069 198.266 91.6167 200.48C87.5189 201.246 80.8304 203.074 75.2997 205.995Z" fill="#F6E966"/>
<path d="M276.152 237.368L270.601 237.331C251.598 237.23 232.531 237.405 213.497 237.463H211.842C203.734 237.484 195.638 237.473 187.551 237.431C180.738 237.389 173.933 237.302 167.137 237.172C162.907 235.783 165.022 234.415 168.157 234.452C165.868 222.191 177.548 227.019 183.528 231.198C183.237 230.141 184.273 229.121 185.347 229.042C190.904 231.372 185.146 225.455 187.921 218.63C188.17 217.109 189.455 216.369 190.93 216.517C201.061 214.996 204.979 225.624 209.965 232.339C209.536 229.232 213.539 228.678 215.844 229.296C210.504 227.711 215.019 222.777 217.05 224.309C212.746 206.845 239.495 206.876 238.839 225.365C241.425 219.1 249.303 225.418 245.845 230.495C256.364 230.215 266.785 232.578 276.152 237.368V237.368Z" fill="white"/>
<path opacity="0.4" d="M211.836 237.467C203.729 237.489 195.632 237.478 187.546 237.436C187.653 236.313 188.015 235.229 188.604 234.266C189.661 232.682 191.929 231.694 193.558 232.708C193.748 231.123 196.233 228.947 197.841 228.915C199.448 228.883 202.192 229.697 202.441 231.287C205.772 231.213 209.441 234.668 211.836 237.467Z" fill="#F6E966"/>
<path opacity="0.4" d="M270.601 237.331C251.598 237.23 232.531 237.405 213.497 237.463C213.359 236.444 213.472 235.407 213.824 234.441C214.544 232.608 216.997 231.34 218.551 232.513C218.023 231.245 217.721 229.481 218.9 228.815C220.18 228.07 221.613 229.476 222.432 230.706C222.194 228.593 221.988 226.406 222.834 224.473C224.209 221.303 228.296 219.872 231.543 221.007C234.789 222.143 236.999 225.44 237.359 228.852C237.818 228.492 238.381 228.289 238.964 228.273C239.548 228.257 240.121 228.428 240.6 228.762C241.062 229.118 241.397 229.614 241.554 230.176C241.711 230.738 241.683 231.335 241.472 231.879C245.004 231.351 248.372 233.332 251.846 234.166C256.002 235.165 260.407 234.515 264.605 235.323C266.686 235.713 268.704 236.389 270.601 237.331Z" fill="#F6E966"/>
<path d="M172.239 316.812H698.934V374.171H172.239V316.812Z" fill="#F4C124"/>
<path d="M172.239 374.172H698.934V375.73H172.239V374.172Z" fill="#F4C124"/>
<path d="M172.239 375.73H698.934V377.289H172.239V375.73Z" fill="#F4C125"/>
<path d="M172.239 377.289H698.934V378.847H172.239V377.289Z" fill="#F4C226"/>
<path d="M172.239 378.852H698.934V380.41H172.239V378.852Z" fill="#F4C226"/>
<path d="M172.239 380.41H698.934V381.969H172.239V380.41Z" fill="#F4C327"/>
<path d="M172.239 381.973H698.934V383.531H172.239V381.973Z" fill="#F4C328"/>
<path d="M172.239 383.531H698.934V385.09H172.239V383.531Z" fill="#F4C429"/>
<path d="M172.239 385.09H698.934V386.648H172.239V385.09Z" fill="#F4C42A"/>
<path d="M172.239 386.654H698.934V388.213H172.239V386.654Z" fill="#F4C52B"/>
<path d="M172.239 388.211H698.934V389.769H172.239V388.211Z" fill="#F4C52C"/>
<path d="M172.239 389.777H698.934V391.336H172.239V389.777Z" fill="#F4C62C"/>
<path d="M172.239 391.334H698.934V392.892H172.239V391.334Z" fill="#F4C62D"/>
<path d="M172.239 392.898H698.934V394.457H172.239V392.898Z" fill="#F4C72E"/>
<path d="M172.239 394.457H698.934V396.015H172.239V394.457Z" fill="#F4C72F"/>
<path d="M172.239 396.016H698.934V397.574H172.239V396.016Z" fill="#F4C830"/>
<path d="M172.239 397.578H698.934V399.137H172.239V397.578Z" fill="#F4C831"/>
<path d="M172.239 399.137H698.934V400.695H172.239V399.137Z" fill="#F4C932"/>
<path d="M172.239 400.699H698.934V402.258H172.239V400.699Z" fill="#F4C933"/>
<path d="M172.239 402.258H698.934V403.816H172.239V402.258Z" fill="#F4CA34"/>
<path d="M172.239 403.816H698.934V405.375H172.239V403.816Z" fill="#F4CA35"/>
<path d="M172.239 405.381H698.934V406.939H172.239V405.381Z" fill="#F5CB36"/>
<path d="M172.239 406.939H698.934V408.498H172.239V406.939Z" fill="#F5CB37"/>
<path d="M172.239 408.502H698.934V410.06H172.239V408.502Z" fill="#F5CC38"/>
<path d="M172.239 410.062H698.934V411.621H172.239V410.062Z" fill="#F5CC39"/>
<path d="M172.239 411.625H698.934V413.183H172.239V411.625Z" fill="#F5CC3A"/>
<path d="M172.239 413.184H698.934V414.742H172.239V413.184Z" fill="#F5CD3B"/>
<path d="M172.239 414.742H698.934V416.301H172.239V414.742Z" fill="#F5CD3C"/>
<path d="M172.239 416.305H698.934V417.863H172.239V416.305Z" fill="#F5CE3D"/>
<path d="M172.239 417.863H698.934V419.422H172.239V417.863Z" fill="#F5CE3E"/>
<path d="M172.239 419.428H698.934V420.986H172.239V419.428Z" fill="#F5CF3F"/>
<path d="M172.239 420.984H698.934V422.543H172.239V420.984Z" fill="#F5CF40"/>
<path d="M172.239 422.551H698.934V424.109H172.239V422.551Z" fill="#F5D041"/>
<path d="M172.239 424.107H698.934V425.666H172.239V424.107Z" fill="#F5D042"/>
<path d="M172.239 425.666H698.934V427.224H172.239V425.666Z" fill="#F5D142"/>
<path d="M172.239 427.23H698.934V428.789H172.239V427.23Z" fill="#F5D143"/>
<path d="M172.239 428.789H698.934V430.347H172.239V428.789Z" fill="#F5D244"/>
<path d="M172.239 430.352H698.934V431.91H172.239V430.352Z" fill="#F5D245"/>
<path d="M172.239 431.91H698.934V433.469H172.239V431.91Z" fill="#F5D346"/>
<path d="M172.239 433.469H698.934V435.027H172.239V433.469Z" fill="#F5D347"/>
<path d="M172.239 435.031H698.934V436.59H172.239V435.031Z" fill="#F5D448"/>
<path d="M172.239 436.59H698.934V438.148H172.239V436.59Z" fill="#F5D449"/>
<path d="M172.239 438.154H698.934V439.713H172.239V438.154Z" fill="#F5D54A"/>
<path d="M172.239 439.713H698.934V441.271H172.239V439.713Z" fill="#F5D54B"/>
<path d="M172.239 441.277H698.934V442.836H172.239V441.277Z" fill="#F5D64C"/>
<path d="M172.239 442.836H698.934V444.394H172.239V442.836Z" fill="#F5D64D"/>
<path d="M172.239 444.393H698.934V445.951H172.239V444.393Z" fill="#F5D74E"/>
<path d="M172.239 445.957H698.934V447.515H172.239V445.957Z" fill="#F5D74F"/>
<path d="M172.239 447.516H698.934V449.074H172.239V447.516Z" fill="#F5D850"/>
<path d="M172.239 449.078H698.934V450.637H172.239V449.078Z" fill="#F5D851"/>
<path d="M172.239 450.637H698.934V452.195H172.239V450.637Z" fill="#F5D952"/>
<path d="M172.239 452.195H698.934V453.754H172.239V452.195Z" fill="#F5D953"/>
<path d="M172.239 453.758H698.934V455.316H172.239V453.758Z" fill="#F5DA54"/>
<path d="M172.239 455.318H698.934V456.877H172.239V455.318Z" fill="#F5DA55"/>
<path d="M172.239 456.881H698.934V458.439H172.239V456.881Z" fill="#F5DB56"/>
<path d="M172.239 458.439H698.934V459.998H172.239V458.439Z" fill="#F5DB57"/>
<path d="M172.239 460.004H698.934V461.562H172.239V460.004Z" fill="#F5DC59"/>
<path d="M172.239 461.561H698.934V463.119H172.239V461.561Z" fill="#F5DC5A"/>
<path d="M172.239 463.121H698.934V464.679H172.239V463.121Z" fill="#F5DC5B"/>
<path d="M172.239 464.684H698.934V466.242H172.239V464.684Z" fill="#F5DD5C"/>
<path d="M172.239 466.242H698.934V467.801H172.239V466.242Z" fill="#F5DD5D"/>
<path d="M172.239 467.805H698.934V469.363H172.239V467.805Z" fill="#F5DE5E"/>
<path d="M172.239 469.363H698.934V470.922H172.239V469.363Z" fill="#F5DE5F"/>
<path d="M172.239 470.922H698.934V472.48H172.239V470.922Z" fill="#F5DF60"/>
<path d="M172.239 472.486H698.934V474.045H172.239V472.486Z" fill="#F5DF61"/>
<path d="M172.239 474.043H698.934V475.601H172.239V474.043Z" fill="#F5E062"/>
<path d="M172.239 475.609H698.934V477.168H172.239V475.609Z" fill="#F5E063"/>
<path d="M172.239 477.166H698.934V478.724H172.239V477.166Z" fill="#F5E164"/>
<path d="M172.239 478.73H698.934V480.289H172.239V478.73Z" fill="#F5E165"/>
<path d="M172.239 480.289H698.934V481.847H172.239V480.289Z" fill="#F5E266"/>
<path d="M172.239 481.848H698.934V483.406H172.239V481.848Z" fill="#F5E267"/>
<path d="M172.239 483.41H698.934V484.969H172.239V483.41Z" fill="#F5E368"/>
<path d="M172.239 484.969H698.934V486.527H172.239V484.969Z" fill="#F5E369"/>
<path d="M172.239 486.531H698.934V488.09H172.239V486.531Z" fill="#F5E46A"/>
<path d="M172.239 488.09H698.934V489.648H172.239V488.09Z" fill="#F5E46B"/>
<path d="M172.239 489.654H698.934V491.213H172.239V489.654Z" fill="#F5E56C"/>
<path d="M172.239 491.213H698.934V492.771H172.239V491.213Z" fill="#F5E56D"/>
<path d="M172.239 492.771H698.934V494.33H172.239V492.771Z" fill="#F5E66E"/>
<path d="M172.239 494.336H698.934V495.894H172.239V494.336Z" fill="#F5E66F"/>
<path d="M172.239 495.895H698.934V497.453H172.239V495.895Z" fill="#F6E771"/>
<path d="M172.239 497.457H698.934V499.015H172.239V497.457Z" fill="#F6E772"/>
<path d="M172.239 499.016H698.934V500.574H172.239V499.016Z" fill="#F6E873"/>
<path d="M172.239 500.574H698.934V502.133H172.239V500.574Z" fill="#F6E874"/>
<path d="M172.239 502.137H698.934V503.695H172.239V502.137Z" fill="#F6E975"/>
<path d="M172.239 503.695H698.934V505.254H172.239V503.695Z" fill="#F6E976"/>
<path d="M172.239 505.258H698.934V506.816H172.239V505.258Z" fill="#F6EA77"/>
<path d="M172.239 506.816H698.934V508.375H172.239V506.816Z" fill="#F6EA78"/>
<path d="M172.239 508.381H698.934V509.939H172.239V508.381Z" fill="#F6EB79"/>
<path d="M172.239 509.939H698.934V511.498H172.239V509.939Z" fill="#F6EB7A"/>
<path d="M172.239 511.498H698.934V513.056H172.239V511.498Z" fill="#F6EB7B"/>
<path d="M172.239 513.062H698.934V514.621H172.239V513.062Z" fill="#F6EC7C"/>
<path d="M172.239 514.619H698.934V516.178H172.239V514.619Z" fill="#F6EC7D"/>
<path d="M172.239 516.184H698.934V517.742H172.239V516.184Z" fill="#F6ED7F"/>
<path d="M172.239 517.742H698.934V519.301H172.239V517.742Z" fill="#F6ED80"/>
<path d="M172.239 519.301H698.934V520.859H172.239V519.301Z" fill="#F6EE81"/>
<path d="M172.239 520.863H698.934V522.422H172.239V520.863Z" fill="#F6EE82"/>
<path d="M172.239 522.422H698.934V523.98H172.239V522.422Z" fill="#F6EF83"/>
<path d="M172.239 523.986H698.934V532.56H172.239V523.986Z" fill="#F6EF83"/>
<path d="M-98.0001 350.488H172.239V398.893H-98.0001V350.488Z" fill="#F4C124"/>
<path d="M-98.0001 398.893H172.239V400.208H-98.0001V398.893Z" fill="#F4C124"/>
<path d="M-98.0001 400.207H172.239V401.522H-98.0001V400.207Z" fill="#F4C125"/>
<path d="M-98.0001 401.523H172.239V402.839H-98.0001V401.523Z" fill="#F4C226"/>
<path d="M-98.0001 402.844H172.239V404.159H-98.0001V402.844Z" fill="#F4C226"/>
<path d="M-98.0001 404.16H172.239V405.476H-98.0001V404.16Z" fill="#F4C327"/>
<path d="M-98.0001 405.475H172.239V406.79H-98.0001V405.475Z" fill="#F4C328"/>
<path d="M-98.0001 406.797H172.239V408.112H-98.0001V406.797Z" fill="#F4C429"/>
<path d="M-98.0001 408.111H172.239V409.427H-98.0001V408.111Z" fill="#F4C42A"/>
<path d="M-98.0001 409.426H172.239V410.741H-98.0001V409.426Z" fill="#F4C52B"/>
<path d="M-98.0001 410.748H172.239V412.063H-98.0001V410.748Z" fill="#F4C52C"/>
<path d="M-98.0001 412.062H172.239V413.378H-98.0001V412.062Z" fill="#F4C62C"/>
<path d="M-98.0001 413.379H172.239V414.694H-98.0001V413.379Z" fill="#F4C62D"/>
<path d="M-98.0001 414.699H172.239V416.015H-98.0001V414.699Z" fill="#F4C72E"/>
<path d="M-98.0001 416.014H172.239V417.329H-98.0001V416.014Z" fill="#F4C72F"/>
<path d="M-98.0001 417.328H172.239V418.643H-98.0001V417.328Z" fill="#F4C830"/>
<path d="M-98.0001 418.645H172.239V419.96H-98.0001V418.645Z" fill="#F4C831"/>
<path d="M-98.0001 419.965H172.239V421.28H-98.0001V419.965Z" fill="#F4C932"/>
<path d="M-98.0001 421.281H172.239V422.597H-98.0001V421.281Z" fill="#F4C933"/>
<path d="M-98.0001 422.596H172.239V423.911H-98.0001V422.596Z" fill="#F4CA34"/>
<path d="M-98.0001 423.918H172.239V425.233H-98.0001V423.918Z" fill="#F4CA35"/>
<path d="M-98.0001 425.232H172.239V426.548H-98.0001V425.232Z" fill="#F5CB36"/>
<path d="M-98.0001 426.547H172.239V427.862H-98.0001V426.547Z" fill="#F5CB37"/>
<path d="M-98.0001 427.867H172.239V429.183H-98.0001V427.867Z" fill="#F5CC38"/>
<path d="M-98.0001 429.184H172.239V430.499H-98.0001V429.184Z" fill="#F5CC39"/>
<path d="M-98.0001 430.5H172.239V431.815H-98.0001V430.5Z" fill="#F5CC3A"/>
<path d="M-98.0001 431.814H172.239V433.13H-98.0001V431.814Z" fill="#F5CD3B"/>
<path d="M-98.0001 433.135H172.239V434.45H-98.0001V433.135Z" fill="#F5CD3C"/>
<path d="M-98.0001 434.449H172.239V435.765H-98.0001V434.449Z" fill="#F5CE3D"/>
<path d="M-98.0001 435.766H172.239V437.081H-98.0001V435.766Z" fill="#F5CE3E"/>
<path d="M-98.0001 437.086H172.239V438.401H-98.0001V437.086Z" fill="#F5CF3F"/>
<path d="M-98.0001 438.402H172.239V439.718H-98.0001V438.402Z" fill="#F5CF40"/>
<path d="M-98.0001 439.717H172.239V441.032H-98.0001V439.717Z" fill="#F5D041"/>
<path d="M-98.0001 441.039H172.239V442.354H-98.0001V441.039Z" fill="#F5D042"/>
<path d="M-98.0001 442.352H172.239V443.667H-98.0001V442.352Z" fill="#F5D142"/>
<path d="M-98.0001 443.668H172.239V444.983H-98.0001V443.668Z" fill="#F5D143"/>
<path d="M-98.0001 444.988H172.239V446.304H-98.0001V444.988Z" fill="#F5D244"/>
<path d="M-98.0001 446.305H172.239V447.62H-98.0001V446.305Z" fill="#F5D245"/>
<path d="M-98.0001 447.621H172.239V448.936H-98.0001V447.621Z" fill="#F5D346"/>
<path d="M-98.0001 448.936H172.239V450.251H-98.0001V448.936Z" fill="#F5D347"/>
<path d="M-98.0001 450.256H172.239V451.571H-98.0001V450.256Z" fill="#F5D448"/>
<path d="M-98.0001 451.57H172.239V452.886H-98.0001V451.57Z" fill="#F5D449"/>
<path d="M-98.0001 452.887H172.239V454.202H-98.0001V452.887Z" fill="#F5D54A"/>
<path d="M-98.0001 454.207H172.239V455.522H-98.0001V454.207Z" fill="#F5D54B"/>
<path d="M-98.0001 455.523H172.239V456.839H-98.0001V455.523Z" fill="#F5D64C"/>
<path d="M-98.0001 456.838H172.239V458.153H-98.0001V456.838Z" fill="#F5D64D"/>
<path d="M-98.0001 458.158H172.239V459.474H-98.0001V458.158Z" fill="#F5D74E"/>
<path d="M-98.0001 459.473H172.239V460.788H-98.0001V459.473Z" fill="#F5D74F"/>
<path d="M-98.0001 460.789H172.239V462.104H-98.0001V460.789Z" fill="#F5D850"/>
<path d="M-98.0001 462.105H172.239V463.421H-98.0001V462.105Z" fill="#F5D851"/>
<path d="M-98.0001 463.426H172.239V464.741H-98.0001V463.426Z" fill="#F5D952"/>
<path d="M-98.0001 464.74H172.239V466.056H-98.0001V464.74Z" fill="#F5D953"/>
<path d="M-98.0001 466.055H172.239V467.37H-98.0001V466.055Z" fill="#F5DA54"/>
<path d="M-98.0001 467.377H172.239V468.692H-98.0001V467.377Z" fill="#F5DA55"/>
<path d="M-98.0001 468.691H172.239V470.007H-98.0001V468.691Z" fill="#F5DB56"/>
<path d="M-98.0001 470.008H172.239V471.323H-98.0001V470.008Z" fill="#F5DB57"/>
<path d="M-98.0001 471.328H172.239V472.643H-98.0001V471.328Z" fill="#F5DC59"/>
<path d="M-98.0001 472.643H172.239V473.958H-98.0001V472.643Z" fill="#F5DC5A"/>
<path d="M-98.0001 473.959H172.239V475.274H-98.0001V473.959Z" fill="#F5DC5B"/>
<path d="M-98.0001 475.279H172.239V476.595H-98.0001V475.279Z" fill="#F5DD5C"/>
<path d="M-98.0001 476.594H172.239V477.909H-98.0001V476.594Z" fill="#F5DD5D"/>
<path d="M-98.0001 477.91H172.239V479.226H-98.0001V477.91Z" fill="#F5DE5E"/>
<path d="M-98.0001 479.227H172.239V480.542H-98.0001V479.227Z" fill="#F5DE5F"/>
<path d="M-98.0001 480.547H172.239V481.862H-98.0001V480.547Z" fill="#F5DF60"/>
<path d="M-98.0001 481.861H172.239V483.177H-98.0001V481.861Z" fill="#F5DF61"/>
<path d="M-98.0001 483.176H172.239V484.491H-98.0001V483.176Z" fill="#F5E062"/>
<path d="M-98.0001 484.498H172.239V485.813H-98.0001V484.498Z" fill="#F5E063"/>
<path d="M-98.0001 485.812H172.239V487.128H-98.0001V485.812Z" fill="#F5E164"/>
<path d="M-98.0001 487.129H172.239V488.444H-98.0001V487.129Z" fill="#F5E165"/>
<path d="M-98.0001 488.449H172.239V489.765H-98.0001V488.449Z" fill="#F5E266"/>
<path d="M-98.0001 489.766H172.239V491.081H-98.0001V489.766Z" fill="#F5E267"/>
<path d="M-98.0001 491.08H172.239V492.395H-98.0001V491.08Z" fill="#F5E368"/>
<path d="M-98.0001 492.4H172.239V493.716H-98.0001V492.4Z" fill="#F5E369"/>
<path d="M-98.0001 493.717H172.239V495.032H-98.0001V493.717Z" fill="#F5E46A"/>
<path d="M-98.0001 495.031H172.239V496.347H-98.0001V495.031Z" fill="#F5E46B"/>
<path d="M-98.0001 496.348H172.239V497.663H-98.0001V496.348Z" fill="#F5E56C"/>
<path d="M-98.0001 497.668H172.239V498.983H-98.0001V497.668Z" fill="#F5E56D"/>
<path d="M-98.0001 498.982H172.239V500.298H-98.0001V498.982Z" fill="#F5E66E"/>
<path d="M-98.0001 500.297H172.239V501.612H-98.0001V500.297Z" fill="#F5E66F"/>
<path d="M-98.0001 501.617H172.239V502.933H-98.0001V501.617Z" fill="#F6E771"/>
<path d="M-98.0001 502.934H172.239V504.249H-98.0001V502.934Z" fill="#F6E772"/>
<path d="M-98.0001 504.25H172.239V505.565H-98.0001V504.25Z" fill="#F6E873"/>
<path d="M-98.0001 505.57H172.239V506.886H-98.0001V505.57Z" fill="#F6E874"/>
<path d="M-98.0001 506.887H172.239V508.202H-98.0001V506.887Z" fill="#F6E975"/>
<path d="M-98.0001 508.201H172.239V509.517H-98.0001V508.201Z" fill="#F6E976"/>
<path d="M-98.0001 509.516H172.239V510.831H-98.0001V509.516Z" fill="#F6EA77"/>
<path d="M-98.0001 510.836H172.239V512.151H-98.0001V510.836Z" fill="#F6EA78"/>
<path d="M-98.0001 512.152H172.239V513.468H-98.0001V512.152Z" fill="#F6EB79"/>
<path d="M-98.0001 513.469H172.239V514.784H-98.0001V513.469Z" fill="#F6EB7A"/>
<path d="M-98.0001 514.789H172.239V516.104H-98.0001V514.789Z" fill="#F6EB7B"/>
<path d="M-98.0001 516.104H172.239V517.419H-98.0001V516.104Z" fill="#F6EC7C"/>
<path d="M-98.0001 517.42H172.239V518.735H-98.0001V517.42Z" fill="#F6EC7D"/>
<path d="M-98.0001 518.738H172.239V520.054H-98.0001V518.738Z" fill="#F6ED7F"/>
<path d="M-98.0001 520.055H172.239V521.37H-98.0001V520.055Z" fill="#F6ED80"/>
<path d="M-98.0001 521.371H172.239V522.687H-98.0001V521.371Z" fill="#F6EE81"/>
<path d="M-98.0001 522.691H172.239V524.007H-98.0001V522.691Z" fill="#F6EE82"/>
<path d="M-98.0001 524.008H172.239V525.323H-98.0001V524.008Z" fill="#F6EF83"/>
<path d="M-98.0001 525.32H172.239V532.557H-98.0001V525.32Z" fill="#F6EF83"/>
<path d="M168.178 381.973H176.977V400.324H168.178V381.973Z" fill="#F6EF83"/>
<path d="M286.14 331.82H294.938V350.172H286.14V331.82Z" fill="#F6EF83"/>
<path d="M143.338 409.852H152.137V428.203H143.338V409.852Z" fill="#F6EF83"/>
<path d="M115.41 378.768H124.208V397.119H115.41V378.768Z" fill="#F6EF83"/>
<path d="M77.9226 223.782C74.5281 225.06 72.3233 228.8 71.8686 232.292C71.1442 230.359 69.1456 229.239 67.2315 228.468C64.0009 226.693 59.3005 227.855 58.8352 231.906C58.1108 230.364 57.9627 228.531 59.2846 227.289C62.0234 223.998 67.7444 223.703 70.2136 227.448C72.5189 225.631 74.4858 223.222 77.1242 221.891C80.2438 220.565 83.9397 223.296 83.5802 226.645C83.6806 225.425 78.8426 223.639 77.9226 223.782Z" fill="#663915"/>
<path d="M257.134 439.312C254.263 441.526 253.258 445.747 253.85 449.217C252.592 447.585 250.35 447.104 248.293 446.93C244.682 446.185 240.547 448.668 241.282 452.683C240.135 451.42 239.453 449.709 240.351 448.14C242.001 444.188 247.394 442.218 250.842 445.076C252.512 442.662 253.681 439.793 255.812 437.738C258.403 435.551 262.738 437.073 263.389 440.379C263.124 439.223 257.974 438.937 257.134 439.312Z" fill="#663915"/>
<path d="M177.891 322.392C174.534 321.309 170.589 322.82 168.131 325.208C168.749 323.296 167.909 321.235 166.915 319.492C165.535 316.191 161.268 314.236 158.455 317.03C158.836 315.419 159.835 313.93 161.59 313.787C165.667 312.942 170.209 316.185 169.812 320.522C172.667 320.522 175.628 319.883 178.431 320.469C181.603 321.346 182.766 325.657 180.45 328.008C181.259 327.141 178.663 322.857 177.891 322.392Z" fill="#663915"/>
<path d="M270.13 176.206C267.629 177.331 266.144 180.257 265.974 182.915C265.335 181.488 263.77 180.738 262.273 180.273C259.751 179.085 256.272 180.184 256.103 183.269C255.479 182.133 255.278 180.759 256.219 179.761C258.128 177.12 262.442 176.649 264.478 179.359C266.128 177.88 267.497 175.963 269.422 174.838C269.973 174.588 270.577 174.481 271.181 174.526C271.784 174.57 272.366 174.766 272.874 175.094C273.382 175.422 273.799 175.872 274.087 176.403C274.376 176.935 274.526 177.53 274.524 178.134C274.556 177.188 270.823 176.068 270.13 176.206Z" fill="#663915"/>
<path d="M89.6973 177.605C89.6973 177.605 88.349 188.429 75.9025 191.805L80.6611 185.466L89.6973 177.605Z" fill="white"/>
<path d="M70.9482 186.423C74.2161 186.78 77.5226 186.46 80.6611 185.482C79.7781 188.42 78.3135 191.05 75.9025 191.822L70.9482 186.423Z" fill="white"/>
<path d="M89.6973 177.606C87.6881 182.064 84.1403 184.341 80.6665 185.482C82.0782 180.812 82.0253 175.355 82.0253 175.355L89.6973 177.606Z" fill="#BFD2E0"/>
<path d="M207.696 325.117C207.696 325.117 206.348 335.941 193.901 339.317L198.66 332.978L207.696 325.117Z" fill="white"/>
<path d="M188.953 333.933C192.222 334.289 195.531 333.969 198.671 332.992C197.783 335.929 196.318 338.56 193.912 339.331L188.953 333.933Z" fill="white"/>
<path d="M207.696 325.118C205.687 329.576 202.139 331.853 198.671 332.994C200.077 328.324 200.03 322.867 200.03 322.867L207.696 325.118Z" fill="#BFD2E0"/>
<path d="M221.428 430.578C221.428 430.578 220.079 441.397 207.633 444.773L212.392 438.433L221.428 430.578Z" fill="white"/>
<path d="M202.684 439.397C205.952 439.75 209.258 439.428 212.397 438.451C211.514 441.394 210.049 444.019 207.638 444.79L202.684 439.397Z" fill="white"/>
<path d="M221.428 430.58C219.419 435.033 215.871 437.31 212.397 438.451C213.809 433.781 213.756 428.324 213.756 428.324L221.428 430.58Z" fill="#BFD2E0"/>
<path d="M55.1919 373.051C55.1919 373.051 53.7008 385.032 39.9165 388.772L45.2039 381.772L55.1919 373.051Z" fill="white"/>
<path d="M34.4387 382.814C38.06 383.202 41.7223 382.842 45.1987 381.758C44.2153 385.012 42.5973 387.917 39.9113 388.757L34.4387 382.814Z" fill="white"/>
<path d="M55.1919 373.052C52.9659 377.986 49.0373 380.511 45.1986 381.774C46.7531 376.602 46.7003 370.559 46.7003 370.559L55.1919 373.052Z" fill="#BFD2E0"/>
<path d="M47.1392 211.826C47.1392 211.826 29.7966 196.892 42.2325 183.58L44.4955 203.036L47.1392 211.826Z" fill="#DC3165"/>
<path d="M47.1389 211.827C44.7542 210.19 44.2149 206.751 44.4952 203.037C47.1519 205.563 50.1339 207.723 53.3623 209.461L47.1389 211.827Z" fill="#DC3165"/>
<path d="M44.4954 203.036C39.5887 198.255 35.6761 191.25 42.2324 183.58L47.9321 189.275C47.9321 189.275 44.9765 196.565 44.4954 203.036Z" fill="#C61851"/>
<path d="M273.467 398.398C273.467 398.398 284.443 418.472 268.116 426.565L272.848 407.548L273.467 398.398Z" fill="#DC3165"/>
<path d="M273.467 398.396C275.122 400.763 274.413 404.176 272.848 407.551C271.255 404.255 269.23 401.185 266.826 398.423L273.467 398.396Z" fill="#DC3165"/>
<path d="M272.848 407.551C275.756 413.753 276.951 421.682 268.116 426.568L264.785 419.231C264.785 419.231 270.12 413.425 272.848 407.551Z" fill="#C61851"/>
<path d="M47.8052 140.785L56.0006 143.506C56.0376 148.191 57.2749 151.498 59.0303 153.839C51.5698 150.257 47.8052 140.785 47.8052 140.785Z" fill="#298BBD"/>
<path d="M71.1279 159.465C71.1279 159.465 56.1329 163.162 47.8053 140.785L59.0304 153.839L71.1279 159.465Z" fill="#298BBD"/>
<path d="M68.7116 154.646L71.1279 159.464C71.1279 159.464 63.4454 159.728 59.0304 153.838C62.0441 155.302 65.4964 155.59 68.7116 154.646Z" fill="#186AAB"/>
<path d="M198.322 381.557L190.634 377.632C191.305 372.999 190.581 369.539 189.201 366.961C196.032 371.625 198.322 381.557 198.322 381.557Z" fill="#298BBD"/>
<path d="M178.092 359.574C178.092 359.574 193.473 358.19 198.322 381.555L189.201 366.959L178.092 359.574Z" fill="#298BBD"/>
<path d="M179.752 364.698L178.092 359.574C178.092 359.574 185.722 360.472 189.196 366.97C186.44 365.066 183.073 364.257 179.752 364.698V364.698Z" fill="#186AAB"/>
<path d="M-38.7866 371.165V531.593H105.687C105.687 531.519 105.655 531.445 105.634 531.376C101.932 517.319 89.8613 505.814 75.6329 502.824C80.2435 500.415 83.5006 495.877 84.8013 490.859C85.4472 488.422 85.6018 485.881 85.256 483.384C85.0584 482.003 84.6889 480.653 84.1562 479.364C82.9929 476.617 81.152 474.209 78.8054 472.364C76.4777 470.514 73.7694 469.201 70.8742 468.519C68.2923 467.904 65.607 467.861 63.0066 468.392C62.4778 468.497 62.0125 468.624 61.5208 468.777C62.3572 467.647 63.0665 466.428 63.6358 465.143C64.9444 462.149 65.5624 458.899 65.4441 455.634C65.38 453.631 65.0583 451.644 64.487 449.723C63.8476 447.558 62.8755 445.505 61.6054 443.637C61.2459 443.109 60.8546 442.581 60.4475 442.1C59.0417 440.42 57.3933 438.958 55.5566 437.763C55.1389 437.489 54.7159 437.235 54.2824 436.987L54.0656 436.865C52.0726 435.761 49.9379 434.935 47.7207 434.409C44.9161 433.738 42.0182 433.547 39.1498 433.843C37.4992 434.012 35.8706 434.352 34.2906 434.858C35.3481 432.042 36.3686 429.2 37.3045 426.326C37.939 424.372 38.5259 422.396 39.0229 420.415C39.788 417.483 40.3044 414.491 40.5668 411.472C40.7035 409.806 40.7371 408.134 40.6673 406.464C40.6673 406.02 40.625 405.582 40.5827 405.143C40.2132 400.802 39.0746 396.561 37.2199 392.618C36.3206 390.69 35.2593 388.841 34.0474 387.092C33.041 385.629 31.9332 384.238 30.7322 382.93C28.3591 380.335 25.6195 378.099 22.6002 376.295C17.298 373.219 11.3247 371.481 5.1984 371.234C-0.927885 370.986 -7.02218 372.236 -12.5558 374.874C-14.491 375.819 -16.5055 376.987 -18.6363 376.717C-20.5239 376.495 -22.089 375.233 -23.6963 374.224C-28.2118 371.35 -33.5256 370.5 -38.7866 371.165Z" fill="#8DAF41"/>
<path d="M-38.7869 383.59V531.577H80.5659C80.7033 530.242 80.7862 528.897 80.8144 527.541C80.8672 524.937 80.7298 522.259 79.8521 519.866C78.673 516.627 76.2725 514.187 73.7504 512.19C66.8281 506.614 58.1764 503.625 49.2855 503.738C51.1375 501.228 52.4155 498.343 53.029 495.285C53.7795 491.839 53.5729 488.253 52.4316 484.916C52.4316 484.847 52.384 484.778 52.3575 484.71C50.0205 478.471 43.4694 474.414 37.8224 476.49C40.2059 473.943 41.7505 470.728 42.248 467.277C42.9507 463.299 42.3499 459.201 40.5349 455.592L40.3181 455.19C39.0049 452.884 37.0873 450.979 34.7716 449.681C34.4495 449.488 34.1177 449.311 33.7776 449.152C31.462 448.055 28.8802 447.645 26.3382 447.969C24.922 448.154 23.5503 448.59 22.288 449.258C22.2249 441.402 20.7713 433.619 17.9947 426.268C17.7197 425.539 17.4236 424.821 17.1116 424.107C16.5617 422.829 15.9643 421.579 15.3192 420.357C14.1467 418.114 12.8032 415.965 11.3008 413.928C7.2231 408.331 1.79089 403.86 -4.48743 400.933C-8.69072 398.991 -13.2708 397.999 -17.9016 398.027C-18.9115 398.027 -19.9584 398.096 -20.8731 397.621C-22.0152 397.024 -22.7237 395.729 -23.4534 394.567C-24.0496 393.624 -24.7084 392.722 -25.4256 391.868C-28.9097 387.788 -33.5801 384.894 -38.7869 383.59V383.59Z" fill="#77932A"/>
<g opacity="0.5">
<path opacity="0.5" d="M19.7824 385.586C14.6641 381.36 8.00729 379.305 1.38747 378.719C-2.31179 378.344 -6.04871 378.681 -9.62087 379.712C-13.5864 380.937 -12.6981 386.754 -8.56339 386.706C-1.84839 386.627 4.91948 385.988 10.9313 388.74C13.9984 390.191 16.6238 392.432 18.5379 395.232C20.452 398.032 21.586 401.29 21.8233 404.672C21.8973 406.035 21.8233 407.435 22.2621 408.729C22.7756 410.11 23.801 411.241 25.1259 411.887C26.4508 412.533 27.9736 412.645 29.379 412.2C30.6057 411.762 28.2263 399.416 27.8351 398.053C26.4607 393.186 23.6554 388.843 19.7824 385.586V385.586Z" fill="#F6EF83"/>
</g>
<g opacity="0.5">
<path opacity="0.5" d="M84.8649 517.659C87.4716 519.877 90.311 521.885 91.5958 525.054C92.3813 527.141 92.4611 529.427 91.8232 531.563H95.7887C96.204 529.971 96.3311 528.318 96.1641 526.681C95.7729 523.158 93.9804 520.057 91.6592 517.579C90.3735 516.178 88.806 515.064 87.0592 514.309C85.0817 513.512 83.2576 516.285 84.8649 517.659Z" fill="#F6EF83"/>
</g>
<path d="M58.3063 516.437C58.6605 515.185 58.7874 513.627 57.8463 512.766C57.2549 512.33 56.5452 512.083 55.8106 512.058C50.4016 511.339 44.6013 510.69 39.7581 513.315C37.1514 514.731 35.0628 516.981 33.0272 519.195C31.7212 520.605 30.3147 522.533 31.055 524.34C31.7159 525.962 33.6987 526.384 35.3695 526.532C44.4638 527.319 55.0809 527.747 58.3063 516.437Z" fill="#8DAF41"/>
<path d="M-11.1757 472.592L-10.6469 471.741L-9.85381 470.51C-9.40614 469.806 -8.96022 469.102 -8.51608 468.397C-7.93975 467.494 -7.36871 466.585 -6.79238 465.671L-6.71835 465.555L-4.97354 462.766L-3.24984 459.971C-2.36685 458.545 -1.49442 457.103 -0.606138 455.661C-0.547976 455.566 -0.489779 455.476 -0.436905 455.381C1.54059 452.099 3.49161 448.792 5.41623 445.46C7.19985 442.368 8.96232 439.258 10.7036 436.131C12.9032 432.148 15.0428 428.14 17.1226 424.108C17.7676 422.856 18.4074 421.609 19.0419 420.357C20.6352 417.188 22.1862 414.018 23.6948 410.848C25.3163 407.425 26.8866 403.997 28.4059 400.563C30.3975 396.052 32.2816 391.537 34.0581 387.018C34.7949 385.152 35.4998 383.287 36.1731 381.424C38.2881 375.729 40.1986 370.051 41.9046 364.388C41.9892 364.108 42.0738 363.828 42.1478 363.553C43.7235 358.271 45.0947 353.011 46.2615 347.774C46.8078 345.309 47.3031 342.865 47.7473 340.442C47.9799 339.167 48.2108 337.897 48.4399 336.633C48.6831 335.27 48.9316 333.912 49.1695 332.56C63.6359 251.118 68.4897 184.388 70.0019 156.422C70.1288 154.05 70.2346 151.947 70.3192 150.151C70.3456 149.533 70.3721 148.952 70.3985 148.403C70.573 144.393 70.6311 142.27 70.6311 142.27H86.9481C86.9481 142.27 86.9481 143.115 87.0327 144.747C87.0644 145.698 87.112 146.917 87.1754 148.403C87.1754 148.931 87.2283 149.533 87.2601 150.151C88.3175 173.162 92.7061 244.182 108.41 332.56C108.653 333.912 108.896 335.275 109.145 336.633C109.37 337.901 109.601 339.17 109.837 340.442C110.281 342.877 110.778 345.312 111.323 347.763C112.486 352.993 113.856 358.256 115.431 363.553C121.025 382.407 129.089 401.588 138.569 420.341C141.297 425.751 144.138 431.123 147.092 436.459C148.703 439.378 150.344 442.283 152.015 445.175C153.982 448.594 155.984 451.989 158.021 455.36C175.153 483.759 194.156 510.066 210.896 531.535H154.431C151.94 528.578 149.293 525.757 146.5 523.083C125.982 503.315 105.408 492.56 84.7802 490.817C73.9908 489.941 63.1412 491.46 53.0082 495.265C39.0071 500.368 25.0273 509.64 11.0685 523.083C8.27583 525.757 5.62834 528.578 3.13739 531.535H-38.7865V512.407C-29.6869 500.114 -20.2806 486.707 -11.1757 472.592ZM70.6629 364.129C70.2081 367.43 69.6583 370.822 69.0766 374.261C66.2003 390.637 61.9492 407.969 58.671 420.378C56.7094 427.774 55.0967 433.453 54.3301 436.089C54.2507 436.369 54.1767 436.617 54.1133 436.828L53.8542 437.726H103.831C103.831 437.726 103.503 436.617 102.932 434.636C102.075 431.635 100.669 426.627 99.0192 420.373C95.445 406.849 90.7233 387.515 87.9157 370.135C87.5879 368.101 87.2812 366.094 87.0116 364.124L70.6629 364.129Z" fill="#975E36"/>
<path d="M157.984 455.598H-0.389544L-8.27832 420.379H165.873L157.984 455.598Z" fill="#975E36"/>
<path d="M122.384 332.592L115.437 363.59L115.315 364.129H42.2801L42.1585 363.585L35.2109 332.592H122.384Z" fill="#975E36"/>
<path d="M65.9095 137.04H91.6909V150.183H65.9095V137.04Z" fill="#975E36"/>
<path d="M78.8003 97.8799C78.8003 97.8799 76.9603 130.204 73.7985 137.04H83.7969C80.6403 130.204 78.8003 97.8799 78.8003 97.8799Z" fill="#663915"/>
<path d="M-0.384005 520.662L-15.379 499.77H27.2373C27.2373 499.77 11.4439 505.665 -0.384005 520.662Z" fill="#663915"/>
<path d="M-11.1757 493.448L9.34466 458.229L42.2324 493.448H-11.1757Z" fill="#663915"/>
<path d="M49.3335 489.766L15.5311 455.598H71.1704L49.3335 489.766Z" fill="#663915"/>
<path d="M78.8003 455.598L59.5963 486.876C65.6609 484.265 72.1967 482.924 78.8003 482.935V455.598Z" fill="#663915"/>
<path d="M24.345 420.378H53.8064C53.8064 420.378 59.3318 406.052 59.6226 400.928L24.345 420.378Z" fill="#663915"/>
<path d="M41.9679 380.414L30.1294 410.652L60.5161 394.487L41.9679 380.414Z" fill="#663915"/>
<path d="M61.5684 389.365L44.0721 376.486L67.3369 364.262C67.3369 364.262 64.5822 379.698 61.5684 389.365Z" fill="#663915"/>
<path d="M61.6108 364.129H45.3204L43.0151 372.211L61.6108 364.129Z" fill="#663915"/>
<path d="M52.3156 332.593H78.7949V299.65L52.3156 332.593Z" fill="#663915"/>
<path d="M55.7155 320.153L65.09 261.605L78.7949 291.061L55.7155 320.153Z" fill="#663915"/>
<path d="M78.7949 277.395L67.2526 255.318L78.7949 226.93V277.395Z" fill="#663915"/>
<path d="M67.2526 242.44L71.1705 196.967L78.7949 215.894L67.2526 242.44Z" fill="#663915"/>
<path d="M71.8684 190.658L78.7949 206.955V172.787L71.8684 190.658Z" fill="#663915"/>
<path d="M71.8684 180.67L73.0263 150.184L78.7949 165.429L71.8684 180.67Z" fill="#663915"/>
<path d="M78.7949 150.184V158.921L75.3317 150.184H78.7949Z" fill="#663915"/>
<path d="M161.141 529.327L167.739 531.577H197.74L177.717 505.666L161.141 529.327Z" fill="#663915"/>
<path d="M157.984 520.662L172.979 499.77H130.363C130.363 499.77 146.146 505.665 157.984 520.662Z" fill="#663915"/>
<path d="M168.771 493.448L148.25 458.229L115.362 493.448H168.771Z" fill="#663915"/>
<path d="M108.262 489.766L142.069 455.598H86.4246L108.262 489.766Z" fill="#663915"/>
<path d="M78.8002 455.598L98.0039 486.876C91.9394 484.265 85.4037 482.924 78.8002 482.935V455.598Z" fill="#663915"/>
<path d="M133.255 420.378H103.793C103.793 420.378 98.2681 406.052 97.9773 400.928L133.255 420.378Z" fill="#663915"/>
<path d="M115.627 380.414L127.465 410.652L97.0839 394.487L115.627 380.414Z" fill="#663915"/>
<path d="M96.0424 389.365L113.533 376.486L90.2686 364.262C90.2686 364.262 93.018 379.698 96.0424 389.365Z" fill="#663915"/>
<path d="M95.9842 364.129H112.275L114.58 372.211L95.9842 364.129Z" fill="#663915"/>
<path d="M105.279 332.593H78.7947V299.65L105.279 332.593Z" fill="#663915"/>
<path d="M101.88 320.153L92.5053 261.605L78.795 291.061L101.88 320.153Z" fill="#663915"/>
<path d="M78.795 277.395L90.3428 255.318L78.795 226.93V277.395Z" fill="#663915"/>
<path d="M90.3428 242.44L86.4248 196.967L78.795 215.894L90.3428 242.44Z" fill="#663915"/>
<path d="M85.7266 190.658L78.7947 206.955V172.787L85.7266 190.658Z" fill="#663915"/>
<path d="M85.7266 180.67L84.5686 150.184L78.7947 165.429L85.7266 180.67Z" fill="#663915"/>
<path d="M78.795 150.184V158.921L82.2637 150.184H78.795Z" fill="#663915"/>
<path d="M82.0834 360.057H75.5059V336.665H82.0834V360.057Z" fill="#663915"/>
<path d="M77.5946 138.794H80.1538V148.429H77.5946V138.794Z" fill="#663915"/>
<path d="M72.8677 138.794H75.4268V148.429H72.8677V138.794Z" fill="#663915"/>
<path d="M68.1459 138.794H70.7051V148.429H68.1459V138.794Z" fill="#663915"/>
<path d="M87.0433 138.794H89.6025V148.429H87.0433V138.794Z" fill="#663915"/>
<path d="M82.3164 138.794H84.8755V148.429H82.3164V138.794Z" fill="#663915"/>
<path d="M68.8438 360.055H62.2661L59.6383 336.664H66.2106L68.8438 360.055Z" fill="#663915"/>
<path d="M55.6045 360.055H49.0269L43.766 336.664H50.3435L55.6045 360.055Z" fill="#663915"/>
<path d="M88.7511 360.055H95.3287L97.9565 336.664H91.3843L88.7511 360.055Z" fill="#663915"/>
<path d="M101.996 360.055H108.568L113.834 336.664H107.257L101.996 360.055Z" fill="#663915"/>
<path d="M82.0834 449.688H75.5059V426.296H82.0834V449.688Z" fill="#663915"/>
<path d="M68.1884 449.688H61.6108V426.296H68.1884V449.688Z" fill="#663915"/>
<path d="M54.293 449.688H47.7153V426.296H54.293V449.688Z" fill="#663915"/>
<path d="M40.3872 449.686H33.8096L31.9696 426.289H38.5472L40.3872 449.686Z" fill="#663915"/>
<path d="M26.4917 449.686H19.9141L17.7622 426.289H24.3397L26.4917 449.686Z" fill="#663915"/>
<path d="M12.5913 449.686H6.01383L2.7251 426.289H9.30257L12.5913 449.686Z" fill="#663915"/>
<path d="M151.164 449.686H144.586L149.038 426.289H155.616L151.164 449.686Z" fill="#663915"/>
<path d="M137.269 449.686H130.691L133.255 426.289H139.833L137.269 449.686Z" fill="#663915"/>
<path d="M123.368 449.686H116.79L118.784 426.289H125.361L123.368 449.686Z" fill="#663915"/>
<path d="M109.473 449.688H102.895V426.296H109.473V449.688Z" fill="#663915"/>
<path d="M95.5663 449.688H88.9888V426.296H95.5663V449.688Z" fill="#663915"/>
<g opacity="0.5">
<path opacity="0.5" d="M157.984 455.598L-11.1703 472.682V472.592C-7.59599 467.056 -4.07106 461.421 -0.595471 455.687L-0.378669 455.603L157.984 455.598Z" fill="#3A1A09"/>
</g>
<g opacity="0.5">
<path opacity="0.5" d="M70.6631 364.129C70.2084 367.431 69.6585 370.822 69.0769 374.266L65.2223 375.106L47.5148 378.984L36.2262 381.451C38.3412 375.759 40.2517 370.081 41.9577 364.414L42.3226 364.129H70.6631Z" fill="#3A1A09"/>
</g>
<g opacity="0.5">
<path opacity="0.5" d="M115.315 364.129L112.455 364.758L102.467 366.945L97.4489 368.043L91.2309 369.406L87.8628 370.141C87.5314 368.105 87.2283 366.101 86.9534 364.129H115.315Z" fill="#3A1A09"/>
</g>
<g opacity="0.5">
<path opacity="0.5" d="M87.2705 150.184L70.0125 156.454C70.1393 154.082 70.2451 151.985 70.3297 150.184H87.2705Z" fill="#3A1A09"/>
</g>
<path d="M267.883 528.058C269.901 522.273 273.3 517.068 277.788 512.893C282.275 508.718 287.714 505.7 293.633 504.102C303.097 501.645 313.085 503.013 322.761 504.403C317.965 496.083 318.447 484.857 324.384 477.313C330.322 469.77 341.553 466.711 350.293 470.694C345.804 462.733 348.4 451.55 355.929 446.394C359.768 443.854 364.417 442.835 368.968 443.536C373.514 444.111 377.686 446.351 380.674 449.823C380.626 435.29 389.361 421.075 402.352 414.545C405.872 412.739 409.589 411.346 413.43 410.393C432.073 405.951 445.27 416.463 454.671 431.735C463.21 445.575 468.641 463.325 472.194 477.372C472.546 478.826 472.899 480.235 473.251 481.598C475.223 489.78 477.016 498.101 478.01 506.458C478.953 513.891 479.012 521.409 478.184 528.856C478.073 529.77 477.946 530.684 477.804 531.592H266.91C267.173 530.398 267.498 529.219 267.883 528.058V528.058ZM418.987 517.044C419.593 517.637 420.312 518.102 421.101 518.412C421.89 518.723 422.733 518.872 423.581 518.851C424.639 518.793 425.696 518.698 426.754 518.56C427.166 518.56 427.573 518.56 427.986 518.56C428.708 519.162 429.539 519.621 430.434 519.913C434.019 521.069 437.73 518.55 438.798 515.158C438.873 514.931 438.941 514.699 439.015 514.471C439.433 514.213 439.851 513.943 440.253 513.653C444.281 510.828 447.504 507.005 449.606 502.559C449.958 501.82 450.283 501.059 450.579 500.277C452.271 495.845 451.721 490.478 449.997 486.146C446.206 476.637 437.715 468.185 427.029 467.535C426.153 467.508 425.281 467.668 424.472 468.006C423.663 468.343 422.936 468.849 422.339 469.49C421.457 469.708 420.628 470.1 419.901 470.645C419.174 471.189 418.565 471.875 418.109 472.659C417.977 472.902 417.85 473.151 417.728 473.399C417.388 473.237 417.034 473.106 416.671 473.008C414.979 472.575 413.189 472.752 411.616 473.51C411.452 473.595 411.299 473.684 411.145 473.779C409.955 472.898 408.528 472.394 407.048 472.332C403.267 472.163 400.391 475.576 400.243 479.125C400.142 481.566 400.126 484.017 400.243 486.458V505.581C400.256 507.217 400.861 508.794 401.945 510.02C403.029 511.247 404.52 512.042 406.143 512.258C407.35 512.408 408.575 512.24 409.697 511.772C409.977 512.031 410.262 512.3 410.553 512.522C413.055 514.534 415.907 516.067 418.965 517.044H418.987Z" fill="#8DAF41"/>
<path d="M307.115 531.229C315.131 522.159 326.948 515.91 339.406 513.11C334.901 507.753 335.81 499.264 341.431 494.256C347.051 489.248 356.664 488.34 362.792 492.243C359.588 487.167 362.184 479.914 367.804 476.322C369.056 475.53 370.402 474.9 371.812 474.446C376.83 472.876 382.25 473.199 387.045 475.355C385.081 466.689 386.203 457.61 390.218 449.681C391.651 446.808 393.538 443.95 396.462 442.117C398.63 440.759 401.221 440.067 403.775 439.576C406.104 439.125 408.463 438.846 410.833 438.741C418.529 438.391 426.209 439.701 433.352 442.582C434.41 443.015 435.467 443.474 436.525 443.971C450.579 450.733 458.462 461.884 461.904 474.906C462.65 477.734 463.196 480.612 463.538 483.517C464.409 490.856 465.114 498.204 465.653 505.561C466.288 514.214 466.663 522.888 466.779 531.583H306.793C306.909 531.456 307.01 531.34 307.115 531.229ZM418.965 517.051C419.571 517.643 420.29 518.109 421.08 518.419C421.869 518.729 422.712 518.878 423.56 518.857C424.617 518.799 425.675 518.704 426.732 518.567C427.145 518.567 427.552 518.567 427.964 518.567C428.687 519.169 429.518 519.628 430.412 519.919C433.997 521.076 437.709 518.556 438.777 515.165C438.851 514.938 438.92 514.705 438.994 514.478C439.412 514.219 439.829 513.95 440.231 513.659C444.26 510.835 447.483 507.012 449.585 502.566C449.937 501.826 450.261 501.065 450.558 500.284C452.25 495.851 451.7 490.484 449.976 486.153C446.185 476.644 437.693 468.192 427.007 467.542C426.131 467.515 425.26 467.675 424.451 468.012C423.642 468.349 422.915 468.855 422.318 469.496C421.436 469.714 420.607 470.107 419.88 470.652C419.153 471.196 418.544 471.881 418.088 472.666C417.955 472.909 417.829 473.157 417.707 473.406C417.367 473.244 417.013 473.113 416.649 473.015C414.958 472.581 413.168 472.759 411.595 473.517C411.431 473.601 411.277 473.691 411.124 473.786C409.934 472.905 408.506 472.401 407.026 472.339C403.246 472.17 400.369 475.582 400.221 479.132C400.121 481.573 400.105 484.024 400.221 486.464V505.587C400.235 507.224 400.839 508.8 401.924 510.027C403.008 511.254 404.499 512.048 406.122 512.265C407.329 512.414 408.553 512.247 409.675 511.779C409.955 512.037 410.241 512.307 410.532 512.529C413.04 514.541 415.899 516.072 418.965 517.045V517.051Z" fill="#77932A"/>
<g opacity="0.5">
<path opacity="0.5" d="M276.343 531.578H284.586C287.071 527.341 291.092 524.222 295.817 522.867C297.138 522.502 298.518 522.275 299.703 521.588C300.944 520.795 301.834 519.557 302.189 518.128C302.544 516.699 302.338 515.189 301.612 513.908C300.924 512.803 289.334 517.7 288.081 518.371C283.606 520.735 279.945 524.386 277.57 528.852C277.107 529.735 276.697 530.646 276.343 531.578V531.578Z" fill="#F6EF83"/>
</g>
<g opacity="0.5">
<path opacity="0.5" d="M399.746 424.746C396.377 425.86 393.718 428.259 391.777 431.048C390.672 432.594 389.907 434.356 389.536 436.22C389.155 438.333 392.248 439.532 393.237 437.667C394.865 434.661 396.229 431.471 399.085 429.548C401.94 427.625 406.233 427.403 409.659 429.088C410.326 429.476 411.036 429.785 411.774 430.007C413.361 430.367 415.063 429.299 415.259 427.794C415.349 427.128 408.65 424.788 407.856 424.587C405.193 423.869 402.379 423.924 399.746 424.746V424.746Z" fill="#F6EF83"/>
</g>
<path d="M368.667 516.136C369.761 515.782 370.967 515.111 371.136 514.023C371.172 513.375 371.007 512.731 370.665 512.179C368.55 507.863 366.176 503.289 361.877 501.028C359.562 499.807 356.886 499.38 354.264 498.967C352.582 498.703 350.478 498.614 349.505 500.024C348.638 501.302 349.293 502.961 350.034 504.25C353.899 511.308 358.784 519.306 368.667 516.136Z" fill="#8DAF41"/>
<path d="M331.469 496.718C332.046 497.013 332.791 497.246 333.299 496.85C333.565 496.605 333.75 496.284 333.827 495.931C334.705 493.368 335.583 490.611 334.774 488.007C334.253 486.613 333.509 485.314 332.569 484.161C332.003 483.39 331.205 482.518 330.253 482.703C329.397 482.867 329 483.759 328.767 484.589C327.514 488.931 326.277 494.05 331.469 496.718Z" fill="#77932A"/>
<path d="M346.702 523.722C346.945 523.135 347.094 522.385 346.702 521.915C346.44 521.671 346.11 521.513 345.756 521.461C343.17 520.806 340.394 520.167 337.893 521.17C336.567 521.794 335.353 522.631 334.298 523.648C333.584 524.261 332.796 525.116 333.05 526.036C333.283 526.86 334.219 527.177 335.022 527.34C339.374 528.228 344.503 529.026 346.702 523.722Z" fill="#8DAF41"/>
<path d="M366.609 470.437C367.165 470.125 367.746 469.629 367.72 469.011C367.669 468.655 367.51 468.323 367.265 468.06C365.647 465.947 363.871 463.718 361.296 462.946C359.867 462.612 358.394 462.512 356.933 462.65C355.998 462.687 354.819 462.862 354.47 463.744C354.136 464.531 354.676 465.36 355.204 465.989C358.07 469.423 361.586 473.216 366.609 470.437Z" fill="#77932A"/>
<path d="M357.769 411.731C358.34 406.565 358.89 401.213 356.865 396.311C355.019 391.863 351.207 388.186 347.141 384.927C340.876 379.903 333.309 375.418 324.664 374.832C323.627 374.69 322.571 374.825 321.603 375.223C320.413 375.83 319.943 377.066 319.604 378.202C314.565 395.033 318.954 413.4 330.179 427.859C333.759 432.465 343.398 445.408 351.329 441.213C358.752 437.278 357.039 418.123 357.769 411.731Z" fill="#F28029"/>
<path d="M345.37 110.331C346.818 117.896 350.826 124.964 355.564 131.514C360.106 137.801 365.61 143.897 373.24 147.505C383.814 152.481 396.784 151.963 408.665 150.04C415.856 148.878 423.031 147.219 429.35 144.119C436.525 140.59 442.261 135.36 447.623 130.025C461.259 116.448 473.468 101.129 477.486 83.7014C478.517 79.227 470.729 55.6401 470.39 50.4209L355.527 68.9101C354.231 71.3348 353.036 73.8017 351.91 76.2793C346.972 87.1615 343.165 98.8519 345.37 110.331Z" fill="#F28029"/>
<path d="M329.831 226.538C363.527 194.462 419.029 184.753 456.517 155.783C473.066 143.094 485.649 125.952 492.789 106.369C497.367 93.6116 494.147 22.8457 493.275 10.833L684.758 68.9418V531.593H415.101C408.736 526.945 402.761 521.786 397.234 516.168C385.375 504.018 376.386 489.628 371.791 474.435C368.671 464.443 367.694 453.906 368.926 443.511C369.142 441.783 369.423 440.056 369.777 438.339C372.315 425.983 378.29 413.722 376.021 401.329C372.262 380.727 348.146 368.149 331.353 352.808C326.085 348.01 321.422 342.586 317.469 336.659C306.206 319.793 301.269 299.494 303.531 279.344C305.793 259.195 315.108 240.493 329.831 226.538ZM416.232 511.445C419.632 512.877 423.666 513.078 427.579 512.792C429.205 512.749 430.807 512.39 432.295 511.736C433.574 511.051 434.683 510.089 435.542 508.92C437.591 506.345 438.991 503.316 439.624 500.088C440.22 497.046 440.191 493.915 439.539 490.885C438.931 488.043 437.752 485.185 435.246 483.331C433.622 482.127 431.544 481.43 429.429 480.896C425.67 479.94 419.04 478.73 413.52 479.137C411.072 479.316 408.84 479.813 407.175 480.796C401.887 483.907 404.716 491.889 405.589 496.02C406.942 502.174 409.739 508.709 416.232 511.445ZM664.899 92.6555C659.675 83.3264 636.585 79.1161 627.728 86.3691C626.411 87.4458 625.346 88.7983 624.609 90.3311C623.516 92.6238 623.169 95.2005 623.615 97.7004C624.329 101.752 626.904 105.461 630.213 108.477C632.004 110.218 634.163 111.534 636.532 112.328C638.5 112.835 640.527 113.08 642.56 113.057C645.93 113.104 649.287 112.635 652.516 111.668C662.065 108.847 670.091 101.926 664.899 92.6555Z" fill="#00477F"/>
<path d="M1023.51 533.567C992.734 568.432 895.81 521.702 870.653 561.829C790.321 689.948 737.061 586.953 634.38 545.606C594.724 529.637 463.596 595.854 392.951 533.498C307.295 457.893 508.984 182.265 497.256 68.6727C494.57 42.6769 491.35 25.9257 501 17.4999C573.395 -45.7118 673.776 94.9514 780.545 49.2515C819.259 32.6694 931.579 -32.703 1013.15 58.3217C1042.76 91.3539 975.481 143.081 1014.55 211.856C1046.46 268.042 1153.56 209.743 1136.09 296.304C1128.16 335.659 1041.64 346.15 1027.82 378.654C1001.28 441.037 1064.14 487.508 1023.51 533.567Z" fill="#00477F"/>
<path d="M376.449 282.977C375.36 279.839 373.88 276.733 371.426 274.488C368.973 272.242 365.378 271.017 362.226 272.079C357.743 273.595 355.823 278.835 355.051 283.505C353.608 292.195 354.1 301.302 357.23 309.538C359.376 315.195 373.092 336.828 378.379 325.243C383.149 314.842 380.045 293.304 376.449 282.977Z" fill="#5DBBCE"/>
<path d="M337.037 392.709C336.519 390.955 335.574 389.356 334.288 388.055C332.945 386.829 330.972 386.153 329.249 386.74C326.79 387.569 325.743 390.437 325.315 392.994C324.454 397.771 324.866 402.69 326.51 407.257C327.684 410.353 335.186 422.202 338.1 415.857C340.717 410.163 339.009 398.361 337.037 392.709Z" fill="#F39428"/>
<path d="M437.117 124.119C442.759 119.043 446.354 110.247 447.322 101.182C449.046 84.9748 431.851 73.5274 417.432 81.1397C398.355 91.2031 378.337 110.949 381.663 126.977C393.464 147.13 423.624 138.477 437.117 124.119Z" fill="#F39428"/>
<path d="M436.663 454.308C433.977 449.744 432.063 444.054 434.241 439.221C437.054 432.961 445.144 431.249 452.007 431.476C465.653 431.926 514.684 449.142 501.306 470.362C495.231 479.987 475.266 478.597 465.881 476.13C453.852 472.971 442.997 465.063 436.663 454.308Z" fill="#5DBBCE"/>
<path d="M188.075 420.421L207.638 447.283L229.576 477.394C229.576 477.394 245.089 463.622 253.205 435.339C255.315 427.936 256.731 420.353 257.435 412.688C258.445 401.916 258.9 393.205 259.36 386.052C260.761 364.251 262.183 356.871 279.288 349.423L252.819 297.125C252.819 297.125 233.34 306.105 219.614 319.909C212.275 327.305 206.586 336.021 206.396 345.493C206.105 360.786 213.566 371.045 212.683 383.601C212.006 393.353 206.306 404.478 188.075 420.421Z" fill="white"/>
<path d="M188.075 420.42L198.93 435.322C198.93 435.322 214.264 418.619 221.692 391.862C227.799 369.929 196.08 336.5 260.56 312.433L252.814 297.113C180.477 333.463 214.692 361.714 211.213 386.035C208.886 402.332 196.445 413.104 188.075 420.42Z" fill="#298BBD"/>
<path d="M205.64 444.663L213.344 455.228C213.344 455.228 227.334 446.565 234.789 419.835C240.896 397.901 228.212 338.134 276.396 334.304L268.65 318.984C209.817 340.215 232.447 365.001 228.994 389.328C226.641 405.619 214.005 437.341 205.64 444.663Z" fill="#298BBD"/>
<path d="M218.811 462.554L229.666 477.457C229.666 477.457 247.31 461.081 255.817 424.292C261.972 397.705 251.26 359.089 279.669 349.089L271.923 333.77C237.988 350.246 245.428 403.849 241.949 428.175C239.622 444.44 227.17 455.206 218.811 462.554Z" fill="#298BBD"/>
<path d="M252.28 295.497C252.281 295.864 252.368 296.226 252.534 296.553L252.814 297.082L279.283 349.38L372.87 534.377H378.215L256.779 294.419C256.639 294.139 256.444 293.89 256.207 293.686C255.969 293.481 255.694 293.325 255.397 293.227C255.099 293.129 254.785 293.091 254.472 293.114C254.16 293.137 253.855 293.222 253.575 293.363C253.182 293.563 252.853 293.869 252.624 294.246C252.395 294.623 252.276 295.056 252.28 295.497V295.497Z" fill="white"/>
<path opacity="0.2" d="M188.075 420.421L229.581 477.404C229.581 477.404 245.094 463.632 253.211 435.349C255.32 427.946 256.736 420.363 257.441 412.698C258.45 401.926 258.905 393.215 259.365 386.063C260.766 364.261 262.189 356.881 279.293 349.433C279.293 349.433 254.252 344.23 245.84 392.893C235.593 452.111 188.075 420.421 188.075 420.421Z" fill="#0A2E11"/>
<path d="M233.568 360.69C233.568 360.69 254.987 350.225 279.283 349.433L252.814 297.135C252.814 297.135 230.474 329.903 233.568 360.69Z" fill="#F61F21"/>
<path d="M536.277 420.855L516.714 447.717L494.776 477.828C494.776 477.828 479.258 464.056 471.147 435.773C469.035 428.37 467.619 420.787 466.917 413.121C465.912 402.35 465.452 393.639 464.998 386.486C463.597 364.685 462.169 357.305 445.064 349.856L471.533 297.559C471.533 297.559 491.017 306.539 504.738 320.337C512.077 327.733 517.771 336.455 517.956 345.921C518.242 361.241 510.787 371.478 511.664 384.035C512.346 393.782 518.052 404.912 536.277 420.855Z" fill="white"/>
<path d="M536.277 420.853L494.776 477.836C494.776 477.836 479.258 464.065 471.147 435.781L511.664 384.012C512.346 393.779 518.052 404.91 536.277 420.853Z" fill="#C61851"/>
<path d="M504.759 320.336L465.019 386.496C463.618 364.695 462.19 357.315 445.085 349.866L471.554 297.568C471.554 297.568 491.012 306.554 504.759 320.336Z" fill="#298BBD"/>
<path d="M472.077 295.93C472.074 296.298 471.985 296.66 471.818 296.987L471.538 297.515L445.075 349.813L351.488 534.81H346.137L467.572 294.8C467.713 294.52 467.907 294.27 468.144 294.065C468.381 293.86 468.657 293.704 468.955 293.606C469.252 293.508 469.567 293.47 469.879 293.493C470.192 293.517 470.497 293.602 470.777 293.743C471.178 293.948 471.513 294.262 471.744 294.649C471.974 295.036 472.089 295.48 472.077 295.93V295.93Z" fill="white"/>
<path opacity="0.2" d="M536.277 420.853L494.776 477.836C494.776 477.836 479.258 464.064 471.147 435.781C469.035 428.378 467.619 420.795 466.917 413.129C465.912 402.358 465.452 393.647 464.998 386.494C463.597 364.693 462.169 357.313 445.064 349.865C445.064 349.865 470.111 344.661 478.523 393.325C488.759 452.543 536.277 420.853 536.277 420.853Z" fill="#0A2E11"/>
<path d="M260.909 326.87L253.449 331.128L248.262 325.951L248.833 333.759L241.372 338.011L249.187 338.582L249.758 346.39L254.014 338.936L261.829 339.501L256.647 334.324L260.909 326.87Z" fill="white"/>
</g>
</svg>
