<svg width="1236" height="613" viewBox="0 0 1236 613" fill="none" xmlns="http://www.w3.org/2000/svg">
<g clip-path="url(#clip0_536_60)">
<path d="M1121.51 522.567C1090.73 557.432 993.81 510.702 968.653 550.829C888.321 678.948 835.061 575.953 732.38 534.606C692.724 518.637 561.596 584.854 490.951 522.498C405.295 446.893 608.765 200.375 597.038 86.7829C594.352 60.7872 591.132 44.0359 600.781 35.6102C673.177 -27.6016 771.776 83.9514 878.545 38.2515C917.259 21.6693 1029.58 -43.7031 1111.15 47.3217C1140.76 80.3539 1073.48 132.081 1112.55 200.856C1144.46 257.042 1251.56 198.743 1234.09 285.304C1226.16 324.659 1139.64 335.15 1125.82 367.654C1099.28 430.037 1162.14 476.508 1121.51 522.567Z" fill="#F39428"/>
<path d="M144.066 99.1652C88.8071 135.156 160.726 261.431 154.376 327.026C148.089 391.933 76.2653 408.151 105.478 486.143C148.089 599.899 333.894 507.073 415.69 503.576C478.954 500.882 640.405 609.656 695.59 451.806C710.247 409.899 623.644 334.395 622.344 290.026C620.842 238.943 637.185 -0.311806 600.781 35.5941C492.162 142.72 440.287 142.715 388.381 144.168C326.296 145.911 196.094 65.2825 144.066 99.1652Z" fill="#5DBBCE"/>
<mask id="mask0_536_60" style="mask-type:alpha" maskUnits="userSpaceOnUse" x="98" y="31" width="600" height="512">
<path d="M144.066 99.1656C88.8071 135.156 160.726 261.432 154.376 327.026C148.089 391.934 76.2653 408.151 105.478 486.144C148.089 599.899 333.894 507.073 415.69 503.576C478.954 500.882 640.405 609.656 695.59 451.807C710.247 409.9 623.644 334.395 622.344 290.027C620.842 238.944 637.185 -0.311318 600.781 35.5946C492.162 142.721 440.287 142.715 388.381 144.168C326.296 145.911 196.094 65.283 144.066 99.1656Z" fill="#5DBBCE"/>
</mask>
<g mask="url(#mask0_536_60)">
<path d="M-1.50141e-05 246.957H88.0458V276.439H119.035V183.972H178.244V218.811H205.04V238.145H225.243L258.771 204.654L292.917 238.769H320.961V299.165H348.382V264.738H390.327V244.516H434.186V254.458H454.817V299.165H473.651V280.486H490.169V261.806H544.153V223.824H623.227V439.265H-1.50141e-05V246.957Z" fill="#2F7D90"/>
<path d="M291.421 254.11H300.219V272.462H291.421V254.11Z" fill="#1F535F"/>
<path d="M193.249 273.47H202.047V291.822H193.249V273.47Z" fill="#1F535F"/>
<path d="M263.746 237.1H272.544V255.451H263.746V237.1Z" fill="#1F535F"/>
<path d="M245.737 273.47H254.536V291.822H245.737V273.47Z" fill="#F6EF83"/>
<path d="M276.092 295.895H284.891V314.247H276.092V295.895Z" fill="#1F535F"/>
<path d="M360.099 274.934H368.897V293.285H360.099V274.934Z" fill="#F6EF83"/>
<path d="M220.025 250.053H228.823V268.405H220.025V250.053Z" fill="#1F535F"/>
<path d="M157.406 197.174H166.204V215.526H157.406V197.174Z" fill="#F6EF83"/>
<path d="M158.157 217.095C163.204 217.056 168.252 217.022 173.3 216.994C225.116 216.725 277.081 217.195 328.982 217.359H333.482C355.583 217.422 377.665 217.396 399.728 217.279C418.308 217.16 436.863 216.92 455.393 216.561C466.994 212.773 461.125 209.049 452.602 209.165C458.851 175.737 427 188.906 410.694 200.296C411.482 197.475 408.658 194.638 405.729 194.427C390.591 200.766 406.289 184.643 398.713 166.028C398.041 161.886 394.53 159.863 390.506 160.248C362.885 156.107 352.199 185.077 338.626 203.397C339.795 194.945 328.882 193.407 322.584 195.103C337.151 190.824 324.837 177.322 319.301 181.495C331.044 133.872 258.104 133.904 259.881 184.432C252.844 167.348 231.329 184.58 240.778 198.42C212.107 197.643 183.7 204.064 158.157 217.095V217.095Z" fill="white"/>
<path opacity="0.4" d="M333.482 217.348C355.583 217.411 377.665 217.385 399.728 217.269C399.358 214.162 398.554 211.167 396.867 208.563C394.023 204.178 387.805 201.553 383.358 204.337C382.829 199.984 376.061 194.078 371.673 193.999C367.284 193.919 359.808 196.112 359.142 200.465C350.074 200.317 340.059 209.736 333.482 217.348Z" fill="#F6E966"/>
<path opacity="0.4" d="M173.3 216.994C225.116 216.725 277.081 217.195 328.982 217.358C329.343 214.575 329.033 211.746 328.078 209.107C326.116 204.125 319.507 200.655 315.198 203.856C316.583 200.407 317.45 195.594 314.241 193.719C310.751 191.69 306.839 195.51 304.613 198.875C305.252 193.164 305.813 187.147 303.513 181.88C299.769 173.296 288.613 169.324 279.772 172.43C270.932 175.536 264.894 184.511 263.91 193.824C262.661 192.84 261.128 192.283 259.537 192.237C257.947 192.192 256.384 192.659 255.08 193.571C253.822 194.544 252.911 195.896 252.482 197.427C252.054 198.958 252.13 200.587 252.701 202.071C243.062 200.639 233.888 206.032 224.413 208.309C213.072 211.035 201.069 209.265 189.617 211.479C185.519 212.245 178.83 214.073 173.3 216.994Z" fill="#F6E966"/>
<path d="M374.153 248.368L368.601 248.331C349.598 248.23 330.532 248.405 311.497 248.463H309.842C301.735 248.484 293.638 248.473 285.552 248.431C278.738 248.389 271.933 248.302 265.137 248.172C260.907 246.783 263.022 245.415 266.157 245.452C263.868 233.191 275.548 238.019 281.528 242.198C281.237 241.141 282.273 240.121 283.347 240.042C288.904 242.372 283.146 236.455 285.922 229.63C286.17 228.109 287.455 227.369 288.93 227.517C299.061 225.996 302.979 236.624 307.965 243.339C307.537 240.232 311.539 239.678 313.844 240.296C308.504 238.711 313.02 233.777 315.05 235.309C310.746 217.845 337.495 217.876 336.839 236.365C339.425 230.1 347.303 236.418 343.845 241.495C354.364 241.215 364.785 243.578 374.153 248.368V248.368Z" fill="white"/>
<path opacity="0.4" d="M309.836 248.468C301.729 248.489 293.632 248.479 285.546 248.436C285.653 247.313 286.015 246.229 286.604 245.267C287.661 243.682 289.929 242.694 291.558 243.708C291.748 242.124 294.233 239.947 295.841 239.915C297.448 239.884 300.192 240.697 300.441 242.287C303.772 242.213 307.441 245.668 309.836 248.468Z" fill="#F6E966"/>
<path opacity="0.4" d="M368.601 248.331C349.598 248.23 330.531 248.405 311.497 248.463C311.359 247.444 311.472 246.407 311.824 245.441C312.544 243.608 314.997 242.34 316.551 243.513C316.023 242.245 315.721 240.481 316.9 239.815C318.18 239.07 319.613 240.476 320.432 241.706C320.194 239.593 319.988 237.406 320.834 235.473C322.209 232.303 326.296 230.872 329.543 232.007C332.789 233.143 334.999 236.44 335.359 239.852C335.818 239.492 336.381 239.289 336.964 239.273C337.548 239.257 338.121 239.428 338.6 239.762C339.062 240.118 339.397 240.614 339.554 241.176C339.711 241.738 339.683 242.335 339.472 242.879C343.004 242.351 346.372 244.332 349.846 245.166C354.002 246.165 358.407 245.515 362.605 246.323C364.686 246.713 366.704 247.389 368.601 248.331Z" fill="#F6E966"/>
<path d="M270.239 327.812H796.934V385.171H270.239V327.812Z" fill="#F4C124"/>
<path d="M270.239 385.171H796.934V386.73H270.239V385.171Z" fill="#F4C124"/>
<path d="M270.239 386.729H796.934V388.288H270.239V386.729Z" fill="#F4C125"/>
<path d="M270.239 388.288H796.934V389.846H270.239V388.288Z" fill="#F4C226"/>
<path d="M270.239 389.852H796.934V391.41H270.239V389.852Z" fill="#F4C226"/>
<path d="M270.239 391.41H796.934V392.969H270.239V391.41Z" fill="#F4C327"/>
<path d="M270.239 392.974H796.934V394.532H270.239V392.974Z" fill="#F4C328"/>
<path d="M270.239 394.532H796.934V396.09H270.239V394.532Z" fill="#F4C429"/>
<path d="M270.239 396.09H796.934V397.649H270.239V396.09Z" fill="#F4C42A"/>
<path d="M270.239 397.654H796.934V399.212H270.239V397.654Z" fill="#F4C52B"/>
<path d="M270.239 399.212H796.934V400.771H270.239V399.212Z" fill="#F4C52C"/>
<path d="M270.239 400.776H796.934V402.334H270.239V400.776Z" fill="#F4C62C"/>
<path d="M270.239 402.334H796.934V403.893H270.239V402.334Z" fill="#F4C62D"/>
<path d="M270.239 403.898H796.934V405.456H270.239V403.898Z" fill="#F4C72E"/>
<path d="M270.239 405.457H796.934V407.015H270.239V405.457Z" fill="#F4C72F"/>
<path d="M270.239 407.015H796.934V408.573H270.239V407.015Z" fill="#F4C830"/>
<path d="M270.239 408.579H796.934V410.137H270.239V408.579Z" fill="#F4C831"/>
<path d="M270.239 410.137H796.934V411.695H270.239V410.137Z" fill="#F4C932"/>
<path d="M270.239 411.7H796.934V413.259H270.239V411.7Z" fill="#F4C933"/>
<path d="M270.239 413.259H796.934V414.817H270.239V413.259Z" fill="#F4CA34"/>
<path d="M270.239 414.817H796.934V416.376H270.239V414.817Z" fill="#F4CA35"/>
<path d="M270.239 416.381H796.934V417.939H270.239V416.381Z" fill="#F5CB36"/>
<path d="M270.239 417.939H796.934V419.497H270.239V417.939Z" fill="#F5CB37"/>
<path d="M270.239 419.503H796.934V421.061H270.239V419.503Z" fill="#F5CC38"/>
<path d="M270.239 421.062H796.934V422.62H270.239V421.062Z" fill="#F5CC39"/>
<path d="M270.239 422.625H796.934V424.183H270.239V422.625Z" fill="#F5CC3A"/>
<path d="M270.239 424.183H796.934V425.741H270.239V424.183Z" fill="#F5CD3B"/>
<path d="M270.239 425.742H796.934V427.3H270.239V425.742Z" fill="#F5CD3C"/>
<path d="M270.239 427.305H796.934V428.864H270.239V427.305Z" fill="#F5CE3D"/>
<path d="M270.239 428.864H796.934V430.422H270.239V428.864Z" fill="#F5CE3E"/>
<path d="M270.239 430.427H796.934V431.986H270.239V430.427Z" fill="#F5CF3F"/>
<path d="M270.239 431.986H796.934V433.544H270.239V431.986Z" fill="#F5CF40"/>
<path d="M270.239 433.549H796.934V435.108H270.239V433.549Z" fill="#F5D041"/>
<path d="M270.239 435.108H796.934V436.666H270.239V435.108Z" fill="#F5D042"/>
<path d="M270.239 436.666H796.934V438.224H270.239V436.666Z" fill="#F5D142"/>
<path d="M270.239 438.23H796.934V439.788H270.239V438.23Z" fill="#F5D143"/>
<path d="M270.239 439.788H796.934V441.346H270.239V439.788Z" fill="#F5D244"/>
<path d="M270.239 441.352H796.934V442.91H270.239V441.352Z" fill="#F5D245"/>
<path d="M270.239 442.91H796.934V444.469H270.239V442.91Z" fill="#F5D346"/>
<path d="M270.239 444.469H796.934V446.027H270.239V444.469Z" fill="#F5D347"/>
<path d="M270.239 446.032H796.934V447.591H270.239V446.032Z" fill="#F5D448"/>
<path d="M270.239 447.59H796.934V449.149H270.239V447.59Z" fill="#F5D449"/>
<path d="M270.239 449.154H796.934V450.713H270.239V449.154Z" fill="#F5D54A"/>
<path d="M270.239 450.712H796.934V452.271H270.239V450.712Z" fill="#F5D54B"/>
<path d="M270.239 452.276H796.934V453.835H270.239V452.276Z" fill="#F5D64C"/>
<path d="M270.239 453.834H796.934V455.393H270.239V453.834Z" fill="#F5D64D"/>
<path d="M270.239 455.393H796.934V456.952H270.239V455.393Z" fill="#F5D74E"/>
<path d="M270.239 456.957H796.934V458.515H270.239V456.957Z" fill="#F5D74F"/>
<path d="M270.239 458.515H796.934V460.074H270.239V458.515Z" fill="#F5D850"/>
<path d="M270.239 460.079H796.934V461.637H270.239V460.079Z" fill="#F5D851"/>
<path d="M270.239 461.637H796.934V463.196H270.239V461.637Z" fill="#F5D952"/>
<path d="M270.239 463.195H796.934V464.754H270.239V463.195Z" fill="#F5D953"/>
<path d="M270.239 464.759H796.934V466.317H270.239V464.759Z" fill="#F5DA54"/>
<path d="M270.239 466.317H796.934V467.876H270.239V466.317Z" fill="#F5DA55"/>
<path d="M270.239 467.881H796.934V469.439H270.239V467.881Z" fill="#F5DB56"/>
<path d="M270.239 469.439H796.934V470.998H270.239V469.439Z" fill="#F5DB57"/>
<path d="M270.239 471.003H796.934V472.561H270.239V471.003Z" fill="#F5DC59"/>
<path d="M270.239 472.562H796.934V474.12H270.239V472.562Z" fill="#F5DC5A"/>
<path d="M270.239 474.12H796.934V475.678H270.239V474.12Z" fill="#F5DC5B"/>
<path d="M270.239 475.684H796.934V477.242H270.239V475.684Z" fill="#F5DD5C"/>
<path d="M270.239 477.242H796.934V478.8H270.239V477.242Z" fill="#F5DD5D"/>
<path d="M270.239 478.806H796.934V480.364H270.239V478.806Z" fill="#F5DE5E"/>
<path d="M270.239 480.364H796.934V481.922H270.239V480.364Z" fill="#F5DE5F"/>
<path d="M270.239 481.922H796.934V483.481H270.239V481.922Z" fill="#F5DF60"/>
<path d="M270.239 483.486H796.934V485.044H270.239V483.486Z" fill="#F5DF61"/>
<path d="M270.239 485.044H796.934V486.603H270.239V485.044Z" fill="#F5E062"/>
<path d="M270.239 486.608H796.934V488.166H270.239V486.608Z" fill="#F5E063"/>
<path d="M270.239 488.167H796.934V489.725H270.239V488.167Z" fill="#F5E164"/>
<path d="M270.239 489.73H796.934V491.288H270.239V489.73Z" fill="#F5E165"/>
<path d="M270.239 491.289H796.934V492.847H270.239V491.289Z" fill="#F5E266"/>
<path d="M270.239 492.847H796.934V494.405H270.239V492.847Z" fill="#F5E267"/>
<path d="M270.239 494.41H796.934V495.969H270.239V494.41Z" fill="#F5E368"/>
<path d="M270.239 495.969H796.934V497.527H270.239V495.969Z" fill="#F5E369"/>
<path d="M270.239 497.532H796.934V499.091H270.239V497.532Z" fill="#F5E46A"/>
<path d="M270.239 499.091H796.934V500.649H270.239V499.091Z" fill="#F5E46B"/>
<path d="M270.239 500.654H796.934V502.213H270.239V500.654Z" fill="#F5E56C"/>
<path d="M270.239 502.213H796.934V503.771H270.239V502.213Z" fill="#F5E56D"/>
<path d="M270.239 503.771H796.934V505.329H270.239V503.771Z" fill="#F5E66E"/>
<path d="M270.239 505.335H796.934V506.893H270.239V505.335Z" fill="#F5E66F"/>
<path d="M270.239 506.893H796.934V508.451H270.239V506.893Z" fill="#F6E771"/>
<path d="M270.239 508.457H796.934V510.015H270.239V508.457Z" fill="#F6E772"/>
<path d="M270.239 510.015H796.934V511.574H270.239V510.015Z" fill="#F6E873"/>
<path d="M270.239 511.574H796.934V513.132H270.239V511.574Z" fill="#F6E874"/>
<path d="M270.239 513.137H796.934V514.696H270.239V513.137Z" fill="#F6E975"/>
<path d="M270.239 514.696H796.934V516.254H270.239V514.696Z" fill="#F6E976"/>
<path d="M270.239 516.259H796.934V517.818H270.239V516.259Z" fill="#F6EA77"/>
<path d="M270.239 517.817H796.934V519.376H270.239V517.817Z" fill="#F6EA78"/>
<path d="M270.239 519.381H796.934V520.94H270.239V519.381Z" fill="#F6EB79"/>
<path d="M270.239 520.939H796.934V522.498H270.239V520.939Z" fill="#F6EB7A"/>
<path d="M270.239 522.498H796.934V524.056H270.239V522.498Z" fill="#F6EB7B"/>
<path d="M270.239 524.062H796.934V525.62H270.239V524.062Z" fill="#F6EC7C"/>
<path d="M270.239 525.62H796.934V527.179H270.239V525.62Z" fill="#F6EC7D"/>
<path d="M270.239 527.184H796.934V528.742H270.239V527.184Z" fill="#F6ED7F"/>
<path d="M270.239 528.742H796.934V530.301H270.239V528.742Z" fill="#F6ED80"/>
<path d="M270.239 530.3H796.934V531.859H270.239V530.3Z" fill="#F6EE81"/>
<path d="M270.239 531.864H796.934V533.423H270.239V531.864Z" fill="#F6EE82"/>
<path d="M270.239 533.422H796.934V534.981H270.239V533.422Z" fill="#F6EF83"/>
<path d="M270.239 534.986H796.934V543.56H270.239V534.986Z" fill="#F6EF83"/>
<path d="M-6.10352e-05 361.489H270.239V409.894H-6.10352e-05V361.489Z" fill="#F4C124"/>
<path d="M-6.10352e-05 409.894H270.239V411.209H-6.10352e-05V409.894Z" fill="#F4C124"/>
<path d="M-6.10352e-05 411.209H270.239V412.524H-6.10352e-05V411.209Z" fill="#F4C125"/>
<path d="M-6.10352e-05 412.524H270.239V413.84H-6.10352e-05V412.524Z" fill="#F4C226"/>
<path d="M-6.10352e-05 413.845H270.239V415.161H-6.10352e-05V413.845Z" fill="#F4C226"/>
<path d="M-6.10352e-05 415.161H270.239V416.476H-6.10352e-05V415.161Z" fill="#F4C327"/>
<path d="M-6.10352e-05 416.476H270.239V417.791H-6.10352e-05V416.476Z" fill="#F4C328"/>
<path d="M-6.10352e-05 417.797H270.239V419.112H-6.10352e-05V417.797Z" fill="#F4C429"/>
<path d="M-6.10352e-05 419.112H270.239V420.427H-6.10352e-05V419.112Z" fill="#F4C42A"/>
<path d="M-6.10352e-05 420.427H270.239V421.743H-6.10352e-05V420.427Z" fill="#F4C52B"/>
<path d="M-6.10352e-05 421.748H270.239V423.063H-6.10352e-05V421.748Z" fill="#F4C52C"/>
<path d="M-6.10352e-05 423.063H270.239V424.379H-6.10352e-05V423.063Z" fill="#F4C62C"/>
<path d="M-6.10352e-05 424.379H270.239V425.694H-6.10352e-05V424.379Z" fill="#F4C62D"/>
<path d="M-6.10352e-05 425.699H270.239V427.015H-6.10352e-05V425.699Z" fill="#F4C72E"/>
<path d="M-6.10352e-05 427.015H270.239V428.33H-6.10352e-05V427.015Z" fill="#F4C72F"/>
<path d="M-6.10352e-05 428.33H270.239V429.645H-6.10352e-05V428.33Z" fill="#F4C830"/>
<path d="M-6.10352e-05 429.646H270.239V430.961H-6.10352e-05V429.646Z" fill="#F4C831"/>
<path d="M-6.10352e-05 430.966H270.239V432.282H-6.10352e-05V430.966Z" fill="#F4C932"/>
<path d="M-6.10352e-05 432.282H270.239V433.597H-6.10352e-05V432.282Z" fill="#F4C933"/>
<path d="M-6.10352e-05 433.597H270.239V434.913H-6.10352e-05V433.597Z" fill="#F4CA34"/>
<path d="M-6.10352e-05 434.917H270.239V436.233H-6.10352e-05V434.917Z" fill="#F4CA35"/>
<path d="M-6.10352e-05 436.233H270.239V437.548H-6.10352e-05V436.233Z" fill="#F5CB36"/>
<path d="M-6.10352e-05 437.548H270.239V438.864H-6.10352e-05V437.548Z" fill="#F5CB37"/>
<path d="M-6.10352e-05 438.869H270.239V440.185H-6.10352e-05V438.869Z" fill="#F5CC38"/>
<path d="M-6.10352e-05 440.185H270.239V441.5H-6.10352e-05V440.185Z" fill="#F5CC39"/>
<path d="M-6.10352e-05 441.5H270.239V442.815H-6.10352e-05V441.5Z" fill="#F5CC3A"/>
<path d="M-6.10352e-05 442.815H270.239V444.13H-6.10352e-05V442.815Z" fill="#F5CD3B"/>
<path d="M-6.10352e-05 444.136H270.239V445.451H-6.10352e-05V444.136Z" fill="#F5CD3C"/>
<path d="M-6.10352e-05 445.451H270.239V446.767H-6.10352e-05V445.451Z" fill="#F5CE3D"/>
<path d="M-6.10352e-05 446.767H270.239V448.082H-6.10352e-05V446.767Z" fill="#F5CE3E"/>
<path d="M-6.10352e-05 448.087H270.239V449.403H-6.10352e-05V448.087Z" fill="#F5CF3F"/>
<path d="M-6.10352e-05 449.402H270.239V450.718H-6.10352e-05V449.402Z" fill="#F5CF40"/>
<path d="M-6.10352e-05 450.718H270.239V452.033H-6.10352e-05V450.718Z" fill="#F5D041"/>
<path d="M-6.10352e-05 452.039H270.239V453.354H-6.10352e-05V452.039Z" fill="#F5D042"/>
<path d="M-6.10352e-05 453.354H270.239V454.669H-6.10352e-05V453.354Z" fill="#F5D142"/>
<path d="M-6.10352e-05 454.669H270.239V455.985H-6.10352e-05V454.669Z" fill="#F5D143"/>
<path d="M-6.10352e-05 455.99H270.239V457.305H-6.10352e-05V455.99Z" fill="#F5D244"/>
<path d="M-6.10352e-05 457.305H270.239V458.621H-6.10352e-05V457.305Z" fill="#F5D245"/>
<path d="M-6.10352e-05 458.621H270.239V459.936H-6.10352e-05V458.621Z" fill="#F5D346"/>
<path d="M-6.10352e-05 459.936H270.239V461.251H-6.10352e-05V459.936Z" fill="#F5D347"/>
<path d="M-6.10352e-05 461.257H270.239V462.572H-6.10352e-05V461.257Z" fill="#F5D448"/>
<path d="M-6.10352e-05 462.572H270.239V463.888H-6.10352e-05V462.572Z" fill="#F5D449"/>
<path d="M-6.10352e-05 463.888H270.239V465.203H-6.10352e-05V463.888Z" fill="#F5D54A"/>
<path d="M-6.10352e-05 465.208H270.239V466.523H-6.10352e-05V465.208Z" fill="#F5D54B"/>
<path d="M-6.10352e-05 466.523H270.239V467.839H-6.10352e-05V466.523Z" fill="#F5D64C"/>
<path d="M-6.10352e-05 467.839H270.239V469.154H-6.10352e-05V467.839Z" fill="#F5D64D"/>
<path d="M-6.10352e-05 469.16H270.239V470.475H-6.10352e-05V469.16Z" fill="#F5D74E"/>
<path d="M-6.10352e-05 470.475H270.239V471.79H-6.10352e-05V470.475Z" fill="#F5D74F"/>
<path d="M-6.10352e-05 471.79H270.239V473.105H-6.10352e-05V471.79Z" fill="#F5D850"/>
<path d="M-6.10352e-05 473.105H270.239V474.421H-6.10352e-05V473.105Z" fill="#F5D851"/>
<path d="M-6.10352e-05 474.426H270.239V475.742H-6.10352e-05V474.426Z" fill="#F5D952"/>
<path d="M-6.10352e-05 475.742H270.239V477.057H-6.10352e-05V475.742Z" fill="#F5D953"/>
<path d="M-6.10352e-05 477.057H270.239V478.373H-6.10352e-05V477.057Z" fill="#F5DA54"/>
<path d="M-6.10352e-05 478.378H270.239V479.693H-6.10352e-05V478.378Z" fill="#F5DA55"/>
<path d="M-6.10352e-05 479.693H270.239V481.009H-6.10352e-05V479.693Z" fill="#F5DB56"/>
<path d="M-6.10352e-05 481.008H270.239V482.324H-6.10352e-05V481.008Z" fill="#F5DB57"/>
<path d="M-6.10352e-05 482.329H270.239V483.644H-6.10352e-05V482.329Z" fill="#F5DC59"/>
<path d="M-6.10352e-05 483.645H270.239V484.96H-6.10352e-05V483.645Z" fill="#F5DC5A"/>
<path d="M-6.10352e-05 484.96H270.239V486.275H-6.10352e-05V484.96Z" fill="#F5DC5B"/>
<path d="M-6.10352e-05 486.28H270.239V487.596H-6.10352e-05V486.28Z" fill="#F5DD5C"/>
<path d="M-6.10352e-05 487.596H270.239V488.911H-6.10352e-05V487.596Z" fill="#F5DD5D"/>
<path d="M-6.10352e-05 488.911H270.239V490.227H-6.10352e-05V488.911Z" fill="#F5DE5E"/>
<path d="M-6.10352e-05 490.227H270.239V491.542H-6.10352e-05V490.227Z" fill="#F5DE5F"/>
<path d="M-6.10352e-05 491.547H270.239V492.863H-6.10352e-05V491.547Z" fill="#F5DF60"/>
<path d="M-6.10352e-05 492.863H270.239V494.178H-6.10352e-05V492.863Z" fill="#F5DF61"/>
<path d="M-6.10352e-05 494.178H270.239V495.494H-6.10352e-05V494.178Z" fill="#F5E062"/>
<path d="M-6.10352e-05 495.499H270.239V496.814H-6.10352e-05V495.499Z" fill="#F5E063"/>
<path d="M-6.10352e-05 496.814H270.239V498.129H-6.10352e-05V496.814Z" fill="#F5E164"/>
<path d="M-6.10352e-05 498.129H270.239V499.445H-6.10352e-05V498.129Z" fill="#F5E165"/>
<path d="M-6.10352e-05 499.45H270.239V500.766H-6.10352e-05V499.45Z" fill="#F5E266"/>
<path d="M-6.10352e-05 500.766H270.239V502.081H-6.10352e-05V500.766Z" fill="#F5E267"/>
<path d="M-6.10352e-05 502.081H270.239V503.396H-6.10352e-05V502.081Z" fill="#F5E368"/>
<path d="M-6.10352e-05 503.401H270.239V504.717H-6.10352e-05V503.401Z" fill="#F5E369"/>
<path d="M-6.10352e-05 504.717H270.239V506.032H-6.10352e-05V504.717Z" fill="#F5E46A"/>
<path d="M-6.10352e-05 506.032H270.239V507.348H-6.10352e-05V506.032Z" fill="#F5E46B"/>
<path d="M-6.10352e-05 507.348H270.239V508.663H-6.10352e-05V507.348Z" fill="#F5E56C"/>
<path d="M-6.10352e-05 508.668H270.239V509.983H-6.10352e-05V508.668Z" fill="#F5E56D"/>
<path d="M-6.10352e-05 509.983H270.239V511.299H-6.10352e-05V509.983Z" fill="#F5E66E"/>
<path d="M-6.10352e-05 511.299H270.239V512.614H-6.10352e-05V511.299Z" fill="#F5E66F"/>
<path d="M-6.10352e-05 512.62H270.239V513.935H-6.10352e-05V512.62Z" fill="#F6E771"/>
<path d="M-6.10352e-05 513.935H270.239V515.25H-6.10352e-05V513.935Z" fill="#F6E772"/>
<path d="M-6.10352e-05 515.25H270.239V516.566H-6.10352e-05V515.25Z" fill="#F6E873"/>
<path d="M-6.10352e-05 516.571H270.239V517.886H-6.10352e-05V516.571Z" fill="#F6E874"/>
<path d="M-6.10352e-05 517.886H270.239V519.202H-6.10352e-05V517.886Z" fill="#F6E975"/>
<path d="M-6.10352e-05 519.202H270.239V520.517H-6.10352e-05V519.202Z" fill="#F6E976"/>
<path d="M-6.10352e-05 520.517H270.239V521.832H-6.10352e-05V520.517Z" fill="#F6EA77"/>
<path d="M-6.10352e-05 521.838H270.239V523.153H-6.10352e-05V521.838Z" fill="#F6EA78"/>
<path d="M-6.10352e-05 523.153H270.239V524.469H-6.10352e-05V523.153Z" fill="#F6EB79"/>
<path d="M-6.10352e-05 524.469H270.239V525.784H-6.10352e-05V524.469Z" fill="#F6EB7A"/>
<path d="M-6.10352e-05 525.789H270.239V527.104H-6.10352e-05V525.789Z" fill="#F6EB7B"/>
<path d="M-6.10352e-05 527.104H270.239V528.42H-6.10352e-05V527.104Z" fill="#F6EC7C"/>
<path d="M-6.10352e-05 528.42H270.239V529.735H-6.10352e-05V528.42Z" fill="#F6EC7D"/>
<path d="M-6.10352e-05 529.741H270.239V531.056H-6.10352e-05V529.741Z" fill="#F6ED7F"/>
<path d="M-6.10352e-05 531.056H270.239V532.372H-6.10352e-05V531.056Z" fill="#F6ED80"/>
<path d="M-6.10352e-05 532.371H270.239V533.687H-6.10352e-05V532.371Z" fill="#F6EE81"/>
<path d="M-6.10352e-05 533.692H270.239V535.007H-6.10352e-05V533.692Z" fill="#F6EE82"/>
<path d="M-6.10352e-05 535.007H270.239V536.323H-6.10352e-05V535.007Z" fill="#F6EF83"/>
<path d="M-6.10352e-05 536.323H270.239V543.56H-6.10352e-05V536.323Z" fill="#F6EF83"/>
<path d="M266.178 392.974H274.977V411.325H266.178V392.974Z" fill="#F6EF83"/>
<path d="M384.141 342.821H392.939V361.173H384.141V342.821Z" fill="#F6EF83"/>
<path d="M241.338 420.85H250.136V439.202H241.338V420.85Z" fill="#F6EF83"/>
<path d="M213.41 389.767H222.208V408.119H213.41V389.767Z" fill="#F6EF83"/>
<path d="M175.922 234.781C172.528 236.059 170.323 239.799 169.868 243.291C169.144 241.358 167.145 240.238 165.231 239.467C162.001 237.692 157.3 238.854 156.835 242.906C156.111 241.363 155.962 239.53 157.284 238.289C160.023 234.997 165.744 234.702 168.213 238.447C170.519 236.63 172.486 234.221 175.124 232.89C178.244 231.564 181.939 234.295 181.58 237.644C181.68 236.424 176.842 234.638 175.922 234.781Z" fill="#663915"/>
<path d="M355.134 450.311C352.263 452.525 351.258 456.746 351.85 460.216C350.592 458.584 348.35 458.103 346.293 457.929C342.682 457.184 338.547 459.667 339.282 463.682C338.135 462.419 337.453 460.708 338.351 459.139C340.001 455.187 345.394 453.217 348.842 456.075C350.512 453.661 351.681 450.792 353.812 448.737C356.403 446.55 360.738 448.072 361.389 451.379C361.124 450.222 355.974 449.936 355.134 450.311Z" fill="#663915"/>
<path d="M275.891 333.391C272.534 332.308 268.589 333.819 266.131 336.207C266.749 334.295 265.909 332.234 264.915 330.491C263.535 327.19 259.268 325.235 256.455 328.03C256.836 326.418 257.835 324.929 259.59 324.786C263.667 323.941 268.209 327.184 267.812 331.521C270.667 331.521 273.628 330.882 276.431 331.469C279.603 332.345 280.766 336.656 278.45 339.007C279.259 338.14 276.663 333.856 275.891 333.391Z" fill="#663915"/>
<path d="M368.13 187.205C365.629 188.33 364.144 191.257 363.974 193.914C363.335 192.488 361.77 191.738 360.273 191.273C357.751 190.084 354.272 191.183 354.103 194.268C353.479 193.132 353.278 191.759 354.219 190.76C356.128 188.119 360.442 187.649 362.478 190.359C364.128 188.88 365.497 186.962 367.422 185.837C367.973 185.588 368.577 185.48 369.181 185.525C369.784 185.57 370.366 185.765 370.874 186.093C371.382 186.421 371.799 186.872 372.087 187.403C372.376 187.934 372.526 188.529 372.524 189.133C372.556 188.188 368.823 187.068 368.13 187.205Z" fill="#663915"/>
<path d="M187.697 188.605C187.697 188.605 186.349 199.429 173.902 202.805L178.661 196.466L187.697 188.605Z" fill="white"/>
<path d="M168.948 197.422C172.216 197.779 175.523 197.459 178.661 196.481C177.778 199.419 176.314 202.049 173.903 202.821L168.948 197.422Z" fill="white"/>
<path d="M187.697 188.605C185.688 193.064 182.14 195.341 178.667 196.482C180.078 191.812 180.025 186.355 180.025 186.355L187.697 188.605Z" fill="#BFD2E0"/>
<path d="M305.697 336.117C305.697 336.117 304.348 346.941 291.902 350.317L296.66 343.978L305.697 336.117Z" fill="white"/>
<path d="M286.953 344.933C290.222 345.29 293.531 344.97 296.671 343.993C295.783 346.93 294.318 349.561 291.912 350.332L286.953 344.933Z" fill="white"/>
<path d="M305.697 336.117C303.687 340.576 300.139 342.852 296.671 343.993C298.077 339.324 298.03 333.867 298.03 333.867L305.697 336.117Z" fill="#BFD2E0"/>
<path d="M319.428 441.579C319.428 441.579 318.08 452.398 305.633 455.774L310.392 449.434L319.428 441.579Z" fill="white"/>
<path d="M300.684 450.396C303.952 450.749 307.258 450.427 310.397 449.45C309.514 452.393 308.049 455.018 305.638 455.789L300.684 450.396Z" fill="white"/>
<path d="M319.428 441.579C317.419 446.032 313.871 448.309 310.397 449.45C311.809 444.78 311.756 439.323 311.756 439.323L319.428 441.579Z" fill="#BFD2E0"/>
<path d="M153.192 384.052C153.192 384.052 151.701 396.033 137.917 399.773L143.204 392.773L153.192 384.052Z" fill="white"/>
<path d="M132.439 393.814C136.06 394.201 139.722 393.842 143.199 392.757C142.215 396.011 140.597 398.917 137.911 399.757L132.439 393.814Z" fill="white"/>
<path d="M153.192 384.051C150.966 388.985 147.037 391.511 143.199 392.773C144.753 387.601 144.7 381.558 144.7 381.558L153.192 384.051Z" fill="#BFD2E0"/>
<path d="M145.139 222.826C145.139 222.826 127.797 207.892 140.232 194.58L142.495 214.036L145.139 222.826Z" fill="#DC3165"/>
<path d="M145.139 222.826C142.754 221.188 142.215 217.749 142.495 214.036C145.152 216.561 148.134 218.721 151.363 220.459L145.139 222.826Z" fill="#DC3165"/>
<path d="M142.495 214.036C137.589 209.255 133.676 202.25 140.232 194.58L145.932 200.275C145.932 200.275 142.977 207.565 142.495 214.036Z" fill="#C61851"/>
<path d="M371.467 409.397C371.467 409.397 382.443 429.471 366.116 437.564L370.848 418.547L371.467 409.397Z" fill="#DC3165"/>
<path d="M371.467 409.397C373.122 411.764 372.413 415.177 370.848 418.552C369.255 415.256 367.23 412.186 364.826 409.424L371.467 409.397Z" fill="#DC3165"/>
<path d="M370.848 418.552C373.756 424.754 374.951 432.683 366.116 437.57L362.785 430.232C362.785 430.232 368.12 424.427 370.848 418.552Z" fill="#C61851"/>
<path d="M145.805 151.785L154.001 154.506C154.038 159.191 155.275 162.498 157.031 164.839C149.57 161.257 145.805 151.785 145.805 151.785Z" fill="#298BBD"/>
<path d="M169.128 170.465C169.128 170.465 154.133 174.162 145.805 151.785L157.03 164.839L169.128 170.465Z" fill="#298BBD"/>
<path d="M166.712 165.647L169.128 170.465C169.128 170.465 161.445 170.729 157.03 164.839C160.044 166.303 163.496 166.591 166.712 165.647Z" fill="#186AAB"/>
<path d="M296.322 392.556L288.634 388.631C289.305 383.998 288.581 380.538 287.201 377.96C294.032 382.625 296.322 392.556 296.322 392.556Z" fill="#298BBD"/>
<path d="M276.092 370.576C276.092 370.576 291.473 369.191 296.322 392.556L287.201 377.961L276.092 370.576Z" fill="#298BBD"/>
<path d="M277.752 375.7L276.092 370.576C276.092 370.576 283.722 371.474 287.196 377.971C284.44 376.068 281.073 375.258 277.752 375.7V375.7Z" fill="#186AAB"/>
<path d="M59.2134 382.166V542.593H203.687C203.687 542.52 203.655 542.446 203.634 542.377C199.932 528.32 187.861 516.814 173.633 513.824C178.244 511.415 181.501 506.878 182.801 501.859C183.447 499.422 183.602 496.881 183.256 494.384C183.058 493.004 182.689 491.653 182.156 490.364C180.993 487.617 179.152 485.209 176.805 483.365C174.478 481.515 171.769 480.201 168.874 479.519C166.292 478.904 163.607 478.861 161.007 479.392C160.478 479.498 160.013 479.625 159.521 479.778C160.357 478.648 161.066 477.429 161.636 476.143C162.944 473.149 163.562 469.9 163.444 466.635C163.38 464.631 163.058 462.645 162.487 460.723C161.848 458.558 160.875 456.505 159.605 454.638C159.246 454.11 158.855 453.581 158.447 453.101C157.042 451.421 155.393 449.959 153.557 448.764C153.139 448.489 152.716 448.235 152.282 447.987L152.066 447.866C150.073 446.762 147.938 445.935 145.721 445.409C142.916 444.739 140.018 444.548 137.15 444.844C135.499 445.012 133.871 445.352 132.291 445.858C133.348 443.043 134.369 440.201 135.304 437.327C135.939 435.372 136.526 433.397 137.023 431.416C137.788 428.483 138.304 425.491 138.567 422.472C138.704 420.806 138.737 419.134 138.667 417.464C138.667 417.02 138.625 416.582 138.583 416.144C138.213 411.802 137.075 407.562 135.22 403.618C134.321 401.69 133.259 399.842 132.047 398.093C131.041 396.63 129.933 395.239 128.732 393.93C126.359 391.335 123.62 389.1 120.6 387.295C115.298 384.219 109.325 382.482 103.198 382.234C97.0721 381.987 90.9778 383.236 85.4442 385.874C83.509 386.82 81.4945 387.987 79.3637 387.718C77.4761 387.496 75.911 386.233 74.3037 385.224C69.7882 382.351 64.4744 381.5 59.2134 382.166Z" fill="#8DAF41"/>
<path d="M59.2134 394.59V542.578H178.566C178.704 541.243 178.786 539.898 178.815 538.542C178.867 535.937 178.73 533.259 177.852 530.866C176.673 527.628 174.273 525.187 171.751 523.19C164.828 517.615 156.177 514.626 147.286 514.738C149.138 512.228 150.416 509.343 151.029 506.286C151.78 502.84 151.573 499.254 150.432 495.916C150.432 495.848 150.384 495.779 150.358 495.71C148.021 489.471 141.47 485.414 135.823 487.49C138.206 484.944 139.751 481.728 140.248 478.278C140.951 474.3 140.35 470.202 138.535 466.592L138.318 466.191C137.005 463.885 135.088 461.98 132.772 460.681C132.45 460.488 132.118 460.312 131.778 460.153C129.462 459.056 126.88 458.645 124.338 458.97C122.922 459.154 121.551 459.591 120.288 460.259C120.225 452.402 118.772 444.619 115.995 437.269C115.72 436.54 115.424 435.821 115.112 435.108C114.562 433.83 113.965 432.579 113.319 431.357C112.147 429.115 110.803 426.965 109.301 424.928C105.223 419.332 99.7911 414.861 93.5128 411.933C89.3095 409.991 84.7294 408.999 80.0987 409.028C79.0888 409.028 78.0419 409.096 77.1271 408.621C75.9851 408.024 75.2765 406.73 74.5469 405.568C73.9507 404.625 73.2918 403.723 72.5747 402.868C69.0905 398.788 64.4202 395.895 59.2134 394.59V394.59Z" fill="#77932A"/>
<g opacity="0.5">
<path opacity="0.5" d="M117.782 396.587C112.664 392.361 106.007 390.306 99.3875 389.72C95.6882 389.345 91.9513 389.682 88.3791 390.713C84.4136 391.938 85.3019 397.755 89.4366 397.707C96.1516 397.628 102.919 396.989 108.931 399.741C111.998 401.192 114.624 403.433 116.538 406.233C118.452 409.033 119.586 412.291 119.823 415.673C119.897 417.036 119.823 418.436 120.262 419.73C120.776 421.111 121.801 422.242 123.126 422.888C124.451 423.534 125.974 423.646 127.379 423.201C128.606 422.763 126.226 410.417 125.835 409.054C124.461 404.187 121.655 399.844 117.782 396.587V396.587Z" fill="#F6EF83"/>
</g>
<g opacity="0.5">
<path opacity="0.5" d="M182.865 528.658C185.472 530.876 188.311 532.884 189.596 536.053C190.381 538.14 190.461 540.426 189.823 542.562H193.789C194.204 540.97 194.331 539.317 194.164 537.68C193.773 534.157 191.98 531.056 189.659 528.578C188.374 527.177 186.806 526.063 185.059 525.309C183.082 524.511 181.258 527.284 182.865 528.658Z" fill="#F6EF83"/>
</g>
<path d="M156.306 527.438C156.661 526.186 156.787 524.627 155.846 523.766C155.255 523.33 154.545 523.083 153.811 523.058C148.402 522.34 142.601 521.69 137.758 524.316C135.151 525.731 133.063 527.982 131.027 530.195C129.721 531.606 128.315 533.534 129.055 535.34C129.716 536.962 131.699 537.385 133.37 537.533C142.464 538.32 153.081 538.748 156.306 527.438Z" fill="#8DAF41"/>
<path d="M86.8243 483.592L87.3531 482.742L88.1462 481.511C88.5939 480.806 89.0398 480.102 89.4839 479.398C90.0602 478.494 90.6313 477.586 91.2076 476.672L91.2817 476.556L93.0265 473.766L94.7502 470.972C95.6332 469.546 96.5056 468.103 97.3939 466.661C97.452 466.566 97.5102 466.476 97.5631 466.381C99.5406 463.099 101.492 459.792 103.416 456.46C105.2 453.368 106.962 450.259 108.704 447.131C110.903 443.148 113.043 439.141 115.123 435.108C115.768 433.856 116.407 432.61 117.042 431.358C118.635 428.188 120.186 425.018 121.695 421.849C123.316 418.426 124.887 414.997 126.406 411.564C128.397 407.052 130.282 402.537 132.058 398.019C132.795 396.152 133.5 394.288 134.173 392.425C136.288 386.73 138.199 381.051 139.905 375.388C139.989 375.108 140.074 374.828 140.148 374.554C141.723 369.271 143.095 364.011 144.261 358.774C144.808 356.309 145.303 353.865 145.747 351.442C145.98 350.167 146.211 348.898 146.44 347.633C146.683 346.27 146.932 344.913 147.17 343.56C161.636 262.118 166.49 195.388 168.002 167.422C168.129 165.05 168.235 162.948 168.319 161.152C168.346 160.534 168.372 159.953 168.398 159.403C168.573 155.394 168.631 153.27 168.631 153.27H184.948C184.948 153.27 184.948 154.115 185.033 155.748C185.064 156.698 185.112 157.917 185.175 159.403C185.175 159.931 185.228 160.534 185.26 161.152C186.318 184.163 190.706 255.182 206.41 343.56C206.653 344.913 206.896 346.276 207.145 347.633C207.37 348.901 207.601 350.171 207.837 351.442C208.281 353.877 208.778 356.313 209.323 358.764C210.486 363.994 211.856 369.257 213.431 374.554C219.025 393.407 227.089 412.588 236.569 431.342C239.297 436.751 242.138 442.124 245.092 447.459C246.703 450.379 248.344 453.284 250.015 456.175C251.982 459.595 253.984 462.99 256.021 466.36C273.153 494.759 292.156 521.067 308.896 542.536H252.431C249.94 539.579 247.293 536.757 244.5 534.083C223.982 514.316 203.408 503.56 182.78 501.817C171.991 500.942 161.141 502.46 151.008 506.265C137.007 511.368 123.027 520.641 109.069 534.083C106.276 536.757 103.628 539.579 101.137 542.536H59.2135V523.407C68.3131 511.115 77.7194 497.707 86.8243 483.592ZM168.663 375.129C168.208 378.431 167.658 381.823 167.077 385.261C164.2 401.638 159.949 418.97 156.671 431.379C154.709 438.774 153.097 444.453 152.33 447.089C152.251 447.369 152.177 447.617 152.113 447.829L151.854 448.727H201.831C201.831 448.727 201.503 447.617 200.932 445.636C200.075 442.636 198.669 437.628 197.019 431.373C193.445 417.85 188.723 398.516 185.916 381.136C185.588 379.102 185.281 377.094 185.012 375.124L168.663 375.129Z" fill="#975E36"/>
<path d="M255.984 466.598H97.6105L89.7217 431.378H263.873L255.984 466.598Z" fill="#975E36"/>
<path d="M220.384 343.592L213.437 374.59L213.315 375.129H140.28L140.158 374.585L133.211 343.592H220.384Z" fill="#975E36"/>
<path d="M163.91 148.04H189.691V161.183H163.91V148.04Z" fill="#975E36"/>
<path d="M176.8 108.88C176.8 108.88 174.96 141.204 171.798 148.04H181.797C178.64 141.204 176.8 108.88 176.8 108.88Z" fill="#663915"/>
<path d="M97.616 531.664L82.621 510.771H125.237C125.237 510.771 109.444 516.666 97.616 531.664Z" fill="#663915"/>
<path d="M86.8243 504.448L107.345 469.229L140.232 504.448H86.8243Z" fill="#663915"/>
<path d="M147.333 500.766L113.531 466.598H169.17L147.333 500.766Z" fill="#663915"/>
<path d="M176.8 466.598L157.596 497.876C163.661 495.265 170.197 493.924 176.8 493.935V466.598Z" fill="#663915"/>
<path d="M122.345 431.378H151.806C151.806 431.378 157.332 417.052 157.623 411.928L122.345 431.378Z" fill="#663915"/>
<path d="M139.968 391.416L128.129 421.653L158.516 405.488L139.968 391.416Z" fill="#663915"/>
<path d="M159.568 400.364L142.072 387.485L165.337 375.261C165.337 375.261 162.582 390.697 159.568 400.364Z" fill="#663915"/>
<path d="M159.611 375.129H143.32L141.015 383.211L159.611 375.129Z" fill="#663915"/>
<path d="M150.316 343.592H176.795V310.649L150.316 343.592Z" fill="#663915"/>
<path d="M153.715 331.151L163.09 272.604L176.795 302.06L153.715 331.151Z" fill="#663915"/>
<path d="M176.795 288.394L165.253 266.318L176.795 237.929V288.394Z" fill="#663915"/>
<path d="M165.253 253.439L169.17 207.966L176.795 226.893L165.253 253.439Z" fill="#663915"/>
<path d="M169.868 201.659L176.795 217.956V183.788L169.868 201.659Z" fill="#663915"/>
<path d="M169.868 191.669L171.026 161.183L176.795 176.429L169.868 191.669Z" fill="#663915"/>
<path d="M176.795 161.183V169.921L173.332 161.183H176.795Z" fill="#663915"/>
<path d="M259.141 540.327L265.739 542.577H295.74L275.717 516.666L259.141 540.327Z" fill="#663915"/>
<path d="M255.984 531.664L270.979 510.771H228.363C228.363 510.771 244.146 516.666 255.984 531.664Z" fill="#663915"/>
<path d="M266.771 504.448L246.25 469.229L213.362 504.448H266.771Z" fill="#663915"/>
<path d="M206.262 500.766L240.069 466.598H184.425L206.262 500.766Z" fill="#663915"/>
<path d="M176.8 466.598L196.004 497.876C189.939 495.265 183.404 493.924 176.8 493.935V466.598Z" fill="#663915"/>
<path d="M231.255 431.378H201.794C201.794 431.378 196.268 417.052 195.978 411.928L231.255 431.378Z" fill="#663915"/>
<path d="M213.627 391.416L225.465 421.653L195.084 405.488L213.627 391.416Z" fill="#663915"/>
<path d="M194.042 400.364L211.533 387.485L188.269 375.261C188.269 375.261 191.018 390.697 194.042 400.364Z" fill="#663915"/>
<path d="M193.984 375.129H210.275L212.58 383.211L193.984 375.129Z" fill="#663915"/>
<path d="M203.279 343.592H176.795V310.649L203.279 343.592Z" fill="#663915"/>
<path d="M199.88 331.151L190.505 272.604L176.795 302.06L199.88 331.151Z" fill="#663915"/>
<path d="M176.795 288.394L188.343 266.318L176.795 237.929V288.394Z" fill="#663915"/>
<path d="M188.343 253.439L184.425 207.966L176.795 226.893L188.343 253.439Z" fill="#663915"/>
<path d="M183.727 201.659L176.795 217.956V183.788L183.727 201.659Z" fill="#663915"/>
<path d="M183.727 191.669L182.569 161.183L176.795 176.429L183.727 191.669Z" fill="#663915"/>
<path d="M176.795 161.183V169.921L180.263 161.183H176.795Z" fill="#663915"/>
<path d="M180.084 371.056H173.506V347.665H180.084V371.056Z" fill="#663915"/>
<path d="M175.595 149.794H178.154V159.429H175.595V149.794Z" fill="#663915"/>
<path d="M170.868 149.794H173.427V159.429H170.868V149.794Z" fill="#663915"/>
<path d="M166.146 149.794H168.705V159.429H166.146V149.794Z" fill="#663915"/>
<path d="M185.043 149.794H187.602V159.429H185.043V149.794Z" fill="#663915"/>
<path d="M180.316 149.794H182.875V159.429H180.316V149.794Z" fill="#663915"/>
<path d="M166.844 371.056H160.266L157.639 347.665H164.211L166.844 371.056Z" fill="#663915"/>
<path d="M153.604 371.056H147.027L141.766 347.665H148.343L153.604 371.056Z" fill="#663915"/>
<path d="M186.751 371.056H193.329L195.957 347.665H189.384L186.751 371.056Z" fill="#663915"/>
<path d="M199.996 371.056H206.568L211.834 347.665H205.257L199.996 371.056Z" fill="#663915"/>
<path d="M180.084 460.687H173.506V437.295H180.084V460.687Z" fill="#663915"/>
<path d="M166.188 460.687H159.611V437.295H166.188V460.687Z" fill="#663915"/>
<path d="M152.293 460.687H145.715V437.295H152.293V460.687Z" fill="#663915"/>
<path d="M138.387 460.686H131.81L129.97 437.29H136.547L138.387 460.686Z" fill="#663915"/>
<path d="M124.492 460.686H117.914L115.762 437.29H122.34L124.492 460.686Z" fill="#663915"/>
<path d="M110.591 460.686H104.014L100.725 437.29H107.303L110.591 460.686Z" fill="#663915"/>
<path d="M249.164 460.686H242.586L247.038 437.29H253.616L249.164 460.686Z" fill="#663915"/>
<path d="M235.268 460.686H228.691L231.255 437.29H237.833L235.268 460.686Z" fill="#663915"/>
<path d="M221.368 460.686H214.79L216.784 437.29H223.361L221.368 460.686Z" fill="#663915"/>
<path d="M207.473 460.687H200.895V437.295H207.473V460.687Z" fill="#663915"/>
<path d="M193.566 460.687H186.989V437.295H193.566V460.687Z" fill="#663915"/>
<g opacity="0.5">
<path opacity="0.5" d="M255.984 466.598L86.8297 483.682V483.592C90.404 478.056 93.9289 472.421 97.4045 466.687L97.6213 466.603L255.984 466.598Z" fill="#3A1A09"/>
</g>
<g opacity="0.5">
<path opacity="0.5" d="M168.663 375.129C168.208 378.431 167.658 381.822 167.077 385.266L163.222 386.106L145.515 389.984L134.226 392.451C136.341 386.759 138.251 381.081 139.957 375.414L140.322 375.129H168.663Z" fill="#3A1A09"/>
</g>
<g opacity="0.5">
<path opacity="0.5" d="M213.315 375.129L210.455 375.758L200.467 377.945L195.449 379.043L189.231 380.406L185.863 381.141C185.531 379.105 185.228 377.101 184.953 375.129H213.315Z" fill="#3A1A09"/>
</g>
<g opacity="0.5">
<path opacity="0.5" d="M185.271 161.183L168.012 167.454C168.139 165.082 168.245 162.984 168.33 161.183H185.271Z" fill="#3A1A09"/>
</g>
<path d="M365.883 539.059C367.901 533.274 371.3 528.069 375.788 523.894C380.275 519.719 385.714 516.701 391.633 515.103C401.097 512.646 411.085 514.014 420.761 515.404C415.965 507.084 416.447 495.858 422.384 488.314C428.322 480.771 439.553 477.712 448.293 481.695C443.804 473.734 446.4 462.551 453.929 457.395C457.768 454.855 462.417 453.836 466.968 454.537C471.514 455.112 475.686 457.352 478.674 460.824C478.626 446.291 487.361 432.076 500.352 425.546C503.872 423.74 507.589 422.347 511.43 421.394C530.073 416.952 543.27 427.464 552.671 442.736C561.21 456.576 566.641 474.326 570.194 488.373C570.546 489.827 570.899 491.236 571.251 492.599C573.223 500.781 575.016 509.102 576.01 517.459C576.953 524.892 577.012 532.41 576.184 539.857C576.073 540.771 575.946 541.685 575.804 542.593H364.91C365.173 541.399 365.498 540.22 365.883 539.059V539.059ZM516.987 528.045C517.593 528.638 518.312 529.103 519.101 529.413C519.89 529.724 520.733 529.873 521.581 529.852C522.639 529.794 523.696 529.698 524.754 529.561C525.166 529.561 525.573 529.561 525.986 529.561C526.708 530.163 527.539 530.622 528.434 530.914C532.019 532.07 535.73 529.551 536.798 526.159C536.873 525.932 536.941 525.7 537.015 525.472C537.433 525.214 537.851 524.944 538.253 524.654C542.281 521.829 545.504 518.006 547.606 513.56C547.958 512.821 548.283 512.06 548.579 511.278C550.271 506.846 549.721 501.479 547.997 497.147C544.206 487.638 535.715 479.186 525.029 478.536C524.153 478.509 523.281 478.669 522.472 479.007C521.663 479.344 520.936 479.85 520.339 480.491C519.457 480.708 518.628 481.101 517.901 481.646C517.174 482.19 516.565 482.876 516.109 483.66C515.977 483.903 515.85 484.152 515.728 484.4C515.388 484.238 515.034 484.107 514.671 484.009C512.979 483.576 511.189 483.753 509.616 484.511C509.452 484.595 509.299 484.685 509.145 484.78C507.955 483.899 506.528 483.395 505.048 483.333C501.267 483.164 498.391 486.577 498.243 490.126C498.142 492.567 498.126 495.018 498.243 497.459V516.582C498.256 518.218 498.861 519.795 499.945 521.021C501.029 522.248 502.52 523.043 504.143 523.259C505.35 523.408 506.575 523.241 507.697 522.773C507.977 523.032 508.262 523.301 508.553 523.523C511.055 525.535 513.907 527.068 516.965 528.045H516.987Z" fill="#8DAF41"/>
<path d="M405.115 542.229C413.131 533.158 424.948 526.909 437.406 524.109C432.901 518.753 433.81 510.264 439.431 505.256C445.051 500.248 454.664 499.339 460.792 503.243C457.588 498.166 460.184 490.913 465.804 487.321C467.056 486.53 468.402 485.9 469.812 485.446C474.83 483.875 480.25 484.199 485.045 486.354C483.081 477.688 484.203 468.61 488.218 460.681C489.651 457.807 491.538 454.949 494.462 453.116C496.63 451.759 499.221 451.067 501.775 450.575C504.104 450.125 506.463 449.846 508.833 449.741C516.529 449.39 524.209 450.7 531.352 453.581C532.41 454.014 533.467 454.474 534.525 454.97C548.579 461.732 556.462 472.884 559.904 485.905C560.65 488.734 561.196 491.611 561.538 494.516C562.409 501.855 563.114 509.203 563.653 516.56C564.288 525.213 564.663 533.887 564.779 542.583H404.793C404.909 542.456 405.01 542.34 405.115 542.229ZM516.965 528.05C517.571 528.643 518.29 529.108 519.08 529.418C519.869 529.729 520.712 529.878 521.56 529.857C522.617 529.799 523.675 529.704 524.732 529.566C525.145 529.566 525.552 529.566 525.964 529.566C526.687 530.168 527.518 530.627 528.412 530.919C531.997 532.076 535.709 529.556 536.777 526.164C536.851 525.937 536.92 525.705 536.994 525.478C537.412 525.219 537.829 524.949 538.231 524.659C542.26 521.834 545.483 518.011 547.585 513.565C547.937 512.826 548.261 512.065 548.558 511.283C550.25 506.851 549.7 501.484 547.976 497.152C544.185 487.643 535.693 479.191 525.007 478.541C524.131 478.514 523.26 478.675 522.451 479.012C521.642 479.349 520.915 479.855 520.318 480.496C519.436 480.714 518.607 481.107 517.88 481.651C517.153 482.196 516.544 482.881 516.088 483.666C515.955 483.909 515.829 484.157 515.707 484.405C515.367 484.243 515.013 484.112 514.649 484.014C512.958 483.581 511.168 483.758 509.595 484.516C509.431 484.601 509.277 484.69 509.124 484.786C507.934 483.904 506.506 483.4 505.026 483.338C501.246 483.169 498.369 486.582 498.221 490.131C498.121 492.572 498.105 495.023 498.221 497.464V516.587C498.235 518.223 498.839 519.8 499.924 521.027C501.008 522.253 502.499 523.048 504.122 523.264C505.329 523.414 506.553 523.246 507.675 522.778C507.955 523.037 508.241 523.306 508.532 523.528C511.04 525.541 513.899 527.072 516.965 528.045V528.05Z" fill="#77932A"/>
<g opacity="0.5">
<path opacity="0.5" d="M374.343 542.577H382.586C385.071 538.341 389.092 535.222 393.817 533.866C395.138 533.502 396.518 533.275 397.703 532.588C398.944 531.795 399.834 530.556 400.189 529.128C400.544 527.699 400.338 526.188 399.612 524.907C398.924 523.803 387.334 528.7 386.081 529.371C381.606 531.735 377.945 535.386 375.57 539.851C375.107 540.735 374.697 541.645 374.343 542.577V542.577Z" fill="#F6EF83"/>
</g>
<g opacity="0.5">
<path opacity="0.5" d="M497.746 435.747C494.377 436.861 491.718 439.26 489.777 442.049C488.672 443.595 487.907 445.357 487.536 447.221C487.155 449.334 490.248 450.533 491.237 448.668C492.865 445.662 494.229 442.472 497.085 440.549C499.94 438.626 504.233 438.404 507.659 440.089C508.326 440.477 509.036 440.786 509.774 441.008C511.361 441.368 513.063 440.3 513.259 438.795C513.349 438.129 506.65 435.789 505.856 435.588C503.193 434.87 500.379 434.925 497.746 435.747V435.747Z" fill="#F6EF83"/>
</g>
<path d="M466.666 527.136C467.761 526.783 468.966 526.112 469.136 525.023C469.171 524.375 469.007 523.732 468.665 523.18C466.55 518.864 464.176 514.289 459.877 512.028C457.561 510.808 454.886 510.38 452.263 509.968C450.582 509.704 448.478 509.614 447.505 511.024C446.638 512.303 447.293 513.962 448.033 515.251C451.899 522.308 456.784 530.306 466.666 527.136Z" fill="#8DAF41"/>
<path d="M429.47 507.717C430.046 508.013 430.791 508.245 431.299 507.849C431.565 507.604 431.75 507.283 431.828 506.93C432.705 504.368 433.583 501.61 432.774 499.006C432.254 497.613 431.509 496.314 430.569 495.16C430.004 494.389 429.205 493.517 428.253 493.702C427.397 493.866 427 494.759 426.768 495.588C425.514 499.931 424.277 505.049 429.47 507.717Z" fill="#77932A"/>
<path d="M444.703 534.722C444.946 534.136 445.094 533.386 444.703 532.916C444.44 532.672 444.11 532.513 443.756 532.461C441.171 531.806 438.395 531.167 435.894 532.171C434.568 532.795 433.353 533.632 432.298 534.648C431.585 535.261 430.797 536.117 431.05 537.036C431.283 537.86 432.219 538.177 433.023 538.341C437.374 539.228 442.503 540.026 444.703 534.722Z" fill="#8DAF41"/>
<path d="M464.609 481.436C465.165 481.125 465.746 480.628 465.72 480.01C465.669 479.654 465.51 479.322 465.265 479.059C463.647 476.946 461.871 474.717 459.296 473.946C457.867 473.611 456.394 473.511 454.933 473.65C453.998 473.687 452.819 473.861 452.47 474.743C452.136 475.531 452.676 476.36 453.204 476.989C456.07 480.422 459.586 484.215 464.609 481.436Z" fill="#77932A"/>
<path d="M455.769 422.731C456.34 417.565 456.89 412.213 454.865 407.311C453.02 402.863 449.207 399.186 445.141 395.927C438.876 390.903 431.309 386.418 422.665 385.832C421.627 385.69 420.571 385.825 419.603 386.223C418.414 386.83 417.943 388.066 417.605 389.202C412.566 406.033 416.954 424.4 428.179 438.859C431.759 443.465 441.398 456.408 449.329 452.213C456.753 448.278 455.039 429.123 455.769 422.731Z" fill="#F28029"/>
<path d="M443.37 121.331C444.819 128.896 448.827 135.964 453.564 142.514C458.106 148.801 463.61 154.897 471.24 158.505C481.815 163.481 494.785 162.963 506.666 161.04C513.856 159.878 521.031 158.219 527.35 155.119C534.525 151.59 540.262 146.36 545.623 141.025C559.259 127.448 571.468 112.129 575.486 94.7014C576.517 90.227 568.729 66.6401 568.391 61.4209L453.527 79.9101C452.232 82.3348 451.037 84.8017 449.91 87.2793C444.972 98.1615 441.165 109.852 443.37 121.331Z" fill="#F28029"/>
<path d="M427.83 237.538C461.527 205.462 517.029 195.753 554.517 166.783C571.066 154.094 583.649 136.952 590.788 117.369C595.367 104.612 592.147 33.8457 591.275 21.833L782.758 79.9418V542.593H513.1C506.735 537.945 500.76 532.786 495.234 527.168C483.374 515.018 474.386 500.628 469.791 485.435C466.67 475.443 465.694 464.906 466.925 454.511C467.142 452.783 467.422 451.056 467.777 449.339C470.315 436.983 476.289 424.722 474.021 412.329C470.262 391.727 446.146 379.149 429.353 363.808C424.085 359.01 419.422 353.586 415.468 347.659C404.206 330.793 399.269 310.494 401.531 290.344C403.793 270.195 413.108 251.493 427.83 237.538ZM514.232 522.445C517.632 523.877 521.666 524.078 525.579 523.792C527.204 523.749 528.806 523.39 530.295 522.736C531.573 522.051 532.683 521.089 533.541 519.92C535.59 517.345 536.99 514.316 537.623 511.088C538.22 508.046 538.191 504.915 537.539 501.885C536.931 499.043 535.752 496.186 533.245 494.331C531.622 493.127 529.544 492.43 527.429 491.896C523.67 490.94 517.039 489.73 511.519 490.137C509.071 490.316 506.84 490.813 505.174 491.796C499.887 494.907 502.716 502.889 503.588 507.02C504.942 513.174 507.739 519.709 514.232 522.445V522.445ZM762.899 103.656C757.675 94.3264 734.585 90.1161 725.728 97.3691C724.411 98.4458 723.346 99.7983 722.609 101.331C721.516 103.624 721.169 106.201 721.615 108.7C722.328 112.752 724.903 116.461 728.213 119.477C730.004 121.218 732.163 122.534 734.532 123.328C736.5 123.835 738.527 124.08 740.559 124.057C743.93 124.104 747.287 123.635 750.515 122.668C760.065 119.847 768.091 112.926 762.899 103.656V103.656Z" fill="#F39428"/>
<path d="M474.449 293.978C473.36 290.84 471.88 287.734 469.426 285.489C466.973 283.243 463.378 282.018 460.226 283.08C455.743 284.596 453.823 289.836 453.051 294.506C451.608 303.196 452.1 312.303 455.23 320.539C457.376 326.196 471.092 347.829 476.379 336.244C481.149 325.843 478.045 304.305 474.449 293.978Z" fill="#F39428"/>
<path d="M435.037 403.708C434.519 401.954 433.574 400.355 432.288 399.054C430.945 397.828 428.972 397.152 427.249 397.739C424.79 398.568 423.743 401.436 423.315 403.993C422.454 408.77 422.866 413.689 424.51 418.256C425.684 421.352 433.186 433.201 436.1 426.856C438.717 421.162 437.009 409.36 435.037 403.708Z" fill="#F39428"/>
<path d="M685.655 123.423C675.778 123.978 664.637 131.643 658.06 141.257C656.508 143.542 655.522 146.163 655.185 148.903C654.848 151.644 655.169 154.425 656.121 157.017C657.073 159.609 658.63 161.937 660.661 163.809C662.693 165.681 665.142 167.042 667.804 167.781C684.724 172.535 708.925 172.382 722.439 164.252C725.773 162.272 728.308 159.189 729.606 155.537C730.904 151.885 730.883 147.895 729.546 144.258C723.766 128.822 701.58 121.173 685.655 123.423Z" fill="#F39428"/>
<path d="M535.117 135.119C540.759 130.042 544.354 121.246 545.322 112.181C547.046 95.9743 529.851 84.5269 515.432 92.1392C496.355 102.203 476.337 121.949 479.663 137.976C491.464 158.13 521.624 149.477 535.117 135.119Z" fill="#F39428"/>
<path d="M534.663 465.308C531.977 460.744 530.063 455.055 532.241 450.221C535.054 443.961 543.144 442.25 550.007 442.477C563.653 442.926 612.684 460.142 599.306 481.362C593.231 490.987 573.266 489.598 563.881 487.131C551.852 483.972 540.997 476.064 534.663 465.308Z" fill="#F39428"/>
<path d="M286.075 431.421L305.638 458.283L327.576 488.394C327.576 488.394 343.089 474.622 351.205 446.339C353.315 438.935 354.731 431.352 355.435 423.687C356.445 412.916 356.9 404.205 357.36 397.052C358.761 375.251 360.183 367.871 377.288 360.422L350.819 308.125C350.819 308.125 331.34 317.105 317.614 330.908C310.275 338.304 304.586 347.02 304.396 356.492C304.105 371.785 311.566 382.044 310.683 394.601C310.006 404.353 304.306 415.478 286.075 431.421Z" fill="white"/>
<path d="M286.075 431.421L296.93 446.323C296.93 446.323 312.264 429.619 319.692 402.863C325.799 380.929 294.08 347.501 358.56 323.433L350.814 308.114C278.477 344.463 312.692 372.715 309.213 397.036C306.886 413.333 294.445 424.104 286.075 431.421Z" fill="#298BBD"/>
<path d="M303.64 455.663L311.344 466.228C311.344 466.228 325.334 457.564 332.789 430.834C338.896 408.901 326.212 349.133 374.396 345.303L366.65 329.984C307.817 351.215 330.447 376.001 326.994 400.327C324.641 416.619 312.005 448.341 303.64 455.663Z" fill="#298BBD"/>
<path d="M316.811 473.555L327.666 488.457C327.666 488.457 345.31 472.081 353.817 435.293C359.972 408.706 349.259 370.09 377.669 360.09L369.923 344.77C335.988 361.246 343.427 414.849 339.948 439.176C337.622 455.441 325.17 466.207 316.811 473.555Z" fill="#298BBD"/>
<path d="M350.28 306.497C350.281 306.864 350.368 307.226 350.534 307.554L350.814 308.082L377.283 360.38L470.87 545.377H476.215L354.779 305.42C354.639 305.14 354.444 304.891 354.207 304.686C353.969 304.482 353.694 304.326 353.397 304.228C353.099 304.13 352.785 304.091 352.472 304.114C352.16 304.138 351.855 304.222 351.575 304.363C351.182 304.563 350.853 304.869 350.624 305.246C350.395 305.623 350.276 306.056 350.28 306.497V306.497Z" fill="white"/>
<path opacity="0.2" d="M286.075 431.421L327.581 488.404C327.581 488.404 343.094 474.632 351.211 446.349C353.32 438.946 354.736 431.363 355.441 423.698C356.45 412.926 356.905 404.215 357.365 397.063C358.766 375.261 360.189 367.881 377.293 360.433C377.293 360.433 352.252 355.23 343.84 403.893C333.593 463.111 286.075 431.421 286.075 431.421Z" fill="#0A2E11"/>
<path d="M331.568 371.69C331.568 371.69 352.987 361.225 377.283 360.433L350.814 308.135C350.814 308.135 328.474 340.903 331.568 371.69Z" fill="#F61F21"/>
<path d="M634.277 431.854L614.714 458.716L592.776 488.827C592.776 488.827 577.258 475.055 569.147 446.772C567.035 439.369 565.619 431.786 564.917 424.12C563.912 413.349 563.452 404.638 562.998 397.485C561.597 375.684 560.169 368.304 543.064 360.856L569.533 308.558C569.533 308.558 589.017 317.538 602.738 331.336C610.077 338.732 615.771 347.454 615.956 356.92C616.242 372.24 608.787 382.477 609.664 395.034C610.346 404.781 616.052 415.911 634.277 431.854Z" fill="white"/>
<path d="M634.277 431.854L592.776 488.837C592.776 488.837 577.258 475.065 569.147 446.782L609.664 395.013C610.346 404.78 616.052 415.911 634.277 431.854Z" fill="#C61851"/>
<path d="M602.759 331.336L563.019 397.496C561.618 375.695 560.19 368.315 543.085 360.866L569.554 308.568C569.554 308.568 589.012 317.554 602.759 331.336Z" fill="#298BBD"/>
<path d="M570.077 306.93C570.074 307.298 569.986 307.66 569.818 307.987L569.538 308.515L543.075 360.813L449.488 545.81H444.137L565.573 305.8C565.713 305.52 565.907 305.27 566.144 305.065C566.382 304.86 566.657 304.704 566.955 304.606C567.253 304.508 567.567 304.47 567.88 304.493C568.192 304.517 568.497 304.602 568.777 304.743C569.178 304.948 569.514 305.262 569.744 305.649C569.974 306.036 570.09 306.48 570.077 306.93V306.93Z" fill="white"/>
<path opacity="0.2" d="M634.277 431.854L592.776 488.838C592.776 488.838 577.258 475.066 569.147 446.783C567.035 439.38 565.619 431.796 564.917 424.131C563.912 413.359 563.452 404.648 562.998 397.496C561.597 375.694 560.169 368.315 543.064 360.866C543.064 360.866 568.111 355.663 576.523 404.326C586.759 463.544 634.277 431.854 634.277 431.854Z" fill="#0A2E11"/>
<path d="M358.909 337.871L351.449 342.129L346.262 336.952L346.833 344.759L339.372 349.012L347.187 349.582L347.758 357.39L352.014 349.936L359.829 350.502L354.647 345.325L358.909 337.871Z" fill="white"/>
</g>
</g>
<defs>
<clipPath id="clip0_536_60">
<rect width="1236" height="613" fill="white" transform="matrix(-1 0 0 1 1236 0)"/>
</clipPath>
</defs>
</svg>
