<svg width="16" height="17" viewBox="0 0 16 17" fill="none" xmlns="http://www.w3.org/2000/svg">
<path d="M6.63186 2.94705C7.03856 2.68116 7.51394 2.53955 7.99986 2.53955C8.48577 2.53955 8.96115 2.68116 9.36786 2.94705L14.7739 6.48105C14.8429 6.52617 14.8997 6.58767 14.9392 6.66006C14.9787 6.73244 14.9996 6.81348 15.0002 6.89594C15.0008 6.9784 14.981 7.05972 14.9426 7.13267C14.9041 7.20562 14.8482 7.26793 14.7799 7.31405L9.40186 10.954C8.98813 11.2341 8.49997 11.3838 8.00036 11.3838C7.50074 11.3838 7.01258 11.2341 6.59886 10.954L1.99986 7.84305V11C1.99986 11.1327 1.94718 11.2598 1.85341 11.3536C1.75964 11.4474 1.63246 11.5 1.49986 11.5C1.36725 11.5 1.24007 11.4474 1.1463 11.3536C1.05253 11.2598 0.999856 11.1327 0.999856 11V7.00005C0.999856 6.98405 0.999856 6.96705 1.00186 6.95005C0.99303 6.85903 1.00923 6.76734 1.04871 6.68486C1.08818 6.60239 1.14944 6.53226 1.22586 6.48205L6.63186 2.94805V2.94705ZM2.99986 11.999V9.72605L6.03786 11.783C6.61705 12.1751 7.30043 12.3847 7.99986 12.3847C8.69928 12.3847 9.38266 12.1751 9.96186 11.783L12.9999 9.72605V12C12.9999 12.1187 12.9577 12.2336 12.8809 12.324L12.4999 12L12.8809 12.324L12.8799 12.326L12.8779 12.328L12.8719 12.335L12.8519 12.357C12.7488 12.4695 12.641 12.5776 12.5289 12.681C12.3089 12.884 11.9869 13.152 11.5709 13.421C10.7409 13.957 9.52186 14.501 8.00086 14.501C6.47786 14.501 5.25986 13.957 4.42886 13.421C4.08866 13.2022 3.76783 12.9546 3.46986 12.681C3.35802 12.5776 3.25059 12.4695 3.14786 12.357L3.12786 12.335L3.12186 12.328L3.11986 12.326L3.49986 12.001C3.11886 12.324 3.11986 12.325 3.11986 12.325C3.04263 12.2343 3.00011 12.1192 2.99986 12V11.999Z" fill="#078BD6"/>
</svg>
