<svg width="280" height="94" viewBox="0 0 280 94" fill="none" xmlns="http://www.w3.org/2000/svg">
<g clip-path="url(#clip0_495_3888)">
<path d="M63.7117 75.2794C63.4481 75.2812 63.1914 75.1958 62.9817 75.0363C62.7721 74.8769 62.6214 74.6526 62.5533 74.3985C62.4853 74.1445 62.5036 73.875 62.6055 73.6325C62.7074 73.3899 62.8871 73.188 63.1165 73.0583L99.7697 51.9283L50.8194 23.7311C50.5603 23.5668 50.3748 23.3089 50.3018 23.0113C50.2287 22.7138 50.2737 22.3996 50.4274 22.1344C50.581 21.8691 50.8315 21.6734 51.1263 21.5881C51.4212 21.5027 51.7377 21.5343 52.0098 21.6763L102.746 50.8949C102.929 50.9985 103.081 51.1487 103.187 51.3303C103.293 51.5118 103.349 51.7182 103.349 51.9283C103.349 52.1384 103.293 52.3448 103.187 52.5263C103.081 52.7078 102.929 52.858 102.746 52.9616L64.3069 75.1013C64.1278 75.2122 63.9224 75.2736 63.7117 75.2794Z" fill="white"/>
<path d="M61.1046 93.3454H49.7122V92.1576C49.7748 89.6951 49.3428 87.2451 48.4416 84.9517C47.5403 82.6584 46.1882 80.5683 44.4647 78.8045C42.7412 77.0407 40.6814 75.639 38.4065 74.682C36.1316 73.7249 33.6878 73.2319 31.2189 73.2319C28.7501 73.2319 26.3062 73.7249 24.0313 74.682C21.7564 75.639 19.6966 77.0407 17.9731 78.8045C16.2497 80.5683 14.8975 82.6584 13.9963 84.9517C13.0951 87.2451 12.663 89.6951 12.7257 92.1576V93.3454H1.19043C0.874705 93.3454 0.571915 93.2202 0.348667 92.9975C0.125419 92.7747 0 92.4726 0 92.1576C0 91.8426 0.125419 91.5405 0.348667 91.3178C0.571915 91.095 0.874705 90.9699 1.19043 90.9699H10.3805C10.6918 85.6676 13.0222 80.6845 16.8949 77.0403C20.7676 73.3961 25.8896 71.3662 31.213 71.3662C36.5363 71.3662 41.6584 73.3961 45.531 77.0403C49.4037 80.6845 51.7341 85.6676 52.0454 90.9699H61.0927C61.4084 90.9699 61.7112 91.095 61.9344 91.3178C62.1577 91.5405 62.2831 91.8426 62.2831 92.1576C62.2831 92.4726 62.1577 92.7747 61.9344 92.9975C61.7112 93.2202 61.4084 93.3454 61.0927 93.3454H61.1046Z" fill="white"/>
<path d="M58.3904 85.4823C58.2096 85.4833 58.0309 85.4432 57.868 85.365C57.705 85.2868 57.5621 85.1725 57.45 85.031C57.2595 84.7816 37.8199 59.7795 32.5106 20.3105C32.4679 19.9955 32.5525 19.6765 32.7456 19.4237C32.9387 19.1709 33.2246 19.005 33.5403 18.9624C33.856 18.9199 34.1757 19.0043 34.4291 19.197C34.6825 19.3896 34.8488 19.6748 34.8914 19.9898C40.1055 58.7817 59.1523 83.3088 59.3428 83.5582C59.4811 83.7329 59.5675 83.9429 59.592 84.1642C59.6165 84.3855 59.5781 84.6093 59.4813 84.8099C59.3845 85.0105 59.2331 85.18 59.0445 85.2989C58.8558 85.4178 58.6374 85.4813 58.4142 85.4823H58.3904Z" fill="white"/>
<path d="M3.08316 85.4823C2.85999 85.4813 2.6416 85.4177 2.45292 85.2988C2.26424 85.1799 2.11286 85.0105 2.01605 84.8099C1.91924 84.6092 1.88089 84.3855 1.90539 84.1642C1.92989 83.9428 2.01624 83.7329 2.15461 83.5582C2.34507 83.3087 21.3919 58.7817 26.606 19.9898C26.6486 19.6748 26.8149 19.3896 27.0683 19.197C27.3216 19.0043 27.6414 18.9199 27.9571 18.9624C28.2728 19.005 28.5587 19.1709 28.7518 19.4237C28.9449 19.6765 29.0294 19.9955 28.9868 20.3105C23.6775 59.7794 4.23787 84.7815 4.0474 85.031C3.93284 85.1757 3.78605 85.2919 3.61868 85.3702C3.45131 85.4486 3.26797 85.487 3.08316 85.4823Z" fill="white"/>
<path d="M37.9507 15.1084H23.4275C23.1118 15.1084 22.809 14.9833 22.5857 14.7605C22.3625 14.5378 22.2371 14.2357 22.2371 13.9207C22.2371 13.6056 22.3625 13.3036 22.5857 13.0808C22.809 12.8581 23.1118 12.7329 23.4275 12.7329H37.9507C38.2664 12.7329 38.5692 12.8581 38.7924 13.0808C39.0157 13.3036 39.1411 13.6056 39.1411 13.9207C39.1411 14.2357 39.0157 14.5378 38.7924 14.7605C38.5692 14.9833 38.2664 15.1084 37.9507 15.1084Z" fill="white"/>
<path d="M38.9389 64.8985H22.4753C22.1596 64.8985 21.8568 64.7734 21.6336 64.5506C21.4103 64.3279 21.2849 64.0257 21.2849 63.7107C21.2849 63.3957 21.4103 63.0936 21.6336 62.8709C21.8568 62.6481 22.1596 62.5229 22.4753 62.5229H38.9746C39.2904 62.5229 39.5931 62.6481 39.8164 62.8709C40.0396 63.0936 40.1651 63.3957 40.1651 63.7107C40.1651 64.0257 40.0396 64.3279 39.8164 64.5506C39.5931 64.7734 39.2904 64.8985 38.9746 64.8985H38.9389Z" fill="white"/>
<path d="M30.6892 8.84875C30.3735 8.84875 30.0707 8.72359 29.8474 8.50085C29.6242 8.2781 29.4988 7.97601 29.4988 7.661V1.18775C29.4988 0.872739 29.6242 0.570647 29.8474 0.347901C30.0707 0.125155 30.3735 0 30.6892 0C31.0049 0 31.3077 0.125155 31.531 0.347901C31.7542 0.570647 31.8796 0.872739 31.8796 1.18775V7.661C31.8796 7.97601 31.7542 8.2781 31.531 8.50085C31.3077 8.72359 31.0049 8.84875 30.6892 8.84875Z" fill="white"/>
<path d="M59.9737 61.0739C59.7256 61.0723 59.4842 60.9934 59.2833 60.8482C59.0804 60.7024 58.9287 60.4966 58.8496 60.26C58.7706 60.0234 58.7682 59.7679 58.8428 59.5298L61.0332 52.819L55.3073 48.6738C55.1041 48.5257 54.9532 48.3172 54.8762 48.0782C54.7992 47.8392 54.8001 47.582 54.8787 47.3435C54.9565 47.1054 55.1078 46.8979 55.3109 46.7507C55.514 46.6035 55.7586 46.5242 56.0096 46.524H63.0808L65.3307 39.8132C65.4114 39.5651 65.5717 39.3504 65.7868 39.2023C66.002 39.0542 66.26 38.9809 66.5211 38.9936C66.7721 38.9938 67.0167 39.0732 67.2198 39.2204C67.4229 39.3676 67.5742 39.575 67.652 39.8132L69.8305 46.524H76.9016C77.1535 46.5231 77.3992 46.6019 77.6034 46.7492C77.8075 46.8965 77.9596 47.1046 78.0377 47.3436C78.1157 47.5826 78.1158 47.8401 78.0379 48.0791C77.9599 48.3182 77.808 48.5264 77.6039 48.6738L71.878 52.819L74.0684 59.5298C74.1433 59.768 74.1412 60.0236 74.0623 60.2604C73.9834 60.4973 73.8317 60.7033 73.6287 60.8492C73.4258 60.9952 73.1819 61.0736 72.9318 61.0735C72.6816 61.0733 72.4378 60.9945 72.2351 60.8482L66.402 56.6792L60.6761 60.8244C60.4748 60.9805 60.2286 61.0679 59.9737 61.0739ZM66.402 54.0543C66.6501 54.0559 66.8915 54.1348 67.0925 54.2799L70.5566 56.7861L69.2352 52.724C69.1594 52.4871 69.1599 52.2325 69.2368 51.996C69.3137 51.7595 69.463 51.5529 69.6638 51.4056L73.116 48.8995H68.9019C68.6409 48.9122 68.3828 48.8389 68.1677 48.6908C67.9525 48.5426 67.7922 48.328 67.7115 48.0799L66.402 44.0297L65.0807 48.0799C65.0028 48.318 64.8516 48.5255 64.6485 48.6727C64.4453 48.8199 64.2008 48.8993 63.9498 48.8995H59.6761L63.1284 51.4056C63.3312 51.5514 63.483 51.7572 63.562 51.9938C63.6411 52.2305 63.6435 52.4859 63.5688 52.724L62.2475 56.7861L65.6997 54.2799C65.9039 54.1324 66.1499 54.0534 66.402 54.0543Z" fill="white"/>
<path d="M109.233 26.1305C109.233 24.9427 109.829 24.6221 110.733 24.6221H115.019C118.066 24.6221 118.888 26.2968 118.888 27.7577C118.914 28.3591 118.737 28.9519 118.385 29.4409C118.033 29.9299 117.527 30.2867 116.947 30.4539C118.257 30.644 118.495 31.6417 118.495 32.7344C118.547 33.5341 118.662 34.3284 118.84 35.1099C118.797 35.3931 118.653 35.6513 118.434 35.8368C118.215 36.0223 117.937 36.1227 117.65 36.1195C116.233 36.1195 116.126 34.7535 116.126 34.3022C116.126 32.3305 115.757 31.5347 114.352 31.5347H111.757V34.8248C111.757 35.165 111.622 35.4913 111.381 35.7318C111.139 35.9724 110.812 36.1076 110.471 36.1076C110.13 36.1076 109.803 35.9724 109.562 35.7318C109.321 35.4913 109.186 35.165 109.186 34.8248L109.233 26.1305ZM111.805 29.6937H114.376C115.34 29.6937 116.316 29.4443 116.316 28.1734C116.316 26.9025 115.578 26.6531 114.447 26.6531H111.757L111.805 29.6937Z" fill="white"/>
<path d="M120.912 26.1305C120.912 24.9427 121.507 24.6221 122.412 24.6221H128.423C129.173 24.6221 129.721 24.8477 129.721 25.6554C129.721 26.4631 129.173 26.6887 128.423 26.6887H123.447V29.1236H127.816C128.483 29.1236 129.007 29.3137 129.007 30.1095C129.007 30.9053 128.471 31.0953 127.816 31.0953H123.447V33.8152H128.542C129.304 33.8152 129.852 34.0409 129.852 34.8486C129.852 35.6562 129.304 35.8819 128.542 35.8819H122.471C121.566 35.8819 120.971 35.5256 120.971 34.3853L120.912 26.1305Z" fill="white"/>
<path d="M131.578 26.1305C131.578 24.9427 132.173 24.6221 133.078 24.6221H137.018C139.184 24.6221 140.922 25.691 140.922 28.1853C140.925 28.6837 140.822 29.177 140.622 29.6334C140.421 30.0898 140.127 30.4991 139.758 30.835C139.388 31.1708 138.953 31.4256 138.479 31.583C138.005 31.7403 137.503 31.7967 137.006 31.7486H134.149V34.7892C134.149 35.1294 134.014 35.4557 133.772 35.6963C133.531 35.9368 133.204 36.072 132.863 36.072C132.522 36.072 132.195 35.9368 131.954 35.6963C131.713 35.4557 131.578 35.1294 131.578 34.7892V26.1305ZM134.149 29.7888H136.53C136.756 29.8118 136.985 29.7877 137.201 29.718C137.418 29.6483 137.617 29.5344 137.788 29.3837C137.958 29.2329 138.095 29.0486 138.19 28.8423C138.284 28.636 138.335 28.4123 138.339 28.1853C138.339 27.0688 137.542 26.5937 136.268 26.5937H134.137L134.149 29.7888Z" fill="white"/>
<path d="M147.815 24.3608C148.583 24.307 149.353 24.4192 150.074 24.69C150.794 24.9607 151.447 25.3834 151.989 25.9293C152.53 26.4751 152.947 27.1312 153.211 27.8527C153.475 28.5742 153.579 29.344 153.517 30.1095C153.517 33.2926 151.672 36.1551 147.815 36.1551C143.768 36.1551 142.113 33.5183 142.113 30.1095C142.051 29.344 142.156 28.5742 142.419 27.8527C142.683 27.1312 143.1 26.4751 143.642 25.9293C144.183 25.3834 144.836 24.9607 145.557 24.69C146.277 24.4192 147.047 24.307 147.815 24.3608ZM147.815 34.0884C150.196 34.0884 150.946 32.2712 150.946 30.1095C150.946 27.9478 149.922 26.4274 147.815 26.4274C145.708 26.4274 144.684 27.9596 144.684 30.1095C144.684 32.2593 145.399 34.1122 147.815 34.1122V34.0884Z" fill="white"/>
<path d="M161.303 29.3613C163.683 29.8957 164.255 31.2854 164.255 32.6038C164.255 34.6348 162.719 36.167 159.612 36.167C156.505 36.167 154.851 34.5399 154.851 33.3165C154.845 33.1737 154.87 33.0314 154.923 32.8986C154.976 32.7658 155.055 32.6454 155.157 32.545C155.259 32.4445 155.381 32.3662 155.514 32.315C155.648 32.2638 155.791 32.2408 155.934 32.2475C157.327 32.2475 156.969 34.2904 159.565 34.2904C160.898 34.2904 161.636 33.554 161.636 32.8058C161.636 32.3425 161.422 31.8436 160.541 31.618L157.636 30.8816C155.255 30.2877 154.886 29.0049 154.886 27.8053C154.886 25.2992 157.196 24.3608 159.374 24.3608C161.553 24.3608 163.755 25.4892 163.755 26.9858C163.749 27.1327 163.713 27.2769 163.649 27.4093C163.585 27.5417 163.495 27.6596 163.383 27.7554C163.271 27.8513 163.141 27.9231 163 27.9665C162.859 28.0098 162.711 28.0236 162.564 28.0072C161.374 28.0072 161.588 26.3325 159.196 26.3325C158.005 26.3325 157.35 26.8789 157.35 27.6628C157.35 28.4467 158.291 28.6961 159.1 28.8505L161.303 29.3613Z" fill="white"/>
<path d="M166.136 25.7027C166.136 25.3625 166.271 25.0362 166.512 24.7956C166.753 24.5551 167.08 24.4199 167.421 24.4199C167.762 24.4199 168.089 24.5551 168.331 24.7956C168.572 25.0362 168.707 25.3625 168.707 25.7027V34.8009C168.707 35.1411 168.572 35.4674 168.331 35.7079C168.089 35.9485 167.762 36.0836 167.421 36.0836C167.08 36.0836 166.753 35.9485 166.512 35.7079C166.271 35.4674 166.136 35.1411 166.136 34.8009V25.7027Z" fill="white"/>
<path d="M173.85 26.7837H171.409C170.683 26.7837 170.088 26.4037 170.088 25.7029C170.088 25.0022 170.683 24.6221 171.409 24.6221H178.849C179.576 24.6221 180.183 25.0022 180.183 25.7029C180.183 26.4037 179.576 26.7837 178.849 26.7837H176.409V34.8011C176.426 34.9791 176.406 35.1587 176.35 35.3285C176.293 35.4982 176.202 35.6543 176.081 35.7867C175.961 35.9191 175.814 36.025 175.65 36.0974C175.486 36.1698 175.309 36.2071 175.129 36.2071C174.95 36.2071 174.773 36.1698 174.609 36.0974C174.445 36.025 174.298 35.9191 174.178 35.7867C174.057 35.6543 173.966 35.4982 173.909 35.3285C173.853 35.1587 173.832 34.9791 173.85 34.8011V26.7837Z" fill="white"/>
<path d="M186.48 24.3608C187.248 24.307 188.018 24.4192 188.739 24.69C189.459 24.9607 190.112 25.3834 190.654 25.9293C191.195 26.4751 191.612 27.1312 191.876 27.8527C192.14 28.5742 192.244 29.344 192.182 30.1095C192.182 33.2926 190.337 36.1551 186.48 36.1551C182.433 36.1551 180.766 33.5183 180.766 30.1095C180.706 29.3434 180.812 28.5733 181.077 27.8519C181.343 27.1304 181.761 26.4745 182.303 25.9289C182.845 25.3833 183.499 24.9608 184.22 24.6902C184.941 24.4195 185.712 24.3072 186.48 24.3608ZM186.48 34.0884C188.861 34.0884 189.611 32.2712 189.611 30.1095C189.611 27.9478 188.575 26.4274 186.48 26.4274C184.385 26.4274 183.337 27.9596 183.337 30.1095C183.337 32.2593 184.064 34.1122 186.48 34.1122V34.0884Z" fill="white"/>
<path d="M194.063 26.1305C194.063 24.9427 194.658 24.6221 195.563 24.6221H199.849C202.896 24.6221 203.718 26.2968 203.718 27.7577C203.744 28.3591 203.567 28.9519 203.215 29.4409C202.863 29.9299 202.357 30.2867 201.777 30.4539C203.087 30.644 203.325 31.6417 203.325 32.7344C203.377 33.5341 203.492 34.3284 203.67 35.1099C203.627 35.3931 203.483 35.6513 203.264 35.8368C203.045 36.0223 202.767 36.1227 202.48 36.1195C201.063 36.1195 200.956 34.7535 200.956 34.3022C200.956 32.3305 200.599 31.5347 199.182 31.5347H196.635V34.8248C196.635 35.165 196.499 35.4913 196.258 35.7318C196.017 35.9724 195.69 36.1076 195.349 36.1076C195.008 36.1076 194.681 35.9724 194.44 35.7318C194.199 35.4913 194.063 35.165 194.063 34.8248V26.1305ZM196.635 29.6937H199.206C200.17 29.6937 201.146 29.4443 201.146 28.1734C201.146 26.9025 200.408 26.6531 199.277 26.6531H196.635V29.6937Z" fill="white"/>
<path d="M205.67 25.7027C205.67 25.3625 205.805 25.0362 206.046 24.7956C206.288 24.5551 206.615 24.4199 206.956 24.4199C207.297 24.4199 207.624 24.5551 207.865 24.7956C208.106 25.0362 208.241 25.3625 208.241 25.7027V34.8009C208.241 35.1411 208.106 35.4674 207.865 35.7079C207.624 35.9485 207.297 36.0836 206.956 36.0836C206.615 36.0836 206.288 35.9485 206.046 35.7079C205.805 35.4674 205.67 35.1411 205.67 34.8009V25.7027Z" fill="white"/>
<path d="M215.824 24.3607C216.592 24.3071 217.363 24.4195 218.084 24.6901C218.805 24.9607 219.459 25.3832 220.001 25.9288C220.543 26.4744 220.961 27.1303 221.227 27.8518C221.492 28.5732 221.598 29.3433 221.538 30.1094C221.538 33.2925 219.681 36.155 215.824 36.155C211.789 36.155 210.122 33.5182 210.122 30.1094C210.062 29.3443 210.168 28.5754 210.433 27.8549C210.697 27.1343 211.114 26.479 211.655 25.9336C212.196 25.3882 212.848 24.9654 213.568 24.694C214.287 24.4226 215.057 24.3089 215.824 24.3607ZM215.824 34.0883C218.205 34.0883 218.967 32.2711 218.967 30.1094C218.967 27.9477 217.931 26.4273 215.824 26.4273C213.717 26.4273 212.693 27.9595 212.693 30.1094C212.693 32.2592 213.419 34.1121 215.824 34.1121V34.0883Z" fill="white"/>
<path d="M228.205 26.1306C228.172 25.9251 228.188 25.7148 228.253 25.517C228.317 25.3191 228.428 25.1392 228.575 24.9921C228.723 24.845 228.903 24.7348 229.101 24.6705C229.3 24.6062 229.51 24.5896 229.716 24.6222H232.847C235.657 24.6222 238.228 25.8099 238.228 30.2521C238.228 33.8154 236.24 35.882 232.8 35.882H229.716C228.8 35.882 228.205 35.5257 228.205 34.3855V26.1306ZM230.776 33.8154H232.942C235.002 33.8154 235.657 31.9862 235.657 30.2521C235.657 28.031 234.811 26.6889 232.931 26.6889H230.8L230.776 33.8154Z" fill="white"/>
<path d="M240.168 26.1305C240.168 24.9427 240.764 24.6221 241.668 24.6221H247.704C248.454 24.6221 249.013 24.8477 249.013 25.6554C249.013 26.4631 248.454 26.6887 247.704 26.6887H242.704V29.1236H247.061C247.739 29.1236 248.251 29.3137 248.251 30.1095C248.251 30.9053 247.727 31.0953 247.061 31.0953H242.704V33.8152H247.799C248.549 33.8152 249.096 34.0409 249.096 34.8486C249.096 35.6562 248.549 35.8819 247.799 35.8819H241.633C240.728 35.8819 240.133 35.5256 240.133 34.3853L240.168 26.1305Z" fill="white"/>
<path d="M114.436 45.7401C115.203 45.6863 115.974 45.7987 116.694 46.0694C117.414 46.3401 118.068 46.7629 118.609 47.3087C119.15 47.8546 119.567 48.5107 119.831 49.2321C120.095 49.9536 120.2 50.7234 120.138 51.4889C120.138 54.6721 118.292 57.5345 114.436 57.5345C110.388 57.5345 108.733 54.8977 108.733 51.4889C108.671 50.7234 108.776 49.9536 109.04 49.2321C109.304 48.5107 109.721 47.8546 110.262 47.3087C110.803 46.7629 111.457 46.3401 112.177 46.0694C112.897 45.7987 113.668 45.6863 114.436 45.7401ZM114.436 55.4678C116.816 55.4678 117.566 53.6506 117.566 51.4889C117.566 49.3272 116.531 47.8069 114.436 47.8069C112.34 47.8069 111.305 49.3391 111.305 51.4889C111.305 53.6387 112.019 55.4916 114.436 55.4916V55.4678Z" fill="white"/>
<path d="M122.019 47.5099C122.019 46.3222 122.614 46.0015 123.519 46.0015H126.935C128.816 46.0015 131.066 46.4291 131.066 48.9115C131.075 49.4092 130.927 49.8971 130.642 50.3063C130.358 50.7154 129.953 51.0252 129.483 51.1919C130.087 51.3229 130.623 51.6712 130.987 52.1705C131.352 52.6698 131.519 53.2853 131.459 53.8999C131.459 56.2754 129.53 57.2257 127.304 57.2257H123.519C122.614 57.2257 122.019 56.8694 122.019 55.7291V47.5099ZM124.59 50.6336H126.709C127.899 50.6336 128.494 50.1467 128.494 49.2559C128.494 48.175 127.578 47.8781 126.625 47.8781H124.59V50.6336ZM124.59 55.2897H126.756C127.756 55.2897 128.887 55.0877 128.887 53.7931C128.887 52.4984 127.697 52.2609 126.435 52.2609H124.59V55.2897Z" fill="white"/>
<path d="M139.946 53.7458C140 54.2618 139.937 54.7831 139.761 55.2713C139.585 55.7594 139.302 56.2019 138.931 56.5658C138.561 56.9297 138.113 57.2057 137.621 57.3735C137.129 57.5412 136.606 57.5963 136.089 57.5347C133.006 57.5347 132.423 55.4799 132.423 54.3753C132.423 53.2707 132.863 52.8075 133.613 52.8075C134.363 52.8075 134.804 53.532 134.804 54.2922C134.791 54.4612 134.816 54.6308 134.875 54.7898C134.934 54.9487 135.026 55.0932 135.145 55.2136C135.265 55.3339 135.409 55.4274 135.568 55.4877C135.726 55.548 135.896 55.5737 136.066 55.5631C136.911 55.5631 137.375 54.9336 137.375 53.7102V47.0825C137.375 46.7423 137.511 46.416 137.752 46.1755C137.993 45.9349 138.32 45.7998 138.661 45.7998C139.002 45.7998 139.329 45.9349 139.57 46.1755C139.811 46.416 139.946 46.7423 139.946 47.0825V53.7458Z" fill="white"/>
<path d="M142.387 47.5101C142.352 47.3037 142.367 47.0919 142.431 46.8925C142.494 46.693 142.604 46.5115 142.752 46.363C142.9 46.2144 143.081 46.103 143.28 46.0381C143.48 45.9732 143.692 45.9566 143.899 45.9897H149.934C150.684 45.9897 151.232 46.2154 151.232 47.023C151.232 47.8307 150.684 48.0564 149.934 48.0564H144.958V50.4319H149.315C149.994 50.4319 150.506 50.6219 150.506 51.4177C150.506 52.2135 149.97 52.4036 149.315 52.4036H144.958V55.1235H150.053C150.815 55.1235 151.363 55.3492 151.363 56.1568C151.363 56.9645 150.815 57.1902 150.053 57.1902H143.899C142.982 57.1902 142.387 56.8338 142.387 55.6936V47.5101Z" fill="white"/>
<path d="M155.803 48.1632H153.422C152.684 48.1632 152.089 47.7831 152.089 47.0823C152.089 46.3815 152.684 46.0015 153.422 46.0015H160.85C161.588 46.0015 162.184 46.3815 162.184 47.0823C162.184 47.7831 161.588 48.1632 160.85 48.1632H158.47V56.1805C158.47 56.5207 158.334 56.847 158.093 57.0875C157.852 57.3281 157.525 57.4632 157.184 57.4632C156.843 57.4632 156.516 57.3281 156.275 57.0875C156.034 56.847 155.898 56.5207 155.898 56.1805L155.803 48.1632Z" fill="white"/>
<path d="M168.457 45.7401C169.225 45.6863 169.995 45.7987 170.716 46.0694C171.436 46.3401 172.089 46.7629 172.631 47.3087C173.172 47.8546 173.589 48.5107 173.853 49.2321C174.117 49.9536 174.221 50.7234 174.159 51.4889C174.159 54.6721 172.314 57.5345 168.457 57.5345C164.41 57.5345 162.743 54.8977 162.743 51.4889C162.683 50.7228 162.789 49.9528 163.055 49.2313C163.32 48.5099 163.738 47.854 164.28 47.3083C164.822 46.7627 165.476 46.3402 166.197 46.0696C166.918 45.7989 167.689 45.6866 168.457 45.7401ZM168.457 55.4678C170.838 55.4678 171.588 53.6506 171.588 51.4889C171.588 49.3272 170.552 47.8069 168.457 47.8069C166.362 47.8069 165.314 49.3391 165.314 51.4889C165.314 53.6387 166.041 55.4916 168.457 55.4916V55.4678Z" fill="white"/>
<path d="M181.992 50.7407C184.373 51.2752 184.945 52.6648 184.945 53.9832C184.945 56.0143 183.409 57.5465 180.302 57.5465C177.195 57.5465 175.54 55.9193 175.54 54.6959C175.535 54.5532 175.56 54.4108 175.613 54.2781C175.665 54.1453 175.745 54.0249 175.847 53.9244C175.949 53.824 176.07 53.7457 176.204 53.6945C176.338 53.6433 176.48 53.6203 176.623 53.6269C178.016 53.6269 177.647 55.6699 180.254 55.6699C181.588 55.6699 182.326 54.9335 182.326 54.1852C182.326 53.722 182.099 53.2231 181.23 52.9974L178.326 52.261C175.945 51.6672 175.564 50.3844 175.564 49.1847C175.564 46.6786 177.885 45.7402 180.064 45.7402C182.242 45.7402 184.445 46.928 184.445 48.3652C184.437 48.5115 184.4 48.6549 184.336 48.7865C184.271 48.9181 184.18 49.0352 184.069 49.1307C183.958 49.2263 183.828 49.2982 183.688 49.3422C183.548 49.3862 183.4 49.4013 183.254 49.3866C182.064 49.3866 182.278 47.7119 179.885 47.7119C178.695 47.7119 178.028 48.2583 178.028 49.0422C178.028 49.8261 178.969 50.0756 179.79 50.23L181.992 50.7407Z" fill="white"/>
<path d="M196.98 56.5723C196.706 57.3087 196.206 57.475 195.408 57.475C194.611 57.475 194.111 57.3087 193.837 56.5723L190.67 47.688C190.577 47.4491 190.524 47.1961 190.516 46.9397C190.516 46.0845 191.182 45.752 191.825 45.752C192.468 45.752 192.885 46.1083 193.123 46.8803L195.444 54.5413L197.825 46.8803C198.063 46.1083 198.444 45.752 199.015 45.752C199.587 45.752 200.313 46.037 200.313 46.9397C200.304 47.1961 200.252 47.4491 200.158 47.688L196.98 56.5723Z" fill="white"/>
<path d="M201.73 47.0823C201.712 46.9043 201.733 46.7246 201.789 46.5549C201.846 46.3852 201.937 46.2291 202.058 46.0967C202.178 45.9643 202.325 45.8584 202.489 45.786C202.653 45.7136 202.83 45.6763 203.009 45.6763C203.189 45.6763 203.366 45.7136 203.53 45.786C203.694 45.8584 203.841 45.9643 203.961 46.0967C204.082 46.2291 204.173 46.3852 204.229 46.5549C204.286 46.7246 204.306 46.9043 204.289 47.0823V56.1805C204.306 56.3585 204.286 56.5382 204.229 56.7079C204.173 56.8776 204.082 57.0337 203.961 57.1661C203.841 57.2985 203.694 57.4044 203.53 57.4768C203.366 57.5492 203.189 57.5865 203.009 57.5865C202.83 57.5865 202.653 57.5492 202.489 57.4768C202.325 57.4044 202.178 57.2985 202.058 57.1661C201.937 57.0337 201.846 56.8776 201.789 56.7079C201.733 56.5382 201.712 56.3585 201.73 56.1805V47.0823Z" fill="white"/>
<path d="M206.682 47.5099C206.682 46.3222 207.277 46.0015 208.182 46.0015H212.455C215.515 46.0015 216.336 47.6762 216.336 49.1371C216.362 49.7401 216.183 50.3341 215.829 50.8233C215.475 51.3125 214.966 51.6683 214.384 51.8333C215.705 52.0233 215.943 53.0211 215.943 54.1138C215.995 54.9135 216.111 55.7078 216.288 56.4893C216.245 56.7725 216.101 57.0307 215.882 57.2162C215.664 57.4017 215.385 57.5021 215.098 57.4989C213.693 57.4989 213.586 56.1329 213.586 55.6816C213.586 53.7099 213.217 52.9142 211.812 52.9142H209.265V56.2042C209.282 56.3822 209.262 56.5619 209.205 56.7317C209.149 56.9014 209.057 57.0575 208.937 57.1899C208.816 57.3223 208.67 57.4281 208.506 57.5005C208.342 57.5729 208.164 57.6103 207.985 57.6103C207.806 57.6103 207.629 57.5729 207.465 57.5005C207.301 57.4281 207.154 57.3223 207.033 57.1899C206.913 57.0575 206.821 56.9014 206.765 56.7317C206.709 56.5619 206.688 56.3822 206.705 56.2042L206.682 47.5099ZM209.241 51.0732H211.812C212.789 51.0732 213.765 50.8237 213.765 49.5528C213.765 48.2819 213.027 48.0325 211.896 48.0325H209.241V51.0732Z" fill="white"/>
<path d="M220.764 48.1632H218.384C217.645 48.1632 217.05 47.7831 217.05 47.0823C217.05 46.3815 217.645 46.0015 218.384 46.0015H225.812C226.55 46.0015 227.145 46.3815 227.145 47.0823C227.145 47.7831 226.55 48.1632 225.812 48.1632H223.431V56.1805C223.431 56.5207 223.295 56.847 223.054 57.0875C222.813 57.3281 222.486 57.4632 222.145 57.4632C221.804 57.4632 221.477 57.3281 221.236 57.0875C220.995 56.847 220.86 56.5207 220.86 56.1805L220.764 48.1632Z" fill="white"/>
<path d="M228.478 47.0825C228.478 46.7423 228.614 46.416 228.855 46.1755C229.096 45.9349 229.423 45.7998 229.764 45.7998C230.105 45.7998 230.432 45.9349 230.673 46.1755C230.914 46.416 231.05 46.7423 231.05 47.0825V53.2469C231.05 54.7791 231.907 55.468 233.43 55.468C234.954 55.468 235.811 54.7791 235.811 53.2469V47.0825C235.811 46.7423 235.947 46.416 236.188 46.1755C236.429 45.9349 236.756 45.7998 237.097 45.7998C237.438 45.7998 237.765 45.9349 238.006 46.1755C238.247 46.416 238.383 46.7423 238.383 47.0825V53.0213C238.383 56.1094 236.466 57.511 233.478 57.511C230.49 57.511 228.574 56.1094 228.574 53.0213L228.478 47.0825Z" fill="white"/>
<path d="M242.906 46.5836C242.996 46.3295 243.17 46.1135 243.399 45.971C243.629 45.8285 243.9 45.7682 244.168 45.7998H244.775C245.08 45.7639 245.388 45.839 245.641 46.0115C245.895 46.1839 246.078 46.4419 246.156 46.7381L249.263 55.3611C249.395 55.6755 249.479 56.0077 249.513 56.3469C249.498 56.6515 249.366 56.9386 249.144 57.1487C248.922 57.3588 248.628 57.4757 248.323 57.4753C248.073 57.5098 247.818 57.4579 247.602 57.3283C247.385 57.1987 247.219 56.9991 247.132 56.7627L246.478 54.886H242.347L241.668 56.7627C241.593 57.0074 241.43 57.2158 241.21 57.3475C240.99 57.4791 240.729 57.5246 240.478 57.4753C240.323 57.4889 240.167 57.4695 240.021 57.4184C239.874 57.3673 239.74 57.2857 239.627 57.179C239.515 57.0723 239.426 56.943 239.368 56.7995C239.309 56.656 239.282 56.5017 239.287 56.3469C239.321 56.0077 239.405 55.6755 239.537 55.3611L242.906 46.5836ZM244.466 48.5791L242.906 53.1163H245.918L244.466 48.5791Z" fill="white"/>
<path d="M250.834 47.0825C250.834 46.7423 250.97 46.416 251.211 46.1755C251.452 45.9349 251.779 45.7998 252.12 45.7998C252.461 45.7998 252.788 45.9349 253.029 46.1755C253.27 46.416 253.406 46.7423 253.406 47.0825V55.1117H257.703C258.441 55.1117 259.037 55.48 259.037 56.1807C259.037 56.8815 258.441 57.2615 257.703 57.2615H252.346C251.43 57.2615 250.834 56.9052 250.834 55.765V47.0825Z" fill="white"/>
<path d="M260.477 47.5099C260.477 46.3222 261.072 46.0015 261.977 46.0015H268.012C268.774 46.0015 269.322 46.2271 269.322 47.0348C269.322 47.8425 268.774 48.0681 268.012 48.0681H263.048V50.4436H267.405C268.084 50.4436 268.596 50.6337 268.596 51.4295C268.596 52.2253 268.072 52.4153 267.405 52.4153H263.048V55.1353H268.143C268.893 55.1353 269.441 55.3609 269.441 56.1686C269.441 56.9763 268.893 57.2019 268.143 57.2019H261.977C261.072 57.2019 260.477 56.8456 260.477 55.7053V47.5099Z" fill="white"/>
<path d="M277.06 50.7407C279.441 51.2752 280 52.6648 280 53.9832C280 56.0143 278.464 57.5465 275.369 57.5465C272.274 57.5465 270.608 55.9193 270.608 54.6959C270.602 54.5532 270.627 54.4108 270.68 54.2781C270.733 54.1453 270.813 54.0249 270.914 53.9244C271.016 53.824 271.138 53.7457 271.271 53.6945C271.405 53.6433 271.548 53.6203 271.691 53.6269C273.084 53.6269 272.727 55.6699 275.334 55.6699C276.667 55.6699 277.405 54.9335 277.405 54.1852C277.405 53.722 277.179 53.2231 276.298 52.9974L273.405 52.261C271.024 51.6672 270.643 50.3844 270.643 49.1847C270.643 46.6786 272.965 45.7402 275.143 45.7402C277.322 45.7402 279.512 46.928 279.512 48.3652C279.506 48.5121 279.47 48.6563 279.406 48.7887C279.342 48.9211 279.252 49.039 279.14 49.1349C279.028 49.2307 278.898 49.3026 278.757 49.3459C278.616 49.3892 278.468 49.4031 278.322 49.3866C277.131 49.3866 277.345 47.7119 274.941 47.7119C273.75 47.7119 273.096 48.2583 273.096 49.0422C273.096 49.8261 274.036 50.0756 274.857 50.23L277.06 50.7407Z" fill="white"/>
<path d="M109.233 68.8893C109.233 67.7016 109.829 67.3809 110.733 67.3809H113.864C116.674 67.3809 119.245 68.5686 119.245 73.0108C119.245 76.574 117.257 78.6407 113.828 78.6407H110.733C109.829 78.6407 109.233 78.2844 109.233 77.1441V68.8893ZM111.805 76.574H113.959C116.019 76.574 116.674 74.7449 116.674 73.0108C116.674 70.7897 115.828 69.4475 113.947 69.4475H111.757L111.805 76.574Z" fill="white"/>
<path d="M121.185 68.8894C121.153 68.6839 121.169 68.4736 121.234 68.2757C121.298 68.0778 121.409 67.898 121.556 67.7509C121.704 67.6037 121.884 67.4936 122.082 67.4293C122.281 67.365 122.491 67.3484 122.697 67.381H128.733C129.483 67.381 130.03 67.6067 130.03 68.4143C130.03 69.222 129.483 69.4477 128.733 69.4477H123.757V71.8232H128.114C128.792 71.8232 129.304 72.0132 129.304 72.809C129.304 73.6048 128.768 73.7948 128.114 73.7948H123.757V76.5148H128.852C129.602 76.5148 130.149 76.7404 130.149 77.5481C130.149 78.3558 129.602 78.5814 128.852 78.5814H122.697C121.781 78.5814 121.185 78.2251 121.185 77.0849V68.8894Z" fill="white"/>
<path d="M139.137 67.963C139.224 67.7216 139.387 67.5148 139.601 67.3735C139.816 67.2322 140.071 67.164 140.327 67.1792H140.934C141.239 67.1433 141.547 67.2184 141.801 67.3908C142.054 67.5633 142.237 67.8213 142.315 68.1175L145.422 76.7405C145.554 77.0549 145.638 77.3871 145.672 77.7263C145.657 78.0309 145.525 78.318 145.303 78.5281C145.082 78.7382 144.788 78.8551 144.482 78.8547C144.232 78.8892 143.977 78.8373 143.761 78.7077C143.544 78.5781 143.379 78.3785 143.291 78.1421L142.637 76.2654H138.494L137.827 78.1421C137.748 78.3839 137.584 78.5891 137.365 78.72C137.147 78.8509 136.888 78.8987 136.637 78.8547C136.482 78.8683 136.326 78.8489 136.18 78.7978C136.033 78.7467 135.899 78.6651 135.787 78.5584C135.674 78.4517 135.586 78.3224 135.527 78.1789C135.468 78.0354 135.441 77.8811 135.447 77.7263C135.48 77.3871 135.565 77.0549 135.697 76.7405L139.137 67.963ZM140.684 69.9585L139.137 74.4957H142.137L140.684 69.9585Z" fill="white"/>
<path d="M147.113 68.8893C147.113 67.7016 147.708 67.3809 148.613 67.3809H152.553C154.708 67.3809 156.458 68.4498 156.458 70.9441C156.46 71.4436 156.357 71.938 156.156 72.3953C155.955 72.8526 155.659 73.2626 155.289 73.5986C154.918 73.9346 154.481 74.1891 154.006 74.3456C153.53 74.5022 153.027 74.5573 152.529 74.5074H149.684V77.548C149.684 77.8882 149.549 78.2145 149.308 78.455C149.066 78.6956 148.739 78.8308 148.398 78.8308C148.057 78.8308 147.73 78.6956 147.489 78.455C147.248 78.2145 147.113 77.8882 147.113 77.548V68.8893ZM149.684 72.5475H152.065C152.291 72.5706 152.52 72.5465 152.736 72.4768C152.953 72.4071 153.153 72.2932 153.323 72.1424C153.493 71.9917 153.63 71.8073 153.725 71.6011C153.82 71.3948 153.871 71.1711 153.874 70.9441C153.874 69.8276 153.065 69.3525 151.803 69.3525H149.672L149.684 72.5475Z" fill="white"/>
<path d="M158.184 68.8894C158.151 68.6839 158.168 68.4736 158.232 68.2757C158.297 68.0778 158.407 67.898 158.554 67.7509C158.702 67.6037 158.882 67.4936 159.081 67.4293C159.279 67.365 159.49 67.3484 159.696 67.381H163.969C167.029 67.381 167.85 69.0557 167.85 70.5167C167.876 71.1196 167.697 71.7136 167.343 72.2028C166.989 72.692 166.48 73.0478 165.898 73.2128C167.219 73.4028 167.457 74.4006 167.457 75.4933C167.509 76.293 167.625 77.0873 167.802 77.8688C167.759 78.152 167.615 78.4102 167.396 78.5957C167.178 78.7812 166.899 78.8816 166.612 78.8784C165.207 78.8784 165.088 77.5124 165.088 77.0611C165.088 75.0894 164.731 74.2937 163.326 74.2937H160.779V77.5837C160.779 77.9239 160.643 78.2502 160.402 78.4908C160.161 78.7313 159.834 78.8665 159.493 78.8665C159.152 78.8665 158.825 78.7313 158.584 78.4908C158.343 78.2502 158.208 77.9239 158.208 77.5837L158.184 68.8894ZM160.755 72.4527H163.326C164.303 72.4527 165.279 72.2032 165.279 70.9323C165.279 69.6614 164.541 69.412 163.41 69.412H160.755V72.4527Z" fill="white"/>
<path d="M169.814 68.8894C169.781 68.6875 169.796 68.4808 169.857 68.2855C169.918 68.0902 170.024 67.9118 170.166 67.7643C170.308 67.6168 170.482 67.5043 170.675 67.4357C170.868 67.3671 171.075 67.3443 171.278 67.3691H177.314C178.064 67.3691 178.611 67.5947 178.611 68.4024C178.611 69.2101 178.064 69.4357 177.314 69.4357H172.338V71.8112H176.695C177.373 71.8112 177.885 72.0013 177.885 72.7971C177.885 73.5929 177.35 73.783 176.695 73.783H172.338V76.5029H177.433C178.183 76.5029 178.731 76.7285 178.731 77.5362C178.731 78.3439 178.183 78.5695 177.433 78.5695H171.278C170.362 78.5695 169.767 78.2132 169.767 77.073L169.814 68.8894Z" fill="white"/>
<path d="M180.445 68.6875C180.445 67.6185 180.957 67.1791 182.052 67.1791C182.308 67.1628 182.563 67.2174 182.79 67.3369C183.017 67.4563 183.206 67.636 183.338 67.856L187.837 75.0895V68.4143C187.837 68.0867 187.968 67.7725 188.2 67.5408C188.432 67.3092 188.747 67.1791 189.075 67.1791C189.404 67.1791 189.719 67.3092 189.951 67.5408C190.183 67.7725 190.313 68.0867 190.313 68.4143V77.2512C190.313 78.2726 189.873 78.8546 188.79 78.8546C188.511 78.9031 188.224 78.8612 187.972 78.7351C187.719 78.6089 187.513 78.4052 187.385 78.1539L182.909 71.1223V77.6075C182.909 77.9351 182.779 78.2493 182.546 78.481C182.314 78.7126 181.999 78.8427 181.671 78.8427C181.343 78.8427 181.028 78.7126 180.795 78.481C180.563 78.2493 180.433 77.9351 180.433 77.6075L180.445 68.6875Z" fill="white"/>
<path d="M192.706 68.8893C192.706 67.7016 193.301 67.3809 194.206 67.3809H197.349C200.146 67.3809 202.718 68.5686 202.718 73.0108C202.718 76.574 200.729 78.6407 197.301 78.6407H194.206C193.301 78.6407 192.706 78.2844 192.706 77.1441V68.8893ZM195.277 76.574H197.468C199.515 76.574 200.17 74.7449 200.17 73.0108C200.17 70.7897 199.325 69.4475 197.444 69.4475H195.301L195.277 76.574Z" fill="white"/>
<path d="M204.61 68.4619C204.61 68.1217 204.746 67.7954 204.987 67.5549C205.228 67.3143 205.555 67.1792 205.896 67.1792C206.237 67.1792 206.564 67.3143 206.805 67.5549C207.046 67.7954 207.182 68.1217 207.182 68.4619V77.5601C207.182 77.9003 207.046 78.2266 206.805 78.4672C206.564 78.7077 206.237 78.8428 205.896 78.8428C205.555 78.8428 205.228 78.7077 204.987 78.4672C204.746 78.2266 204.61 77.9003 204.61 77.5601V68.4619Z" fill="white"/>
<path d="M215.05 69.5426H210.562C209.824 69.5426 209.229 69.1625 209.229 68.4617C209.229 67.7609 209.824 67.3809 210.562 67.3809H217.336C217.497 67.3594 217.662 67.3753 217.816 67.4274C217.97 67.4794 218.11 67.5663 218.225 67.6812C218.341 67.7961 218.428 67.9359 218.48 68.0898C218.532 68.2437 218.548 68.4076 218.526 68.5686C218.516 68.9088 218.39 69.2353 218.169 69.495L212.217 76.5028H217.241C217.967 76.5028 218.562 76.871 218.562 77.5718C218.562 78.2726 217.967 78.6526 217.241 78.6526H210.265C209.324 78.6526 208.777 78.3438 208.777 77.3936C208.783 77.0237 208.933 76.6706 209.194 76.4078L215.05 69.5426Z" fill="white"/>
<path d="M222.788 67.9629C222.878 67.711 223.05 67.4965 223.277 67.3543C223.504 67.212 223.772 67.1503 224.038 67.1791H224.657C224.962 67.1457 225.268 67.2218 225.521 67.3939C225.774 67.5659 225.958 67.8225 226.038 68.1174L229.133 76.7404C229.265 77.0548 229.349 77.387 229.383 77.7262C229.368 78.0308 229.236 78.3179 229.014 78.528C228.793 78.7381 228.498 78.855 228.193 78.8546C227.942 78.8913 227.687 78.8405 227.47 78.7105C227.253 78.5806 227.088 78.3797 227.002 78.142L226.336 76.2653H222.193L221.526 78.142C221.449 78.3852 221.286 78.592 221.066 78.7233C220.847 78.8546 220.587 78.9012 220.336 78.8546C220.181 78.8682 220.025 78.8488 219.879 78.7977C219.732 78.7466 219.598 78.665 219.486 78.5583C219.373 78.4516 219.285 78.3222 219.226 78.1788C219.167 78.0353 219.14 77.881 219.146 77.7262C219.179 77.387 219.264 77.0548 219.396 76.7404L222.788 67.9629ZM224.336 69.9583L222.788 74.4956H225.8L224.336 69.9583Z" fill="white"/>
<path d="M237.335 75.1252C237.389 75.6412 237.326 76.1625 237.15 76.6507C236.974 77.1388 236.69 77.5813 236.32 77.9452C235.95 78.3091 235.502 78.5851 235.01 78.7529C234.518 78.9206 233.994 78.9757 233.478 78.9141C230.383 78.9141 229.812 76.8593 229.812 75.7547C229.812 74.6501 230.24 74.1869 231.002 74.1869C231.764 74.1869 232.193 74.9114 232.193 75.6716C232.181 75.8395 232.204 76.0082 232.263 76.1662C232.321 76.3242 232.412 76.4681 232.53 76.5883C232.649 76.7084 232.791 76.8022 232.948 76.8632C233.106 76.9243 233.274 76.9513 233.443 76.9425C234.288 76.9425 234.764 76.313 234.764 75.0896V68.4619C234.764 68.1217 234.899 67.7954 235.14 67.5549C235.382 67.3143 235.709 67.1792 236.05 67.1792C236.391 67.1792 236.718 67.3143 236.959 67.5549C237.2 67.7954 237.335 68.1217 237.335 68.4619V75.1252Z" fill="white"/>
<path d="M239.776 68.8893C239.776 67.7016 240.371 67.3809 241.276 67.3809H247.311C248.061 67.3809 248.62 67.6065 248.62 68.4142C248.62 69.2219 248.061 69.4475 247.311 69.4475H242.347V71.823H246.704C247.382 71.823 247.894 72.0131 247.894 72.8089C247.894 73.6047 247.37 73.7947 246.704 73.7947H242.347V76.5147H247.466C248.216 76.5147 248.763 76.7403 248.763 77.548C248.763 78.3557 248.216 78.5813 247.466 78.5813H241.276C240.371 78.5813 239.776 78.225 239.776 77.0847V68.8893Z" fill="white"/>
</g>
<defs>
<clipPath id="clip0_495_3888">
<rect width="280" height="93.3333" fill="white"/>
</clipPath>
</defs>
</svg>
