<svg width="16" height="17" viewBox="0 0 16 17" fill="none" xmlns="http://www.w3.org/2000/svg">
<g clip-path="url(#clip0_491_825)">
<path d="M5.52319 12.9241C5.66319 12.8421 5.81619 12.7621 5.98219 12.6861C5.84196 12.8952 5.69179 13.0974 5.53219 13.2921C5.25219 13.6291 5.03419 13.8081 4.89719 13.8641C4.88582 13.8689 4.87412 13.8729 4.86219 13.8761C4.85221 13.8623 4.84351 13.8475 4.83619 13.8321C4.78019 13.7221 4.78219 13.6161 4.87619 13.4721C4.98219 13.3071 5.19519 13.1181 5.52319 12.9241ZM7.97819 11.2771C7.85919 11.3021 7.74119 11.3271 7.62219 11.3551C7.79845 11.0098 7.96518 10.6596 8.12219 10.3051C8.28026 10.598 8.45041 10.8843 8.63219 11.1631C8.41519 11.1951 8.19619 11.2331 7.97819 11.2771ZM10.5032 12.2161C10.3479 12.0908 10.2024 11.9538 10.0682 11.8061C10.2962 11.8111 10.5022 11.8281 10.6802 11.8601C10.9972 11.9171 11.1462 12.0071 11.1982 12.0691C11.2146 12.0864 11.2239 12.1093 11.2242 12.1331C11.2207 12.2036 11.2001 12.2723 11.1642 12.3331C11.144 12.3818 11.1117 12.4245 11.0702 12.4571C11.0496 12.4698 11.0252 12.4751 11.0012 12.4721C10.9112 12.4691 10.7432 12.4061 10.5032 12.2161ZM8.27819 7.47011C8.23819 7.71411 8.17019 7.99411 8.07819 8.29911C8.0443 8.1849 8.01461 8.06949 7.98919 7.95311C7.91319 7.60011 7.90219 7.32311 7.94319 7.13111C7.98119 6.95411 8.05319 6.88311 8.13919 6.84811C8.18532 6.82777 8.23417 6.8143 8.28419 6.80811C8.29719 6.83811 8.31219 6.90011 8.31619 7.00611C8.32119 7.12811 8.30919 7.28311 8.27819 7.47111V7.47011Z" fill="#078BD6"/>
<path fill-rule="evenodd" clip-rule="evenodd" d="M4 0.5H9.293C9.5582 0.500057 9.81251 0.605451 10 0.793L13.707 4.5C13.8945 4.68749 13.9999 4.9418 14 5.207V14.5C14 15.0304 13.7893 15.5391 13.4142 15.9142C13.0391 16.2893 12.5304 16.5 12 16.5H4C3.46957 16.5 2.96086 16.2893 2.58579 15.9142C2.21071 15.5391 2 15.0304 2 14.5V2.5C2 1.96957 2.21071 1.46086 2.58579 1.08579C2.96086 0.710714 3.46957 0.5 4 0.5V0.5ZM9.5 2V4C9.5 4.26522 9.60536 4.51957 9.79289 4.70711C9.98043 4.89464 10.2348 5 10.5 5H12.5L9.5 2ZM4.165 14.168C4.255 14.348 4.395 14.511 4.603 14.587C4.81 14.662 5.015 14.627 5.183 14.557C5.501 14.427 5.818 14.121 6.109 13.771C6.442 13.37 6.792 12.844 7.13 12.261C7.78253 12.0676 8.45075 11.9317 9.127 11.855C9.427 12.238 9.737 12.568 10.037 12.805C10.317 13.025 10.64 13.208 10.971 13.222C11.1513 13.2309 11.3298 13.1826 11.481 13.084C11.636 12.983 11.751 12.837 11.835 12.668C11.925 12.487 11.98 12.298 11.973 12.105C11.9667 11.9147 11.8962 11.7322 11.773 11.587C11.547 11.317 11.177 11.187 10.813 11.122C10.3714 11.0536 9.92343 11.0368 9.478 11.072C9.10186 10.5403 8.77389 9.97602 8.498 9.386C8.748 8.726 8.935 8.102 9.018 7.592C9.054 7.374 9.073 7.166 9.066 6.978C9.06476 6.79139 9.02134 6.60747 8.939 6.44C8.89156 6.34758 8.82414 6.26687 8.74164 6.20374C8.65913 6.14061 8.56361 6.09663 8.462 6.075C8.26 6.032 8.052 6.075 7.861 6.152C7.484 6.302 7.285 6.622 7.21 6.975C7.137 7.315 7.17 7.711 7.256 8.111C7.344 8.517 7.494 8.959 7.686 9.406C7.37889 10.1698 7.02419 10.9136 6.624 11.633C6.10864 11.7951 5.61188 12.0114 5.142 12.278C4.772 12.498 4.443 12.758 4.245 13.065C4.035 13.391 3.97 13.779 4.165 14.168Z" fill="#078BD6"/>
</g>
<defs>
<clipPath id="clip0_491_825">
<rect width="16" height="16" fill="white" transform="translate(0 0.5)"/>
</clipPath>
</defs>
</svg>
