<svg width="16" height="16" viewBox="0 0 16 16" fill="none" xmlns="http://www.w3.org/2000/svg">
<path d="M8.43579 2.52473C8.24464 2.18491 7.75536 2.18491 7.56421 2.52473L5.8736 5.53026C5.79586 5.66847 5.65718 5.7616 5.49983 5.78127L2.6729 6.13464C2.27748 6.18407 2.09595 6.65361 2.35529 6.95617L4.5873 9.56019C4.68972 9.67968 4.72991 9.84042 4.69577 9.99405L3.97106 13.2552C3.88093 13.6608 4.29611 13.993 4.67206 13.8161L7.7871 12.3502C7.92194 12.2867 8.07806 12.2867 8.2129 12.3502L11.3279 13.8161C11.7039 13.993 12.1191 13.6608 12.0289 13.2552L11.3042 9.99405C11.2701 9.84042 11.3103 9.67968 11.4127 9.56019L13.6447 6.95617C13.9041 6.65361 13.7225 6.18407 13.3271 6.13464L10.5002 5.78127C10.3428 5.7616 10.2041 5.66847 10.1264 5.53026L8.43579 2.52473Z" fill="#FFCE31"/>
</svg>
