<svg width="24" height="24" viewBox="0 0 24 24" fill="none" xmlns="http://www.w3.org/2000/svg">
<path d="M9.33335 2.6665H4.00002C3.26364 2.6665 2.66669 3.26346 2.66669 3.99984V9.33317C2.66669 10.0696 3.26364 10.6665 4.00002 10.6665H9.33335C10.0697 10.6665 10.6667 10.0696 10.6667 9.33317V3.99984C10.6667 3.26346 10.0697 2.6665 9.33335 2.6665Z" fill="#078BD6"/>
<path d="M20 2.6665H14.6666C13.9303 2.6665 13.3333 3.26346 13.3333 3.99984V9.33317C13.3333 10.0696 13.9303 10.6665 14.6666 10.6665H20C20.7364 10.6665 21.3333 10.0696 21.3333 9.33317V3.99984C21.3333 3.26346 20.7364 2.6665 20 2.6665Z" fill="#078BD6"/>
<path d="M9.33335 13.3335H4.00002C3.26364 13.3335 2.66669 13.9304 2.66669 14.6668V20.0002C2.66669 20.7365 3.26364 21.3335 4.00002 21.3335H9.33335C10.0697 21.3335 10.6667 20.7365 10.6667 20.0002V14.6668C10.6667 13.9304 10.0697 13.3335 9.33335 13.3335Z" fill="#078BD6"/>
<path d="M20 13.3335H14.6666C13.9303 13.3335 13.3333 13.9304 13.3333 14.6668V20.0002C13.3333 20.7365 13.9303 21.3335 14.6666 21.3335H20C20.7364 21.3335 21.3333 20.7365 21.3333 20.0002V14.6668C21.3333 13.9304 20.7364 13.3335 20 13.3335Z" fill="#078BD6"/>
</svg>
