<svg width="91" height="100" viewBox="0 0 91 100" fill="none" xmlns="http://www.w3.org/2000/svg">
<g clip-path="url(#clip0_870_11)">
<path d="M16.4918 72.031L17.0251 68.79C17.2032 67.769 17.3804 66.526 17.6475 65.061H17.6035C17.0702 66.348 16.4488 67.68 15.9595 68.701L14.4495 71.853H12.6714L12.4933 68.701C12.4493 67.724 12.3602 66.392 12.3152 65.061H12.2712C12.005 66.437 11.7378 67.769 11.4707 68.79L10.7152 72.031H8.62891L10.8943 62.974H14.0043L14.0933 65.682C14.1373 66.57 14.2264 67.682 14.2264 68.834H14.2704C14.6707 67.68 15.203 66.525 15.5582 65.682L16.759 63.018H19.9129L18.6682 72.074H16.4918V72.031Z" fill="white"/>
<path d="M24.3101 62.974L22.578 72.031H20.2676L21.9997 62.974H24.3101Z" fill="white"/>
<path d="M24.3984 72.031L26.0865 62.974H28.8402L29.6407 65.726C29.9959 66.926 30.2631 67.946 30.4842 69.056H30.5283C30.589 67.907 30.7376 66.7644 30.9725 65.638L31.4608 62.974H33.5932L31.9031 72.031H29.5016L28.569 69.057C28.2138 67.77 27.9466 66.882 27.6805 65.683H27.6365C27.5474 66.571 27.2812 68.036 27.0141 69.545L26.5258 72.031H24.3984Z" fill="white"/>
<path d="M37.6372 62.974L35.9052 72.031H33.5947L35.3268 62.974H37.6372Z" fill="white"/>
<path d="M38.2145 69.6328C38.8955 70.0065 39.6589 70.2048 40.4358 70.2098C41.0582 70.2098 41.6366 69.9878 41.6366 69.4548C41.6366 69.0108 41.2363 68.7448 40.4358 68.3448C39.9215 68.1685 39.4684 67.8489 39.1299 67.4237C38.7915 66.9984 38.5818 66.4853 38.5257 65.9448C38.5257 64.0358 40.2137 62.8818 42.346 62.8818C43.1263 62.8399 43.9048 62.9924 44.6114 63.3258L43.901 65.2348C43.356 64.9878 42.7671 64.8518 42.1689 64.8348C41.3684 64.8348 40.9682 65.1458 40.9682 65.5448C40.9682 65.9888 41.5455 66.2548 42.256 66.6548C42.7588 66.8367 43.1982 67.1601 43.5213 67.5859C43.8444 68.0117 44.0375 68.5219 44.0771 69.0548C44.0771 71.2748 42.2109 72.2068 40.2127 72.2068C39.2512 72.2399 38.2989 72.0096 37.459 71.5408L38.2145 69.6328Z" fill="white"/>
<path d="M47.8982 64.9741H45.6328L46.0331 62.9741H52.9183L52.5181 64.9741H50.2076L48.8748 72.0331H46.6094L47.8982 64.9741Z" fill="white"/>
<path d="M58.6036 68.3911H55.4016L55.0464 70.1221H58.6487L58.2484 72.0751H52.3848L54.1168 63.0181H59.8034L59.4031 64.9711H56.027L55.7158 66.4801H58.9178L58.6036 68.3911Z" fill="white"/>
<path d="M61.4936 63.1511C62.353 62.956 63.2331 62.8667 64.1142 62.8851C64.966 62.8476 65.8156 62.9993 66.6018 63.3291C66.9542 63.5068 67.2495 63.7801 67.4537 64.1177C67.6579 64.4553 67.7629 64.8436 67.7565 65.2381C67.7543 65.8229 67.5559 66.3901 67.1931 66.8489C66.8303 67.3077 66.324 67.6317 65.7552 67.7691V67.8131C66.0115 67.992 66.219 68.232 66.3588 68.5115C66.4986 68.7909 66.5663 69.1009 66.5557 69.4131C66.6039 70.297 66.738 71.1741 66.956 72.0321H64.6015C64.4526 71.3306 64.3635 70.6177 64.3353 69.9011C64.2463 68.8801 63.8911 68.6141 63.1806 68.6141H62.7804L62.158 72.0321H59.8926L61.4936 63.1511ZM63.0485 66.9251H63.759C64.6475 66.9251 65.36 66.4371 65.36 65.6381C65.36 65.0161 64.7826 64.7501 64.1162 64.7501C63.8931 64.7356 63.6691 64.7504 63.4498 64.7941L63.0485 66.9251Z" fill="white"/>
<path d="M72.0679 62.974L70.3358 72.031H68.0654L69.7975 62.974H72.0679Z" fill="white"/>
<path d="M81.4382 66.614C81.4837 68.1894 80.9088 69.7197 79.8372 70.876C78.9035 71.76 77.6578 72.2388 76.3721 72.208C75.8658 72.2332 75.3599 72.1513 74.8875 71.9677C74.4151 71.7841 73.9867 71.503 73.6305 71.1426C73.2743 70.7822 72.9981 70.3508 72.8202 69.8765C72.6422 69.4022 72.5664 68.8956 72.5977 68.39C72.5672 66.8226 73.1582 65.3067 74.2417 64.173C75.1625 63.2976 76.3911 62.8194 77.6619 62.842C78.169 62.7966 78.68 62.8629 79.1587 63.0363C79.6374 63.2098 80.0721 63.4861 80.4323 63.8459C80.7924 64.2056 81.0692 64.6399 81.243 65.1183C81.4168 65.5966 81.4835 66.1072 81.4382 66.614V66.614ZM76.0629 65.327C75.3917 66.1896 75.0317 67.2534 75.0412 68.346C75.0412 69.546 75.5746 70.299 76.7293 70.299C77.209 70.2834 77.6667 70.094 78.0171 69.766C78.6874 68.903 79.0473 67.8395 79.0387 66.747C79.0387 65.682 78.6385 64.794 77.4377 64.794C77.1824 64.7629 76.9232 64.7952 76.6834 64.8882C76.4435 64.9812 76.2304 65.1319 76.0629 65.327V65.327Z" fill="white"/>
<path d="M22.9777 84.5952H19.7757L19.4244 86.3232H23.0267L22.6715 88.2762H16.7588L18.4909 79.2192H24.1774L23.8222 81.1722H20.4461L20.1349 82.6812H23.3369L22.9777 84.5952Z" fill="white"/>
<path d="M25.8218 79.3121C26.689 79.182 27.5655 79.1225 28.4424 79.1341C29.6064 79.0569 30.7629 79.3693 31.7294 80.0221C32.1829 80.377 32.5417 80.8381 32.7742 81.3647C33.0067 81.8914 33.1056 82.4671 33.0623 83.0411C33.0919 83.8267 32.9388 84.6084 32.615 85.3248C32.2912 86.0413 31.8055 86.6729 31.1961 87.1701C29.9032 88.0806 28.3301 88.5056 26.7543 88.3701C25.8919 88.3886 25.0295 88.329 24.1777 88.1921L25.8218 79.3121ZM26.7994 86.4121C27.0333 86.4573 27.2721 86.4721 27.5098 86.4561C27.942 86.4644 28.371 86.3816 28.7691 86.2133C29.1671 86.045 29.5253 85.7948 29.8202 85.4791C30.3793 84.7745 30.6637 83.8912 30.6207 82.9931C30.6489 82.7101 30.6124 82.4245 30.5138 82.1577C30.4153 81.891 30.2573 81.6501 30.0519 81.4534C29.8464 81.2567 29.5989 81.1092 29.3281 81.0222C29.0572 80.9352 28.7701 80.9108 28.4884 80.9511C28.2799 80.9359 28.0703 80.9507 27.866 80.9951L26.7994 86.4121Z" fill="white"/>
<path d="M37.5491 79.223L36.5715 84.373C36.5121 84.7249 36.4823 85.0812 36.4825 85.438C36.4781 85.5888 36.5053 85.7388 36.5624 85.8784C36.6194 86.018 36.7051 86.1441 36.8138 86.2486C36.9226 86.3532 37.052 86.4338 37.1938 86.4854C37.3356 86.5369 37.4867 86.5583 37.6372 86.548C38.5698 86.548 39.1472 85.926 39.4143 84.417L40.3919 79.267H42.7024L41.7698 84.328C41.2364 87.08 40.0817 88.501 37.367 88.501C35.3238 88.501 34.165 87.48 34.165 85.527C34.1676 85.0947 34.2122 84.6637 34.2981 84.24L35.2307 79.312L37.5411 79.223H37.5491Z" fill="white"/>
<path d="M49.7643 88.0569C49.0007 88.3572 48.1825 88.4935 47.3628 88.4569C44.8752 88.4569 43.1872 86.9919 43.1872 84.5499C43.1532 83.6337 43.3611 82.7247 43.79 81.9142C44.2189 81.1038 44.8538 80.4204 45.6307 79.9329C46.6253 79.3487 47.7645 79.0562 48.9178 79.0889C49.6019 79.0717 50.2826 79.1924 50.919 79.4439L50.3417 81.3089C49.826 81.1337 49.2852 81.0439 48.7406 81.0429C48.0708 81.0155 47.4118 81.2192 46.8745 81.6199C46.4797 81.939 46.1653 82.3464 45.9568 82.8091C45.7482 83.2718 45.6513 83.7769 45.6737 84.2839C45.6507 84.5831 45.6943 84.8838 45.8013 85.1642C45.9083 85.4446 46.0761 85.6979 46.2927 85.9058C46.5093 86.1138 46.7692 86.2712 47.0539 86.3668C47.3386 86.4624 47.6409 86.4939 47.9392 86.4589C48.4989 86.472 49.0562 86.3818 49.5832 86.1929L49.7643 88.0569Z" fill="white"/>
<path d="M53.7628 86.149L52.8743 88.28H50.3867L54.6954 79.223H57.7163L58.6939 88.28H56.2924L56.2033 86.149H53.7628ZM56.0733 84.418L55.9842 82.731C55.9402 82.243 55.9402 81.444 55.8952 80.911H55.8511C55.629 81.488 55.3628 82.243 55.1407 82.731L54.4302 84.374H56.0743L56.0733 84.418Z" fill="white"/>
<path d="M66.3336 88.0573C65.5701 88.3576 64.7518 88.4939 63.9321 88.4573C61.4446 88.4573 59.7565 86.9923 59.7565 84.5503C59.7225 83.6341 59.9304 82.7251 60.3593 81.9146C60.7883 81.1042 61.4231 80.4208 62.2 79.9333C63.1924 79.3437 64.3332 79.0508 65.4871 79.0893C66.1713 79.0721 66.8519 79.1928 67.4883 79.4443L66.911 81.3093C66.3953 81.1341 65.8546 81.0443 65.31 81.0433C64.6401 81.0159 63.9812 81.2196 63.4438 81.6203C63.049 81.9394 62.7347 82.3468 62.5261 82.8095C62.3176 83.2722 62.2206 83.7773 62.2431 84.2843C62.22 84.5835 62.2636 84.8842 62.3706 85.1646C62.4776 85.445 62.6455 85.6983 62.862 85.9062C63.0786 86.1142 63.3386 86.2716 63.6232 86.3672C63.9079 86.4628 64.2102 86.4943 64.5085 86.4593C65.0682 86.4724 65.6255 86.3822 66.1525 86.1933L66.3336 88.0573Z" fill="white"/>
<path d="M71.3589 79.223L69.6269 88.28H67.3564L69.0885 79.223H71.3589Z" fill="white"/>
<path d="M71.8867 84.5941C71.8559 83.0263 72.4469 81.51 73.5307 80.3761C74.4513 79.5002 75.6799 79.0217 76.9508 79.0441C77.46 79.0073 77.971 79.0813 78.4489 79.2608C78.9267 79.4403 79.36 79.7211 79.7188 80.0839C80.0777 80.4467 80.3537 80.883 80.5277 81.3625C80.7018 81.8421 80.7698 82.3537 80.7272 82.8621C80.7726 84.4375 80.1978 85.9678 79.1262 87.1241C78.1925 88.008 76.9468 88.4869 75.661 88.4561C75.1532 88.4727 74.6474 88.3835 74.1759 88.1941C73.7045 88.0047 73.2776 87.7193 72.9226 87.356C72.5676 86.9927 72.2921 86.5595 72.1138 86.084C71.9354 85.6085 71.8581 85.1011 71.8867 84.5941ZM77.306 85.9701C77.9764 85.1071 78.3363 84.0436 78.3277 82.9511C78.3277 81.8861 77.9274 80.9981 76.7267 80.9981C76.477 80.9992 76.2302 81.0509 76.0011 81.1501C75.772 81.2493 75.5654 81.3938 75.3939 81.5751C74.7227 82.4376 74.3627 83.5015 74.3722 84.5941C74.3722 85.7941 74.9055 86.5471 76.0603 86.5471C76.5245 86.4862 76.9591 86.2853 77.306 85.9711V85.9701ZM79.7075 76.9131L77.9755 78.6441H76.0653L77.309 76.9131H79.7075Z" fill="white"/>
<path d="M81.2598 88.28L82.9918 79.223H85.7015L86.5451 81.975C86.9003 83.175 87.1674 84.195 87.3886 85.305H87.4326C87.4934 84.156 87.6419 83.0134 87.8769 81.887L88.3652 79.223H90.4975L88.7644 88.28H86.3629L85.4304 85.306C85.0301 84.019 84.808 83.131 84.5418 81.932H84.4978C84.4087 82.82 84.1426 84.285 83.8754 85.794L83.3871 88.28H81.2598Z" fill="white"/>
<path d="M7.78522 78.7341L6.40336 85.9261C6.2589 86.7045 6.15504 87.4899 6.09217 88.2791H4.67529L4.80837 87.1251H4.76434C4.52851 87.5155 4.19637 87.8388 3.79972 88.0641C3.40307 88.2895 2.95519 88.4093 2.49893 88.4121C1.34422 88.4121 0.497688 87.4801 0.497688 86.0121C0.451603 84.8822 0.856031 83.7801 1.6222 82.9479C2.38836 82.1156 3.45366 81.6212 4.58423 81.5731C4.93328 81.5633 5.28072 81.6239 5.60587 81.7511L6.18323 78.6881L7.78422 78.7321L7.78522 78.7341ZM5.38373 83.0401C5.11979 82.8668 4.81096 82.7744 4.49517 82.7741C3.16235 82.7741 2.14071 84.2831 2.14071 85.7481C2.14071 86.5481 2.4519 87.1691 3.20637 87.1691C3.91681 87.1691 4.76134 86.4141 5.0275 85.0381L5.38373 83.0401Z" fill="white"/>
<path d="M12.9825 87.8759C12.2674 88.2392 11.4742 88.4222 10.6721 88.4089C10.3072 88.4452 9.9389 88.4001 9.59364 88.2768C9.24838 88.1536 8.9348 87.9552 8.67556 87.6962C8.41631 87.4371 8.21786 87.1237 8.09452 86.7787C7.97119 86.4336 7.92606 86.0655 7.96238 85.7009C7.96238 83.7479 9.42829 81.5719 11.6937 81.5719C11.9556 81.5386 12.2216 81.5604 12.4747 81.6359C12.7277 81.7114 12.9621 81.8389 13.1629 82.0103C13.3637 82.1817 13.5264 82.3931 13.6406 82.631C13.7548 82.869 13.818 83.1281 13.826 83.3919C13.826 85.0789 12.0489 85.6119 9.51735 85.5669C9.49379 85.8878 9.55522 86.2093 9.69546 86.4989C9.83497 86.7215 10.0332 86.9015 10.2683 87.019C10.5034 87.1365 10.7663 87.1869 11.0283 87.1649C11.6635 87.1767 12.291 87.0237 12.8494 86.7209L12.9825 87.8759ZM11.4726 82.7259C11.025 82.766 10.6034 82.9534 10.2738 83.2587C9.94427 83.564 9.72538 83.9699 9.65143 84.4129C11.2524 84.4129 12.3171 84.2349 12.3171 83.4359C12.3161 82.9969 12.0049 82.7299 11.4716 82.7299L11.4726 82.7259Z" fill="white"/>
<path d="M47.8983 46.3272C49.3956 47.2077 51.0336 47.8234 52.7403 48.1472L74.9962 26.1272C72.4815 25.745 70.0399 24.9815 67.7556 23.8632C61.5808 20.8442 56.9169 15.8722 49.5863 21.9102C49.6786 21.7957 49.7829 21.6914 49.8975 21.5992L27.5977 43.8852C27.7692 44.0665 27.9758 44.211 28.2049 44.3102C28.434 44.4094 28.6808 44.4611 28.9305 44.4622C29.774 44.4622 36.171 42.4202 42.4789 48.7682C42.4789 48.7682 49.4092 55.3832 52.9184 55.3832L74.9521 33.3632L71.7982 32.9632L52.9634 51.8312C52.9634 51.8312 50.5619 52.5862 43.9008 46.8142C40.4356 43.7952 34.6611 42.1972 32.5287 42.6412C39.458 39.8452 43.5896 44.0622 47.8983 46.3272Z" fill="white"/>
<path d="M47.7649 3.57424C43.4563 -0.509764 36.3929 0.0222377 36.3929 0.0222377L16.0472 18.5792C19.2538 18.2825 22.4752 18.9634 25.287 20.5322C30.0399 23.4622 33.7272 30.0772 29.9509 38.6892C32.0392 29.3662 27.5964 25.1492 23.9981 23.4172C22.7406 22.8335 21.3809 22.5016 19.9957 22.4402L15.9932 25.9922C24.6556 23.7722 28.3008 30.8312 28.7421 33.8052C29.1011 36.4992 28.5873 39.2372 27.2762 41.6182C27.0807 41.9236 26.9731 42.2768 26.965 42.6392C26.9721 43.1205 27.1629 43.5809 27.4983 43.9262L49.7982 21.6402C54.5622 16.7152 52.3848 7.92524 47.7649 3.57424Z" fill="white"/>
<path d="M12.9823 95.0281C13.4499 94.9312 13.9268 94.8866 14.4042 94.8951C14.864 94.8669 15.3233 94.9586 15.737 95.1611C15.9275 95.2541 16.0874 95.3997 16.1977 95.5806C16.308 95.7616 16.3641 95.9703 16.3594 96.1821C16.359 96.4968 16.2544 96.8024 16.062 97.0515C15.8696 97.3006 15.6002 97.479 15.2957 97.5591V97.6031C15.4343 97.6957 15.5475 97.8214 15.625 97.9688C15.7026 98.1162 15.7421 98.2806 15.74 98.4471C15.8291 98.9351 15.8731 99.6471 15.9622 99.8681H14.6704C14.5952 99.4876 14.5507 99.1017 14.5373 98.7141C14.4932 98.1371 14.3151 98.0041 13.9149 98.0041H13.6947L13.3395 99.8691H12.0938L12.9823 95.0281ZM13.8258 97.0701H14.2261C14.7144 97.0701 15.0706 96.8041 15.0706 96.3601C15.0706 96.0051 14.7594 95.8721 14.4042 95.8721C14.2261 95.8721 14.093 95.8721 14.049 95.9161L13.8258 97.0701Z" fill="white"/>
<path d="M19.9113 97.8694H18.1792L18.0011 98.8015H19.9553L19.7371 99.8674H16.5352L17.4677 94.9395H20.5376L20.3155 96.0045H18.4944L18.3163 96.8474H20.0483L19.9113 97.8694Z" fill="white"/>
<path d="M21.4667 95.0281C21.9186 94.9286 22.3809 94.8839 22.8435 94.8951C23.3092 94.8601 23.7744 94.9687 24.1764 95.2061C24.3661 95.3228 24.5229 95.486 24.6318 95.6803C24.7408 95.8746 24.7982 96.0934 24.7987 96.3161C24.8131 96.5941 24.7552 96.871 24.6307 97.12C24.5062 97.3691 24.3193 97.5816 24.0883 97.7371C23.6171 98.055 23.0551 98.2108 22.4873 98.1811C22.3523 98.1941 22.216 98.1791 22.0871 98.1371L21.7759 99.8241H20.5781L21.4667 95.0281ZM22.2672 97.1591C22.3562 97.1591 22.4453 97.2031 22.6224 97.2031C22.7306 97.2132 22.8398 97.2016 22.9434 97.1689C23.0471 97.1362 23.1431 97.0831 23.2259 97.0128C23.3087 96.9424 23.3766 96.8562 23.4256 96.7592C23.4745 96.6623 23.5035 96.5565 23.511 96.4481C23.511 96.0481 23.1998 95.9151 22.8445 95.9151C22.6664 95.9151 22.5333 95.9151 22.4893 95.9591L22.2672 97.1591Z" fill="white"/>
<path d="M26.9751 94.9393L26.4418 97.7393C26.4014 97.9288 26.3866 98.1228 26.3978 98.3163C26.3916 98.3995 26.4035 98.4831 26.4327 98.5614C26.4618 98.6396 26.5074 98.7107 26.5665 98.7697C26.6255 98.8287 26.6966 98.8743 26.7749 98.9034C26.8532 98.9325 26.9368 98.9444 27.0201 98.9383C27.5085 98.9383 27.8206 98.6273 27.9978 97.7843L28.5311 94.9843H29.7749L29.2415 97.7363C28.9754 99.2453 28.353 100 26.8871 100C26.6632 100.034 26.4347 100.016 26.2184 99.9496C26.0021 99.883 25.8036 99.7686 25.6374 99.6151C25.4712 99.4616 25.3415 99.2727 25.2581 99.0625C25.1746 98.8522 25.1393 98.6259 25.155 98.4003C25.1654 98.1616 25.1952 97.9242 25.244 97.6903L25.7774 95.0263L26.9781 94.9373L26.9751 94.9393ZM29.1965 93.6963L28.2639 94.6283H27.2423L27.9087 93.6963H29.1965Z" fill="white"/>
<path d="M30.6621 95.0283C31.1147 94.9335 31.5765 94.8889 32.0389 94.8953C32.4652 94.8703 32.8914 94.9464 33.2827 95.1173C33.4767 95.1978 33.6431 95.3331 33.7614 95.5066C33.8798 95.6801 33.945 95.8843 33.9491 96.0943C33.9382 96.368 33.836 96.6302 33.6589 96.8393C33.4818 97.0484 33.2398 97.1923 32.9715 97.2483C33.1955 97.3206 33.3901 97.4634 33.5262 97.6554C33.6624 97.8473 33.7328 98.0781 33.727 98.3133C33.72 98.5571 33.6512 98.7951 33.5269 99.005C33.4026 99.2149 33.227 99.3898 33.0165 99.5133C32.4127 99.8191 31.7378 99.9572 31.0623 99.9132C30.6164 99.9189 30.1707 99.8891 29.7295 99.8243L30.6621 95.0283ZM31.1504 98.8903H31.5056C31.9939 98.8903 32.4382 98.7123 32.4382 98.2683C32.4382 97.8243 32.083 97.7353 31.5937 97.7353H31.3305L31.1504 98.8903ZM31.5506 96.8033H31.8618C32.3951 96.8033 32.7063 96.6253 32.7063 96.2703C32.7063 95.9593 32.4402 95.8263 32.129 95.8263C31.9509 95.8263 31.8178 95.8263 31.7738 95.8703L31.5506 96.8033Z" fill="white"/>
<path d="M35.1933 94.9395H36.4371L35.7267 98.7574H37.5928L37.3707 99.8225H34.2607L35.1933 94.9395Z" fill="white"/>
<path d="M40.1246 94.9395L39.192 99.8674H37.9482L38.8808 94.9395H40.1246Z" fill="white"/>
<path d="M43.9898 99.6905C43.5817 99.8566 43.1423 99.9324 42.702 99.9125C42.4122 99.9422 42.1194 99.9099 41.843 99.818C41.5666 99.7261 41.3129 99.5765 41.0987 99.3791C40.8846 99.1818 40.7148 98.9413 40.6006 98.6734C40.4865 98.4056 40.4306 98.1165 40.4366 97.8255C40.4063 97.3283 40.5149 96.8326 40.7503 96.3936C40.9856 95.9546 41.3385 95.5896 41.7694 95.3395C42.1997 95.1027 42.6741 94.9569 43.1632 94.9111C43.6522 94.8653 44.1455 94.9206 44.6122 95.0735L44.301 96.0945C44.0286 96.0061 43.7439 95.9612 43.4575 95.9615C43.0909 95.9415 42.7291 96.0517 42.4359 96.2725C42.2238 96.4502 42.0568 96.6756 41.9486 96.9303C41.8404 97.1849 41.7941 97.4615 41.8135 97.7375C41.799 97.9025 41.8215 98.0686 41.8795 98.2238C41.9375 98.3789 42.0295 98.5191 42.1488 98.6342C42.268 98.7492 42.4114 98.8361 42.5686 98.8886C42.7258 98.9411 42.8928 98.9578 43.0572 98.9375C43.359 98.9472 43.6601 98.9022 43.9458 98.8045L43.9898 99.6905Z" fill="white"/>
<path d="M46.1659 98.6695L45.6776 99.8235H44.3447L46.6992 94.8955H48.3472L48.8806 99.8235H47.5927L47.5487 98.6695H46.1659ZM47.4096 97.7375L47.3656 96.8495C47.3656 96.5835 47.3216 96.1835 47.3216 95.8725C47.1885 96.1835 47.0554 96.5825 46.9213 96.8935L46.5661 97.7815L47.4106 97.7375H47.4096Z" fill="white"/>
<path d="M55.0958 94.6734L54.3854 98.3584C54.2849 98.8557 54.2253 99.3604 54.2073 99.8674H53.0526L53.0966 99.3344C52.9749 99.5194 52.8104 99.6725 52.6171 99.7808C52.4239 99.889 52.2074 99.9493 51.9859 99.9564C51.4086 99.9564 50.8752 99.5124 50.8752 98.5804C50.8618 98.2731 50.9102 97.9662 51.0176 97.6779C51.125 97.3896 51.2892 97.1257 51.5004 96.9019C51.7116 96.6782 51.9656 96.499 52.2473 96.3751C52.5291 96.2511 52.8328 96.185 53.1406 96.1804C53.2917 96.1928 53.4408 96.2227 53.5849 96.2694L53.8961 94.6694L55.0958 94.6734ZM53.3638 97.2034C53.2609 97.1254 53.1374 97.0792 53.0085 97.0704C52.4752 97.0704 52.12 97.7364 52.12 98.3134C52.12 98.7574 52.3421 98.8904 52.5203 98.8904C52.7424 98.8904 53.0536 98.6684 53.1867 98.0464L53.3638 97.2034Z" fill="white"/>
<path d="M58.1596 99.6013C57.7084 99.785 57.2247 99.8755 56.7377 99.8673C56.5219 99.9005 56.3014 99.8839 56.093 99.8189C55.8846 99.7539 55.6938 99.6422 55.5352 99.4923C55.3766 99.3424 55.2543 99.1582 55.1778 98.9539C55.1013 98.7495 55.0725 98.5304 55.0936 98.3133C55.085 98.029 55.134 97.7458 55.2376 97.4809C55.3412 97.2159 55.4973 96.9746 55.6965 96.7715C55.8958 96.5683 56.1341 96.4075 56.3971 96.2987C56.6601 96.1899 56.9424 96.1353 57.227 96.1383C57.9825 96.1383 58.5598 96.5383 58.5598 97.2923C58.5598 98.1803 57.7593 98.5793 56.2494 98.5353C56.2485 98.5811 56.2605 98.6261 56.284 98.6654C56.3076 98.7047 56.3417 98.7365 56.3824 98.7573C56.5592 98.8946 56.7822 98.9583 57.0048 98.9353C57.3568 98.9302 57.7042 98.8547 58.0265 98.7133L58.1596 99.6013ZM57.0939 97.0703C56.9273 97.0708 56.7659 97.1283 56.6366 97.2333C56.5074 97.3383 56.418 97.4844 56.3835 97.6473C57.1389 97.6473 57.4051 97.5583 57.4051 97.2923C57.4491 97.1593 57.316 97.0703 57.0959 97.0703H57.0939Z" fill="white"/>
<path d="M64.1129 99.6905C63.7047 99.8566 63.2653 99.9324 62.8251 99.9125C62.5353 99.9422 62.2425 99.9099 61.9661 99.818C61.6897 99.7261 61.436 99.5765 61.2218 99.3791C61.0076 99.1818 60.8378 98.9413 60.7237 98.6734C60.6095 98.4056 60.5536 98.1165 60.5597 97.8255C60.5294 97.3283 60.638 96.8326 60.8733 96.3936C61.1087 95.9546 61.4615 95.5896 61.8925 95.3395C62.3228 95.1027 62.7971 94.9569 63.2862 94.9111C63.7752 94.8653 64.2685 94.9206 64.7353 95.0735L64.4241 96.0945C64.1516 96.0061 63.867 95.9612 63.5805 95.9615C63.214 95.9415 62.8521 96.0517 62.5589 96.2725C62.3468 96.4502 62.1798 96.6756 62.0717 96.9303C61.9635 97.1849 61.9172 97.4615 61.9365 97.7375C61.922 97.9025 61.9446 98.0686 62.0026 98.2238C62.0606 98.3789 62.1526 98.5191 62.2718 98.6342C62.391 98.7492 62.5345 98.8361 62.6917 98.8886C62.8489 98.9411 63.0158 98.9578 63.1803 98.9375C63.4821 98.9472 63.7832 98.9022 64.0688 98.8045L64.1129 99.6905Z" fill="white"/>
<path d="M66.8667 94.9395L66.3334 97.7395C66.293 97.929 66.2782 98.1231 66.2893 98.3165C66.2832 98.3997 66.2951 98.4833 66.3243 98.5616C66.3534 98.6398 66.399 98.7109 66.4581 98.7699C66.5171 98.8289 66.5882 98.8745 66.6665 98.9036C66.7448 98.9327 66.8284 98.9446 66.9117 98.9385C67.4 98.9385 67.7122 98.6275 67.8893 97.7845L68.4227 94.9845H69.6665L69.1331 97.7365C68.867 99.2455 68.2446 100 66.7787 100C66.5548 100.034 66.3263 100.016 66.11 99.9498C65.8937 99.8832 65.6952 99.7688 65.529 99.6153C65.3627 99.4618 65.2331 99.2729 65.1496 99.0627C65.0662 98.8524 65.0309 98.6261 65.0466 98.4005C65.0571 98.1618 65.0868 97.9244 65.1356 97.6905L65.6239 95.0265L66.8677 94.9375L66.8667 94.9395Z" fill="white"/>
<path d="M70.5545 95.0283C71.0072 94.9335 71.469 94.8889 71.9314 94.8953C72.3577 94.8703 72.7839 94.9464 73.1752 95.1173C73.3692 95.1978 73.5355 95.3331 73.6539 95.5066C73.7722 95.6801 73.8375 95.8843 73.8416 96.0943C73.8318 96.3615 73.7357 96.6184 73.5676 96.8265C73.3994 97.0345 73.1684 97.1825 72.909 97.2483V97.2483C73.133 97.3206 73.3276 97.4634 73.4637 97.6554C73.5999 97.8473 73.6703 98.0781 73.6645 98.3133C73.6575 98.5571 73.5887 98.7951 73.4644 99.005C73.3401 99.2149 73.1645 99.3898 72.954 99.5133C72.3502 99.8191 71.6753 99.9572 70.9998 99.9132C70.5539 99.9189 70.1082 99.8891 69.667 99.8243L70.5545 95.0283ZM71.0428 98.8903H71.3981C71.8864 98.8903 72.3306 98.7123 72.3306 98.2683C72.3306 97.8243 71.9304 97.7353 71.4861 97.7353H71.267L71.0428 98.8903ZM71.4431 96.8033H71.7543C72.2876 96.8033 72.5988 96.6253 72.5988 96.2703C72.5988 95.9593 72.3326 95.8263 71.9764 95.8263C71.7983 95.8263 71.6652 95.8263 71.6212 95.8703L71.4431 96.8033Z" fill="white"/>
<path d="M75.5731 98.6695L75.0848 99.8235H73.752L76.1064 94.8955H77.7544L78.2878 99.8235H77L76.9559 98.6695H75.5731ZM76.8168 97.7375L76.7728 96.8495C76.7728 96.5835 76.7288 96.1835 76.7288 95.8725C76.5957 96.1835 76.4626 96.5825 76.3286 96.8935L75.9733 97.7815L76.8179 97.7375H76.8168Z" fill="white"/>
</g>
<defs>
<clipPath id="clip0_870_11">
<rect width="90" height="100" fill="white" transform="translate(0.5)"/>
</clipPath>
</defs>
</svg>
